G04 EAGLE Gerber RS-274X export*
G75*
%MOMM*%
%FSLAX34Y34*%
%LPD*%
%INBottom Copper*%
%IPPOS*%
%AMOC8*
5,1,8,0,0,1.08239X$1,22.5*%
G01*
%ADD10C,1.208000*%
%ADD11C,1.524000*%
%ADD12R,1.524000X1.524000*%
%ADD13C,1.524000*%
%ADD14R,1.508000X1.508000*%
%ADD15C,1.508000*%
%ADD16P,1.814519X8X22.500000*%
%ADD17P,1.814519X8X202.500000*%
%ADD18C,1.320800*%
%ADD19R,1.270000X1.270000*%
%ADD20C,1.270000*%
%ADD21P,1.814519X8X292.500000*%
%ADD22C,2.400000*%
%ADD23C,0.152400*%
%ADD24C,0.756400*%

G36*
X850920Y11942D02*
X850920Y11942D01*
X850939Y11940D01*
X851041Y11962D01*
X851143Y11979D01*
X851160Y11988D01*
X851180Y11992D01*
X851269Y12045D01*
X851360Y12094D01*
X851374Y12108D01*
X851391Y12118D01*
X851458Y12197D01*
X851530Y12272D01*
X851538Y12290D01*
X851551Y12305D01*
X851590Y12401D01*
X851633Y12495D01*
X851635Y12515D01*
X851643Y12533D01*
X851661Y12700D01*
X851661Y366778D01*
X851658Y366798D01*
X851660Y366817D01*
X851638Y366919D01*
X851621Y367021D01*
X851612Y367038D01*
X851608Y367058D01*
X851555Y367147D01*
X851506Y367238D01*
X851492Y367252D01*
X851482Y367269D01*
X851403Y367336D01*
X851328Y367408D01*
X851310Y367416D01*
X851295Y367429D01*
X851199Y367468D01*
X851105Y367511D01*
X851085Y367513D01*
X851067Y367521D01*
X850900Y367539D01*
X12700Y367539D01*
X12680Y367536D01*
X12661Y367538D01*
X12559Y367516D01*
X12457Y367500D01*
X12440Y367490D01*
X12420Y367486D01*
X12331Y367433D01*
X12240Y367384D01*
X12226Y367370D01*
X12209Y367360D01*
X12142Y367281D01*
X12070Y367206D01*
X12062Y367188D01*
X12049Y367173D01*
X12010Y367077D01*
X11967Y366983D01*
X11965Y366963D01*
X11957Y366945D01*
X11939Y366778D01*
X11939Y250666D01*
X11946Y250621D01*
X11944Y250575D01*
X11966Y250500D01*
X11979Y250423D01*
X12000Y250383D01*
X12013Y250339D01*
X12057Y250275D01*
X12094Y250206D01*
X12127Y250174D01*
X12153Y250137D01*
X12215Y250090D01*
X12272Y250037D01*
X12314Y250017D01*
X12350Y249990D01*
X12424Y249966D01*
X12495Y249933D01*
X12541Y249928D01*
X12584Y249914D01*
X12662Y249914D01*
X12739Y249906D01*
X12784Y249916D01*
X12830Y249916D01*
X12962Y249954D01*
X12980Y249958D01*
X12984Y249961D01*
X12991Y249963D01*
X15063Y250821D01*
X20497Y250821D01*
X25518Y248741D01*
X27787Y246472D01*
X27870Y246412D01*
X27950Y246348D01*
X27974Y246338D01*
X27987Y246328D01*
X28018Y246319D01*
X28089Y246288D01*
X28136Y246233D01*
X28200Y246148D01*
X28214Y246139D01*
X28225Y246126D01*
X28364Y246031D01*
X28610Y245900D01*
X28626Y245894D01*
X28639Y245885D01*
X28742Y245855D01*
X28843Y245820D01*
X28859Y245820D01*
X28875Y245815D01*
X28973Y245814D01*
X29296Y245549D01*
X29316Y245537D01*
X29420Y245466D01*
X29789Y245269D01*
X29822Y245209D01*
X29869Y245113D01*
X29881Y245101D01*
X29889Y245087D01*
X30006Y244966D01*
X30222Y244789D01*
X30236Y244781D01*
X30248Y244769D01*
X30342Y244720D01*
X30435Y244666D01*
X30451Y244663D01*
X30466Y244655D01*
X30562Y244635D01*
X30827Y244312D01*
X30844Y244296D01*
X30932Y244207D01*
X31256Y243941D01*
X31276Y243876D01*
X31304Y243772D01*
X31313Y243758D01*
X31318Y243742D01*
X31409Y243602D01*
X31586Y243386D01*
X31599Y243375D01*
X31608Y243361D01*
X31691Y243294D01*
X31771Y243224D01*
X31787Y243217D01*
X31800Y243207D01*
X31890Y243168D01*
X32086Y242800D01*
X32101Y242781D01*
X32169Y242676D01*
X32435Y242352D01*
X32442Y242284D01*
X32449Y242178D01*
X32455Y242162D01*
X32457Y242145D01*
X32520Y241990D01*
X32651Y241744D01*
X32661Y241730D01*
X32667Y241714D01*
X32736Y241633D01*
X32801Y241548D01*
X32815Y241539D01*
X32825Y241526D01*
X32906Y241471D01*
X33027Y241071D01*
X33038Y241050D01*
X33084Y240933D01*
X33282Y240564D01*
X33275Y240495D01*
X33261Y240390D01*
X33265Y240374D01*
X33263Y240357D01*
X33294Y240192D01*
X33375Y239925D01*
X33382Y239910D01*
X33385Y239893D01*
X33436Y239800D01*
X33483Y239704D01*
X33495Y239692D01*
X33503Y239677D01*
X33572Y239607D01*
X33612Y239192D01*
X33619Y239169D01*
X33642Y239046D01*
X33763Y238645D01*
X33744Y238579D01*
X33709Y238478D01*
X33709Y238461D01*
X33705Y238445D01*
X33703Y238278D01*
X33718Y238124D01*
X33732Y238071D01*
X33736Y238017D01*
X33763Y237953D01*
X33781Y237886D01*
X33811Y237841D01*
X33832Y237791D01*
X33837Y237785D01*
X33845Y237735D01*
X33865Y237697D01*
X33820Y237235D01*
X33821Y237211D01*
X33820Y237085D01*
X33865Y236629D01*
X33855Y236612D01*
X33844Y236559D01*
X33824Y236509D01*
X33823Y236501D01*
X33793Y236460D01*
X33778Y236409D01*
X33752Y236360D01*
X33730Y236253D01*
X33721Y236225D01*
X33721Y236214D01*
X33718Y236196D01*
X33703Y236042D01*
X33704Y236026D01*
X33700Y236009D01*
X33711Y235903D01*
X33718Y235797D01*
X33725Y235781D01*
X33726Y235765D01*
X33763Y235674D01*
X33642Y235274D01*
X33638Y235251D01*
X33612Y235128D01*
X33571Y234712D01*
X33528Y234658D01*
X33458Y234578D01*
X33452Y234563D01*
X33441Y234549D01*
X33375Y234395D01*
X33294Y234128D01*
X33292Y234111D01*
X33285Y234096D01*
X33275Y233990D01*
X33261Y233884D01*
X33265Y233868D01*
X33263Y233851D01*
X33281Y233755D01*
X33084Y233387D01*
X33077Y233364D01*
X33027Y233249D01*
X32906Y232848D01*
X32853Y232804D01*
X32768Y232740D01*
X32759Y232726D01*
X32746Y232715D01*
X32651Y232577D01*
X32520Y232330D01*
X32514Y232314D01*
X32504Y232301D01*
X32475Y232199D01*
X32440Y232098D01*
X32440Y232081D01*
X32435Y232065D01*
X32434Y231967D01*
X32169Y231644D01*
X32157Y231624D01*
X32155Y231619D01*
X32143Y231607D01*
X32136Y231592D01*
X32086Y231520D01*
X31889Y231151D01*
X31829Y231118D01*
X31733Y231071D01*
X31721Y231059D01*
X31707Y231051D01*
X31586Y230934D01*
X31409Y230718D01*
X31401Y230704D01*
X31389Y230692D01*
X31340Y230598D01*
X31286Y230505D01*
X31283Y230489D01*
X31275Y230474D01*
X31255Y230378D01*
X30932Y230113D01*
X30916Y230095D01*
X30827Y230008D01*
X30561Y229684D01*
X30496Y229664D01*
X30392Y229636D01*
X30378Y229627D01*
X30362Y229622D01*
X30222Y229531D01*
X30006Y229354D01*
X29995Y229341D01*
X29981Y229332D01*
X29914Y229249D01*
X29844Y229169D01*
X29837Y229153D01*
X29827Y229140D01*
X29788Y229050D01*
X29420Y228853D01*
X29401Y228839D01*
X29296Y228771D01*
X28972Y228505D01*
X28904Y228498D01*
X28798Y228491D01*
X28782Y228485D01*
X28766Y228483D01*
X28610Y228420D01*
X28364Y228289D01*
X28350Y228279D01*
X28334Y228273D01*
X28253Y228204D01*
X28168Y228139D01*
X28159Y228126D01*
X28146Y228115D01*
X28088Y228030D01*
X28012Y227993D01*
X27918Y227953D01*
X27898Y227937D01*
X27884Y227930D01*
X27861Y227907D01*
X27787Y227848D01*
X25518Y225579D01*
X20497Y223499D01*
X15063Y223499D01*
X12991Y224357D01*
X12947Y224368D01*
X12905Y224387D01*
X12828Y224396D01*
X12752Y224413D01*
X12706Y224409D01*
X12661Y224414D01*
X12584Y224398D01*
X12507Y224390D01*
X12465Y224372D01*
X12420Y224362D01*
X12353Y224322D01*
X12282Y224290D01*
X12248Y224259D01*
X12209Y224236D01*
X12159Y224177D01*
X12101Y224124D01*
X12079Y224084D01*
X12049Y224049D01*
X12020Y223977D01*
X11983Y223908D01*
X11974Y223863D01*
X11957Y223821D01*
X11942Y223685D01*
X11939Y223666D01*
X11940Y223661D01*
X11939Y223654D01*
X11939Y177666D01*
X11946Y177621D01*
X11944Y177575D01*
X11966Y177500D01*
X11979Y177423D01*
X12000Y177383D01*
X12013Y177339D01*
X12057Y177275D01*
X12094Y177206D01*
X12127Y177174D01*
X12153Y177137D01*
X12215Y177090D01*
X12272Y177037D01*
X12314Y177017D01*
X12350Y176990D01*
X12424Y176966D01*
X12495Y176933D01*
X12541Y176928D01*
X12584Y176914D01*
X12662Y176914D01*
X12739Y176906D01*
X12784Y176916D01*
X12830Y176916D01*
X12962Y176954D01*
X12980Y176958D01*
X12984Y176961D01*
X12991Y176963D01*
X15063Y177821D01*
X20497Y177821D01*
X25518Y175741D01*
X27787Y173472D01*
X27870Y173412D01*
X27950Y173348D01*
X27974Y173338D01*
X27987Y173328D01*
X28018Y173319D01*
X28089Y173288D01*
X28136Y173233D01*
X28200Y173148D01*
X28214Y173139D01*
X28225Y173126D01*
X28364Y173031D01*
X28610Y172900D01*
X28626Y172894D01*
X28639Y172885D01*
X28742Y172855D01*
X28843Y172820D01*
X28859Y172820D01*
X28875Y172815D01*
X28973Y172814D01*
X29296Y172549D01*
X29316Y172537D01*
X29420Y172466D01*
X29786Y172271D01*
X29812Y172227D01*
X29822Y172209D01*
X29869Y172113D01*
X29881Y172101D01*
X29889Y172087D01*
X30006Y171966D01*
X30222Y171789D01*
X30236Y171781D01*
X30248Y171769D01*
X30342Y171720D01*
X30435Y171666D01*
X30451Y171663D01*
X30466Y171655D01*
X30562Y171635D01*
X30827Y171312D01*
X30828Y171311D01*
X30828Y171310D01*
X30845Y171296D01*
X30932Y171207D01*
X31256Y170941D01*
X31276Y170876D01*
X31304Y170772D01*
X31313Y170758D01*
X31318Y170742D01*
X31409Y170602D01*
X31586Y170386D01*
X31599Y170375D01*
X31608Y170361D01*
X31691Y170294D01*
X31771Y170224D01*
X31787Y170217D01*
X31800Y170207D01*
X31890Y170168D01*
X32086Y169800D01*
X32101Y169781D01*
X32169Y169676D01*
X32435Y169352D01*
X32442Y169284D01*
X32449Y169178D01*
X32455Y169162D01*
X32457Y169145D01*
X32520Y168990D01*
X32651Y168744D01*
X32661Y168730D01*
X32667Y168714D01*
X32736Y168633D01*
X32801Y168548D01*
X32815Y168539D01*
X32825Y168526D01*
X32906Y168471D01*
X33027Y168071D01*
X33038Y168050D01*
X33084Y167933D01*
X33282Y167564D01*
X33275Y167496D01*
X33261Y167390D01*
X33265Y167374D01*
X33263Y167357D01*
X33294Y167192D01*
X33375Y166925D01*
X33382Y166910D01*
X33385Y166893D01*
X33436Y166800D01*
X33483Y166704D01*
X33495Y166692D01*
X33503Y166677D01*
X33572Y166607D01*
X33612Y166192D01*
X33619Y166169D01*
X33642Y166046D01*
X33763Y165645D01*
X33744Y165579D01*
X33709Y165478D01*
X33709Y165461D01*
X33705Y165445D01*
X33703Y165278D01*
X33718Y165124D01*
X33732Y165071D01*
X33736Y165017D01*
X33763Y164953D01*
X33781Y164886D01*
X33811Y164841D01*
X33832Y164791D01*
X33837Y164785D01*
X33845Y164735D01*
X33865Y164697D01*
X33820Y164235D01*
X33821Y164211D01*
X33821Y164155D01*
X33820Y164149D01*
X33821Y164147D01*
X33820Y164085D01*
X33865Y163629D01*
X33855Y163612D01*
X33844Y163559D01*
X33824Y163509D01*
X33823Y163501D01*
X33793Y163460D01*
X33778Y163409D01*
X33752Y163360D01*
X33730Y163253D01*
X33721Y163225D01*
X33721Y163214D01*
X33718Y163196D01*
X33703Y163042D01*
X33704Y163026D01*
X33700Y163009D01*
X33711Y162903D01*
X33718Y162797D01*
X33725Y162781D01*
X33726Y162765D01*
X33763Y162674D01*
X33642Y162274D01*
X33638Y162251D01*
X33612Y162128D01*
X33571Y161712D01*
X33529Y161658D01*
X33458Y161578D01*
X33452Y161563D01*
X33441Y161549D01*
X33375Y161395D01*
X33294Y161128D01*
X33292Y161111D01*
X33285Y161096D01*
X33275Y160990D01*
X33261Y160884D01*
X33265Y160868D01*
X33263Y160851D01*
X33281Y160755D01*
X33084Y160387D01*
X33076Y160364D01*
X33027Y160249D01*
X32906Y159848D01*
X32853Y159804D01*
X32768Y159740D01*
X32759Y159726D01*
X32746Y159715D01*
X32651Y159576D01*
X32520Y159330D01*
X32514Y159314D01*
X32505Y159301D01*
X32475Y159198D01*
X32440Y159097D01*
X32440Y159081D01*
X32435Y159065D01*
X32434Y158967D01*
X32169Y158644D01*
X32157Y158624D01*
X32086Y158520D01*
X31889Y158151D01*
X31829Y158118D01*
X31733Y158071D01*
X31721Y158059D01*
X31707Y158051D01*
X31586Y157934D01*
X31409Y157718D01*
X31401Y157704D01*
X31389Y157692D01*
X31340Y157598D01*
X31286Y157505D01*
X31283Y157489D01*
X31275Y157474D01*
X31255Y157378D01*
X30932Y157113D01*
X30916Y157096D01*
X30827Y157008D01*
X30561Y156684D01*
X30496Y156664D01*
X30392Y156636D01*
X30378Y156627D01*
X30362Y156622D01*
X30222Y156531D01*
X30006Y156354D01*
X29995Y156341D01*
X29981Y156332D01*
X29914Y156249D01*
X29844Y156169D01*
X29837Y156153D01*
X29827Y156140D01*
X29788Y156050D01*
X29420Y155854D01*
X29401Y155839D01*
X29296Y155771D01*
X28972Y155505D01*
X28904Y155498D01*
X28798Y155491D01*
X28782Y155485D01*
X28765Y155483D01*
X28610Y155420D01*
X28364Y155289D01*
X28350Y155279D01*
X28334Y155273D01*
X28253Y155204D01*
X28168Y155139D01*
X28159Y155125D01*
X28146Y155115D01*
X28088Y155030D01*
X28012Y154993D01*
X27918Y154953D01*
X27898Y154937D01*
X27884Y154930D01*
X27861Y154907D01*
X27856Y154903D01*
X27848Y154899D01*
X27840Y154890D01*
X27787Y154848D01*
X25518Y152579D01*
X20497Y150499D01*
X15063Y150499D01*
X12991Y151357D01*
X12947Y151368D01*
X12905Y151387D01*
X12828Y151396D01*
X12752Y151413D01*
X12706Y151409D01*
X12661Y151414D01*
X12584Y151398D01*
X12507Y151390D01*
X12465Y151372D01*
X12420Y151362D01*
X12353Y151322D01*
X12282Y151290D01*
X12248Y151259D01*
X12209Y151236D01*
X12159Y151177D01*
X12101Y151124D01*
X12079Y151084D01*
X12049Y151049D01*
X12020Y150977D01*
X11983Y150908D01*
X11974Y150863D01*
X11957Y150821D01*
X11942Y150685D01*
X11939Y150666D01*
X11940Y150661D01*
X11939Y150654D01*
X11939Y12700D01*
X11942Y12680D01*
X11940Y12661D01*
X11962Y12559D01*
X11979Y12457D01*
X11988Y12440D01*
X11992Y12420D01*
X12045Y12331D01*
X12094Y12240D01*
X12108Y12226D01*
X12118Y12209D01*
X12197Y12142D01*
X12272Y12071D01*
X12290Y12062D01*
X12305Y12049D01*
X12401Y12010D01*
X12495Y11967D01*
X12515Y11965D01*
X12533Y11957D01*
X12700Y11939D01*
X850900Y11939D01*
X850920Y11942D01*
G37*
%LPC*%
G36*
X808954Y300989D02*
X808954Y300989D01*
X801525Y302980D01*
X794864Y306826D01*
X789426Y312264D01*
X785580Y318925D01*
X783589Y326354D01*
X783589Y334046D01*
X785580Y341475D01*
X789426Y348136D01*
X794864Y353574D01*
X801525Y357420D01*
X808954Y359411D01*
X816646Y359411D01*
X824075Y357420D01*
X830736Y353574D01*
X836174Y348136D01*
X840020Y341475D01*
X842011Y334046D01*
X842011Y326354D01*
X840020Y318925D01*
X836174Y312264D01*
X830736Y306826D01*
X824075Y302980D01*
X816646Y300989D01*
X808954Y300989D01*
G37*
%LPD*%
%LPC*%
G36*
X808954Y21589D02*
X808954Y21589D01*
X801525Y23580D01*
X794864Y27426D01*
X789426Y32864D01*
X785580Y39525D01*
X783589Y46954D01*
X783589Y54646D01*
X785580Y62075D01*
X789426Y68736D01*
X794864Y74174D01*
X801525Y78020D01*
X808954Y80011D01*
X816646Y80011D01*
X824075Y78020D01*
X830736Y74174D01*
X836174Y68736D01*
X840020Y62075D01*
X842011Y54646D01*
X842011Y46954D01*
X840020Y39525D01*
X836174Y32864D01*
X830736Y27426D01*
X824075Y23580D01*
X816646Y21589D01*
X808954Y21589D01*
G37*
%LPD*%
%LPC*%
G36*
X46954Y21589D02*
X46954Y21589D01*
X39525Y23580D01*
X32864Y27426D01*
X27426Y32864D01*
X23580Y39525D01*
X21589Y46954D01*
X21589Y54646D01*
X23580Y62075D01*
X27426Y68736D01*
X32864Y74174D01*
X39525Y78020D01*
X46954Y80011D01*
X54646Y80011D01*
X62075Y78020D01*
X68736Y74174D01*
X74174Y68736D01*
X78020Y62075D01*
X80011Y54646D01*
X80011Y46954D01*
X78020Y39525D01*
X74174Y32864D01*
X68736Y27426D01*
X62075Y23580D01*
X54646Y21589D01*
X46954Y21589D01*
G37*
%LPD*%
%LPC*%
G36*
X46954Y300989D02*
X46954Y300989D01*
X39525Y302980D01*
X32864Y306826D01*
X27426Y312264D01*
X23580Y318925D01*
X21589Y326354D01*
X21589Y334046D01*
X23580Y341475D01*
X27426Y348136D01*
X32864Y353574D01*
X39525Y357420D01*
X46954Y359411D01*
X54646Y359411D01*
X62075Y357420D01*
X68736Y353574D01*
X74174Y348136D01*
X78020Y341475D01*
X80011Y334046D01*
X80011Y326354D01*
X78020Y318925D01*
X74174Y312264D01*
X68736Y306826D01*
X62075Y302980D01*
X54646Y300989D01*
X46954Y300989D01*
G37*
%LPD*%
%LPC*%
G36*
X744941Y237235D02*
X744941Y237235D01*
X741580Y238627D01*
X739007Y241200D01*
X737615Y244561D01*
X737615Y248199D01*
X737875Y248826D01*
X737902Y248940D01*
X737930Y249053D01*
X737930Y249060D01*
X737931Y249066D01*
X737920Y249182D01*
X737911Y249299D01*
X737909Y249304D01*
X737908Y249311D01*
X737860Y249418D01*
X737815Y249525D01*
X737810Y249531D01*
X737808Y249535D01*
X737796Y249549D01*
X737710Y249656D01*
X732281Y255085D01*
X732281Y276105D01*
X732279Y276120D01*
X732280Y276132D01*
X732267Y276194D01*
X732267Y276196D01*
X732259Y276286D01*
X732247Y276316D01*
X732242Y276348D01*
X732199Y276429D01*
X732163Y276513D01*
X732137Y276545D01*
X732126Y276566D01*
X732103Y276588D01*
X732058Y276644D01*
X726224Y282478D01*
X726150Y282531D01*
X726080Y282591D01*
X726050Y282603D01*
X726024Y282622D01*
X725937Y282649D01*
X725852Y282683D01*
X725811Y282687D01*
X725789Y282694D01*
X725757Y282693D01*
X725685Y282701D01*
X580081Y282701D01*
X579991Y282687D01*
X579900Y282679D01*
X579871Y282667D01*
X579839Y282662D01*
X579758Y282619D01*
X579674Y282583D01*
X579642Y282557D01*
X579621Y282546D01*
X579599Y282523D01*
X579543Y282478D01*
X576746Y279681D01*
X575829Y279681D01*
X575758Y279670D01*
X575687Y279668D01*
X575638Y279650D01*
X575586Y279642D01*
X575523Y279608D01*
X575456Y279583D01*
X575415Y279551D01*
X575369Y279526D01*
X575320Y279474D01*
X575264Y279430D01*
X575235Y279386D01*
X575200Y279348D01*
X575169Y279283D01*
X575131Y279223D01*
X575118Y279172D01*
X575096Y279125D01*
X575088Y279054D01*
X575071Y278984D01*
X575075Y278932D01*
X575069Y278881D01*
X575084Y278810D01*
X575090Y278739D01*
X575110Y278691D01*
X575121Y278640D01*
X575158Y278579D01*
X575186Y278513D01*
X575231Y278457D01*
X575247Y278429D01*
X575265Y278414D01*
X575291Y278382D01*
X576713Y276960D01*
X578105Y273599D01*
X578105Y269961D01*
X576713Y266600D01*
X574140Y264027D01*
X570779Y262635D01*
X567141Y262635D01*
X563780Y264027D01*
X561207Y266600D01*
X559815Y269961D01*
X559815Y273599D01*
X561207Y276960D01*
X563780Y279533D01*
X567141Y280925D01*
X569269Y280925D01*
X569339Y280936D01*
X569411Y280938D01*
X569460Y280956D01*
X569511Y280964D01*
X569575Y280998D01*
X569642Y281023D01*
X569683Y281055D01*
X569729Y281080D01*
X569778Y281132D01*
X569834Y281176D01*
X569862Y281220D01*
X569898Y281258D01*
X569928Y281323D01*
X569967Y281383D01*
X569980Y281434D01*
X570002Y281481D01*
X570010Y281552D01*
X570027Y281622D01*
X570023Y281674D01*
X570029Y281725D01*
X570014Y281796D01*
X570008Y281867D01*
X569988Y281915D01*
X569977Y281966D01*
X569940Y282027D01*
X569912Y282093D01*
X569867Y282149D01*
X569850Y282177D01*
X569833Y282192D01*
X569807Y282224D01*
X569241Y282790D01*
X569241Y287186D01*
X572350Y290295D01*
X576746Y290295D01*
X579543Y287498D01*
X579617Y287445D01*
X579687Y287385D01*
X579717Y287373D01*
X579743Y287354D01*
X579830Y287327D01*
X579915Y287293D01*
X579956Y287289D01*
X579978Y287282D01*
X580010Y287283D01*
X580081Y287275D01*
X727895Y287275D01*
X736855Y278315D01*
X736855Y275590D01*
X736870Y275494D01*
X736880Y275397D01*
X736890Y275373D01*
X736894Y275347D01*
X736940Y275261D01*
X736980Y275172D01*
X736997Y275153D01*
X737010Y275130D01*
X737080Y275063D01*
X737146Y274991D01*
X737169Y274978D01*
X737188Y274960D01*
X737276Y274919D01*
X737362Y274872D01*
X737387Y274868D01*
X737411Y274857D01*
X737508Y274846D01*
X737604Y274829D01*
X737630Y274833D01*
X737655Y274830D01*
X737751Y274850D01*
X737847Y274865D01*
X737870Y274876D01*
X737896Y274882D01*
X737979Y274932D01*
X738066Y274976D01*
X738085Y274995D01*
X738107Y275008D01*
X738170Y275082D01*
X738238Y275152D01*
X738254Y275180D01*
X738267Y275195D01*
X738279Y275226D01*
X738319Y275299D01*
X739007Y276960D01*
X741580Y279533D01*
X744941Y280925D01*
X748579Y280925D01*
X751940Y279533D01*
X754513Y276960D01*
X755905Y273599D01*
X755905Y269961D01*
X754513Y266600D01*
X751940Y264027D01*
X748579Y262635D01*
X744941Y262635D01*
X741580Y264027D01*
X739007Y266600D01*
X738319Y268261D01*
X738268Y268344D01*
X738222Y268430D01*
X738204Y268448D01*
X738190Y268470D01*
X738114Y268533D01*
X738044Y268600D01*
X738020Y268611D01*
X738000Y268627D01*
X737909Y268662D01*
X737821Y268703D01*
X737795Y268706D01*
X737771Y268715D01*
X737673Y268720D01*
X737577Y268730D01*
X737551Y268725D01*
X737525Y268726D01*
X737431Y268699D01*
X737336Y268678D01*
X737314Y268665D01*
X737289Y268657D01*
X737209Y268602D01*
X737125Y268552D01*
X737108Y268532D01*
X737087Y268517D01*
X737028Y268439D01*
X736965Y268365D01*
X736955Y268341D01*
X736940Y268320D01*
X736910Y268227D01*
X736873Y268137D01*
X736870Y268104D01*
X736864Y268086D01*
X736864Y268053D01*
X736855Y267970D01*
X736855Y257295D01*
X736869Y257204D01*
X736877Y257114D01*
X736889Y257084D01*
X736894Y257052D01*
X736937Y256971D01*
X736973Y256887D01*
X736999Y256855D01*
X737010Y256834D01*
X737033Y256812D01*
X737078Y256756D01*
X740102Y253732D01*
X740119Y253720D01*
X740131Y253704D01*
X740218Y253648D01*
X740302Y253588D01*
X740321Y253582D01*
X740338Y253571D01*
X740438Y253546D01*
X740537Y253516D01*
X740557Y253516D01*
X740576Y253511D01*
X740679Y253519D01*
X740783Y253522D01*
X740802Y253529D01*
X740822Y253530D01*
X740917Y253571D01*
X741014Y253606D01*
X741030Y253619D01*
X741048Y253627D01*
X741179Y253732D01*
X741580Y254133D01*
X744941Y255525D01*
X748579Y255525D01*
X751940Y254133D01*
X754513Y251560D01*
X755905Y248199D01*
X755905Y244561D01*
X754513Y241200D01*
X751940Y238627D01*
X748579Y237235D01*
X744941Y237235D01*
G37*
%LPD*%
%LPC*%
G36*
X389596Y218693D02*
X389596Y218693D01*
X383793Y224496D01*
X383793Y232704D01*
X389596Y238507D01*
X397804Y238507D01*
X398296Y238014D01*
X398312Y238003D01*
X398325Y237987D01*
X398412Y237931D01*
X398496Y237871D01*
X398515Y237865D01*
X398531Y237854D01*
X398632Y237829D01*
X398731Y237798D01*
X398751Y237799D01*
X398770Y237794D01*
X398873Y237802D01*
X398977Y237805D01*
X398995Y237812D01*
X399015Y237813D01*
X399110Y237854D01*
X399208Y237889D01*
X399223Y237902D01*
X399242Y237910D01*
X399372Y238014D01*
X401350Y239992D01*
X401403Y240066D01*
X401463Y240136D01*
X401475Y240166D01*
X401494Y240192D01*
X401521Y240279D01*
X401555Y240364D01*
X401559Y240405D01*
X401566Y240427D01*
X401565Y240459D01*
X401573Y240531D01*
X401573Y305747D01*
X403136Y307310D01*
X424448Y328622D01*
X424460Y328639D01*
X424476Y328651D01*
X424532Y328738D01*
X424592Y328822D01*
X424598Y328841D01*
X424609Y328858D01*
X424634Y328958D01*
X424664Y329057D01*
X424664Y329077D01*
X424669Y329096D01*
X424661Y329199D01*
X424658Y329303D01*
X424651Y329322D01*
X424650Y329342D01*
X424609Y329436D01*
X424574Y329534D01*
X424561Y329550D01*
X424553Y329568D01*
X424448Y329699D01*
X424047Y330100D01*
X422655Y333461D01*
X422655Y352339D01*
X424047Y355700D01*
X426620Y358273D01*
X429981Y359665D01*
X433619Y359665D01*
X436980Y358273D01*
X439553Y355700D01*
X440945Y352339D01*
X440945Y333461D01*
X439553Y330100D01*
X436980Y327527D01*
X433619Y326135D01*
X429981Y326135D01*
X429354Y326395D01*
X429240Y326422D01*
X429127Y326450D01*
X429120Y326450D01*
X429114Y326451D01*
X428998Y326440D01*
X428881Y326431D01*
X428876Y326429D01*
X428869Y326428D01*
X428762Y326380D01*
X428655Y326335D01*
X428649Y326330D01*
X428645Y326328D01*
X428631Y326316D01*
X428524Y326230D01*
X406370Y304076D01*
X406317Y304002D01*
X406257Y303932D01*
X406245Y303902D01*
X406226Y303876D01*
X406199Y303789D01*
X406165Y303704D01*
X406161Y303663D01*
X406154Y303641D01*
X406155Y303609D01*
X406147Y303537D01*
X406147Y238321D01*
X402606Y234780D01*
X402595Y234764D01*
X402579Y234752D01*
X402523Y234665D01*
X402463Y234581D01*
X402457Y234562D01*
X402446Y234545D01*
X402421Y234444D01*
X402390Y234346D01*
X402391Y234326D01*
X402386Y234306D01*
X402394Y234203D01*
X402397Y234100D01*
X402404Y234081D01*
X402405Y234061D01*
X402446Y233966D01*
X402481Y233869D01*
X402494Y233853D01*
X402502Y233835D01*
X402576Y233742D01*
X402581Y233733D01*
X402587Y233728D01*
X402606Y233704D01*
X403607Y232704D01*
X403607Y224496D01*
X397804Y218693D01*
X389596Y218693D01*
G37*
%LPD*%
%LPC*%
G36*
X68279Y184659D02*
X68279Y184659D01*
X68279Y185422D01*
X68276Y185442D01*
X68278Y185461D01*
X68256Y185563D01*
X68239Y185665D01*
X68230Y185682D01*
X68226Y185702D01*
X68173Y185791D01*
X68124Y185882D01*
X68110Y185896D01*
X68100Y185913D01*
X68021Y185980D01*
X67946Y186051D01*
X67928Y186060D01*
X67913Y186073D01*
X67817Y186112D01*
X67723Y186155D01*
X67703Y186157D01*
X67685Y186165D01*
X67518Y186183D01*
X60563Y186183D01*
X60498Y186173D01*
X60432Y186172D01*
X60352Y186149D01*
X60320Y186143D01*
X60303Y186134D01*
X60271Y186125D01*
X57785Y185095D01*
X54775Y185095D01*
X51995Y186247D01*
X49867Y188375D01*
X48715Y191155D01*
X48715Y194165D01*
X49867Y196945D01*
X51995Y199073D01*
X54128Y199957D01*
X54189Y199995D01*
X54255Y200024D01*
X54293Y200059D01*
X54337Y200086D01*
X54383Y200142D01*
X54436Y200190D01*
X54461Y200236D01*
X54494Y200276D01*
X54520Y200343D01*
X54554Y200406D01*
X54564Y200457D01*
X54582Y200505D01*
X54585Y200577D01*
X54598Y200648D01*
X54590Y200699D01*
X54593Y200751D01*
X54573Y200820D01*
X54562Y200891D01*
X54539Y200937D01*
X54524Y200987D01*
X54483Y201046D01*
X54451Y201110D01*
X54414Y201147D01*
X54384Y201189D01*
X54326Y201232D01*
X54275Y201282D01*
X54212Y201317D01*
X54187Y201336D01*
X54164Y201343D01*
X54128Y201363D01*
X51995Y202247D01*
X49867Y204375D01*
X48715Y207155D01*
X48715Y210165D01*
X49867Y212945D01*
X51995Y215073D01*
X54775Y216225D01*
X57785Y216225D01*
X59663Y215447D01*
X59707Y215436D01*
X59749Y215417D01*
X59826Y215408D01*
X59902Y215391D01*
X59948Y215395D01*
X59993Y215390D01*
X60070Y215406D01*
X60147Y215414D01*
X60189Y215432D01*
X60234Y215442D01*
X60301Y215482D01*
X60372Y215514D01*
X60406Y215545D01*
X60445Y215568D01*
X60496Y215627D01*
X60553Y215680D01*
X60575Y215720D01*
X60605Y215755D01*
X60634Y215827D01*
X60671Y215896D01*
X60680Y215941D01*
X60697Y215983D01*
X60712Y216119D01*
X60715Y216138D01*
X60714Y216143D01*
X60715Y216150D01*
X60715Y218165D01*
X61867Y220945D01*
X63995Y223073D01*
X66775Y224225D01*
X69785Y224225D01*
X72565Y223073D01*
X74693Y220945D01*
X75845Y218165D01*
X75845Y215155D01*
X74693Y212375D01*
X72565Y210247D01*
X70432Y209363D01*
X70371Y209325D01*
X70305Y209296D01*
X70267Y209261D01*
X70223Y209234D01*
X70177Y209178D01*
X70124Y209130D01*
X70099Y209084D01*
X70066Y209044D01*
X70040Y208977D01*
X70006Y208914D01*
X69996Y208863D01*
X69978Y208815D01*
X69975Y208743D01*
X69962Y208672D01*
X69970Y208621D01*
X69967Y208569D01*
X69987Y208500D01*
X69998Y208429D01*
X70021Y208383D01*
X70036Y208333D01*
X70077Y208274D01*
X70109Y208210D01*
X70146Y208173D01*
X70176Y208131D01*
X70234Y208088D01*
X70285Y208038D01*
X70348Y208003D01*
X70373Y207984D01*
X70396Y207977D01*
X70432Y207957D01*
X72565Y207073D01*
X74693Y204945D01*
X75845Y202165D01*
X75845Y199155D01*
X74693Y196375D01*
X72565Y194247D01*
X71759Y193913D01*
X71698Y193875D01*
X71633Y193846D01*
X71594Y193811D01*
X71550Y193784D01*
X71504Y193728D01*
X71452Y193680D01*
X71427Y193634D01*
X71393Y193594D01*
X71368Y193527D01*
X71333Y193464D01*
X71324Y193413D01*
X71305Y193364D01*
X71302Y193293D01*
X71289Y193222D01*
X71297Y193171D01*
X71295Y193119D01*
X71315Y193050D01*
X71325Y192979D01*
X71349Y192932D01*
X71363Y192882D01*
X71404Y192824D01*
X71437Y192760D01*
X71474Y192723D01*
X71504Y192680D01*
X71561Y192638D01*
X71612Y192587D01*
X71675Y192553D01*
X71701Y192534D01*
X71723Y192526D01*
X71759Y192507D01*
X72345Y192264D01*
X73750Y191325D01*
X74945Y190130D01*
X75884Y188725D01*
X76531Y187163D01*
X76726Y186183D01*
X69042Y186183D01*
X69022Y186180D01*
X69003Y186182D01*
X68901Y186160D01*
X68799Y186143D01*
X68782Y186134D01*
X68762Y186130D01*
X68673Y186077D01*
X68582Y186028D01*
X68568Y186014D01*
X68551Y186004D01*
X68484Y185925D01*
X68413Y185850D01*
X68404Y185832D01*
X68391Y185817D01*
X68353Y185721D01*
X68309Y185627D01*
X68307Y185607D01*
X68299Y185589D01*
X68281Y185422D01*
X68281Y184659D01*
X68279Y184659D01*
G37*
%LPD*%
%LPC*%
G36*
X465670Y133377D02*
X465670Y133377D01*
X462561Y136486D01*
X462561Y140882D01*
X465358Y143679D01*
X465411Y143753D01*
X465471Y143823D01*
X465483Y143853D01*
X465502Y143879D01*
X465529Y143966D01*
X465563Y144051D01*
X465567Y144092D01*
X465574Y144114D01*
X465573Y144146D01*
X465581Y144217D01*
X465581Y161805D01*
X465567Y161896D01*
X465559Y161986D01*
X465547Y162016D01*
X465542Y162048D01*
X465499Y162129D01*
X465463Y162213D01*
X465437Y162245D01*
X465426Y162266D01*
X465403Y162288D01*
X465358Y162344D01*
X453428Y174274D01*
X453354Y174327D01*
X453284Y174387D01*
X453254Y174399D01*
X453228Y174418D01*
X453141Y174445D01*
X453056Y174479D01*
X453015Y174483D01*
X452993Y174490D01*
X452961Y174489D01*
X452890Y174497D01*
X451681Y174497D01*
X445046Y181132D01*
X444972Y181185D01*
X444902Y181245D01*
X444872Y181257D01*
X444846Y181276D01*
X444759Y181303D01*
X444674Y181337D01*
X444633Y181341D01*
X444611Y181348D01*
X444579Y181347D01*
X444508Y181355D01*
X436248Y181355D01*
X435355Y182248D01*
X435355Y198752D01*
X436248Y199645D01*
X452752Y199645D01*
X453645Y198752D01*
X453645Y182248D01*
X452559Y181163D01*
X452548Y181147D01*
X452532Y181134D01*
X452476Y181047D01*
X452416Y180963D01*
X452410Y180944D01*
X452399Y180928D01*
X452374Y180827D01*
X452343Y180728D01*
X452344Y180708D01*
X452339Y180689D01*
X452347Y180586D01*
X452350Y180482D01*
X452357Y180464D01*
X452358Y180444D01*
X452399Y180349D01*
X452434Y180251D01*
X452447Y180236D01*
X452455Y180217D01*
X452559Y180087D01*
X453352Y179294D01*
X453426Y179241D01*
X453496Y179181D01*
X453526Y179169D01*
X453552Y179150D01*
X453639Y179123D01*
X453724Y179089D01*
X453765Y179085D01*
X453787Y179078D01*
X453819Y179079D01*
X453891Y179071D01*
X455099Y179071D01*
X456662Y177508D01*
X470155Y164015D01*
X470155Y144217D01*
X470169Y144127D01*
X470177Y144036D01*
X470189Y144007D01*
X470194Y143975D01*
X470237Y143894D01*
X470273Y143810D01*
X470299Y143778D01*
X470310Y143757D01*
X470333Y143735D01*
X470378Y143679D01*
X473175Y140882D01*
X473175Y136486D01*
X470066Y133377D01*
X465670Y133377D01*
G37*
%LPD*%
%LPC*%
G36*
X479910Y88075D02*
X479910Y88075D01*
X474939Y90134D01*
X471134Y93939D01*
X469075Y98910D01*
X469075Y104290D01*
X471134Y109261D01*
X474939Y113066D01*
X479910Y115125D01*
X485290Y115125D01*
X490261Y113066D01*
X494066Y109261D01*
X496125Y104290D01*
X496125Y98910D01*
X494066Y93939D01*
X490261Y90134D01*
X485290Y88075D01*
X479910Y88075D01*
G37*
%LPD*%
%LPC*%
G36*
X137881Y326135D02*
X137881Y326135D01*
X134520Y327527D01*
X131947Y330100D01*
X130555Y333461D01*
X130555Y352339D01*
X131947Y355700D01*
X134520Y358273D01*
X137881Y359665D01*
X141519Y359665D01*
X144880Y358273D01*
X147453Y355700D01*
X148845Y352339D01*
X148845Y333461D01*
X147453Y330100D01*
X144880Y327527D01*
X141519Y326135D01*
X137881Y326135D01*
G37*
%LPD*%
%LPC*%
G36*
X188681Y326135D02*
X188681Y326135D01*
X185320Y327527D01*
X182747Y330100D01*
X181355Y333461D01*
X181355Y352339D01*
X182747Y355700D01*
X185320Y358273D01*
X188681Y359665D01*
X192319Y359665D01*
X195680Y358273D01*
X198253Y355700D01*
X199645Y352339D01*
X199645Y333461D01*
X198253Y330100D01*
X195680Y327527D01*
X192319Y326135D01*
X188681Y326135D01*
G37*
%LPD*%
%LPC*%
G36*
X239481Y326135D02*
X239481Y326135D01*
X236120Y327527D01*
X233547Y330100D01*
X232155Y333461D01*
X232155Y352339D01*
X233547Y355700D01*
X236120Y358273D01*
X239481Y359665D01*
X243119Y359665D01*
X246480Y358273D01*
X249053Y355700D01*
X250445Y352339D01*
X250445Y333461D01*
X249053Y330100D01*
X246480Y327527D01*
X243119Y326135D01*
X239481Y326135D01*
G37*
%LPD*%
%LPC*%
G36*
X404581Y326135D02*
X404581Y326135D01*
X401220Y327527D01*
X398647Y330100D01*
X397255Y333461D01*
X397255Y352339D01*
X398647Y355700D01*
X401220Y358273D01*
X404581Y359665D01*
X408219Y359665D01*
X411580Y358273D01*
X414153Y355700D01*
X415545Y352339D01*
X415545Y333461D01*
X414153Y330100D01*
X411580Y327527D01*
X408219Y326135D01*
X404581Y326135D01*
G37*
%LPD*%
%LPC*%
G36*
X214081Y326135D02*
X214081Y326135D01*
X210720Y327527D01*
X208147Y330100D01*
X206755Y333461D01*
X206755Y352339D01*
X208147Y355700D01*
X210720Y358273D01*
X214081Y359665D01*
X217719Y359665D01*
X221080Y358273D01*
X223653Y355700D01*
X225045Y352339D01*
X225045Y333461D01*
X223653Y330100D01*
X221080Y327527D01*
X217719Y326135D01*
X214081Y326135D01*
G37*
%LPD*%
G36*
X23780Y155655D02*
X23780Y155655D01*
X25439Y155819D01*
X25440Y155819D01*
X27034Y156303D01*
X27035Y156303D01*
X28505Y157088D01*
X28505Y157089D01*
X29793Y158146D01*
X29794Y158147D01*
X30851Y159435D01*
X30852Y159435D01*
X31637Y160905D01*
X31637Y160906D01*
X31638Y160906D01*
X32121Y162500D01*
X32121Y162501D01*
X32285Y164160D01*
X32284Y164160D01*
X32285Y164160D01*
X32121Y165819D01*
X32121Y165820D01*
X31638Y167414D01*
X31637Y167415D01*
X30852Y168885D01*
X30851Y168885D01*
X29794Y170173D01*
X29793Y170174D01*
X28505Y171231D01*
X28505Y171232D01*
X27035Y172017D01*
X27034Y172017D01*
X27034Y172018D01*
X25440Y172501D01*
X25439Y172501D01*
X23780Y172665D01*
X11780Y172665D01*
X10121Y172501D01*
X10120Y172501D01*
X8526Y172018D01*
X8525Y172017D01*
X7055Y171232D01*
X7055Y171231D01*
X5767Y170174D01*
X5767Y170173D01*
X5766Y170173D01*
X4709Y168885D01*
X4708Y168885D01*
X3923Y167415D01*
X3923Y167414D01*
X3439Y165820D01*
X3439Y165819D01*
X3275Y164160D01*
X3276Y164160D01*
X3275Y164160D01*
X3439Y162501D01*
X3439Y162500D01*
X3923Y160906D01*
X3923Y160905D01*
X4708Y159435D01*
X4709Y159435D01*
X5766Y158147D01*
X5767Y158147D01*
X5767Y158146D01*
X7055Y157089D01*
X7055Y157088D01*
X8525Y156303D01*
X8526Y156303D01*
X10120Y155819D01*
X10121Y155819D01*
X11780Y155655D01*
X23780Y155655D01*
X23780Y155655D01*
G37*
G36*
X23780Y228655D02*
X23780Y228655D01*
X25439Y228819D01*
X25440Y228819D01*
X27034Y229303D01*
X27035Y229303D01*
X28505Y230088D01*
X28505Y230089D01*
X29793Y231146D01*
X29794Y231147D01*
X30851Y232435D01*
X30852Y232435D01*
X31637Y233905D01*
X31637Y233906D01*
X31638Y233906D01*
X32121Y235500D01*
X32121Y235501D01*
X32285Y237160D01*
X32284Y237160D01*
X32285Y237160D01*
X32121Y238819D01*
X32121Y238820D01*
X31638Y240414D01*
X31637Y240415D01*
X30852Y241885D01*
X30851Y241885D01*
X29794Y243173D01*
X29793Y243174D01*
X28505Y244231D01*
X28505Y244232D01*
X27035Y245017D01*
X27034Y245017D01*
X27034Y245018D01*
X25440Y245501D01*
X25439Y245501D01*
X23780Y245665D01*
X11780Y245665D01*
X10121Y245501D01*
X10120Y245501D01*
X8526Y245018D01*
X8525Y245017D01*
X7055Y244232D01*
X7055Y244231D01*
X5767Y243174D01*
X5767Y243173D01*
X5766Y243173D01*
X4709Y241885D01*
X4708Y241885D01*
X3923Y240415D01*
X3923Y240414D01*
X3439Y238820D01*
X3439Y238819D01*
X3275Y237160D01*
X3276Y237160D01*
X3275Y237160D01*
X3439Y235501D01*
X3439Y235500D01*
X3923Y233906D01*
X3923Y233905D01*
X4708Y232435D01*
X4709Y232435D01*
X5766Y231147D01*
X5767Y231147D01*
X5767Y231146D01*
X7055Y230089D01*
X7055Y230088D01*
X8525Y229303D01*
X8526Y229303D01*
X10120Y228819D01*
X10121Y228819D01*
X11780Y228655D01*
X23780Y228655D01*
X23780Y228655D01*
G37*
%LPC*%
G36*
X544483Y328167D02*
X544483Y328167D01*
X541495Y329405D01*
X539209Y331691D01*
X537971Y334679D01*
X537971Y351121D01*
X539209Y354109D01*
X541495Y356395D01*
X544483Y357633D01*
X547717Y357633D01*
X550705Y356395D01*
X552991Y354109D01*
X554229Y351121D01*
X554229Y334679D01*
X552991Y331691D01*
X550705Y329405D01*
X547717Y328167D01*
X544483Y328167D01*
G37*
%LPD*%
%LPC*%
G36*
X569883Y328167D02*
X569883Y328167D01*
X566895Y329405D01*
X564609Y331691D01*
X563371Y334679D01*
X563371Y351121D01*
X564609Y354109D01*
X566895Y356395D01*
X569883Y357633D01*
X573117Y357633D01*
X576105Y356395D01*
X578391Y354109D01*
X579629Y351121D01*
X579629Y334679D01*
X578391Y331691D01*
X576105Y329405D01*
X573117Y328167D01*
X569883Y328167D01*
G37*
%LPD*%
%LPC*%
G36*
X595283Y328167D02*
X595283Y328167D01*
X592295Y329405D01*
X590009Y331691D01*
X588771Y334679D01*
X588771Y351121D01*
X590009Y354109D01*
X592295Y356395D01*
X595283Y357633D01*
X598517Y357633D01*
X601505Y356395D01*
X603791Y354109D01*
X605029Y351121D01*
X605029Y334679D01*
X603791Y331691D01*
X601505Y329405D01*
X598517Y328167D01*
X595283Y328167D01*
G37*
%LPD*%
%LPC*%
G36*
X773083Y137667D02*
X773083Y137667D01*
X770095Y138905D01*
X767809Y141191D01*
X766571Y144179D01*
X766571Y160621D01*
X767809Y163609D01*
X770095Y165895D01*
X773083Y167133D01*
X776317Y167133D01*
X779305Y165895D01*
X781591Y163609D01*
X782829Y160621D01*
X782829Y144179D01*
X781591Y141191D01*
X779305Y138905D01*
X776317Y137667D01*
X773083Y137667D01*
G37*
%LPD*%
%LPC*%
G36*
X738508Y49275D02*
X738508Y49275D01*
X737615Y50168D01*
X737615Y66672D01*
X738508Y67565D01*
X755012Y67565D01*
X755905Y66672D01*
X755905Y50168D01*
X755012Y49275D01*
X738508Y49275D01*
G37*
%LPD*%
%LPC*%
G36*
X509908Y237235D02*
X509908Y237235D01*
X509015Y238128D01*
X509015Y254632D01*
X509908Y255525D01*
X526412Y255525D01*
X527305Y254632D01*
X527305Y238128D01*
X526412Y237235D01*
X509908Y237235D01*
G37*
%LPD*%
%LPC*%
G36*
X130728Y40935D02*
X130728Y40935D01*
X129835Y41828D01*
X129835Y58172D01*
X130728Y59065D01*
X147072Y59065D01*
X147965Y58172D01*
X147965Y41828D01*
X147072Y40935D01*
X130728Y40935D01*
G37*
%LPD*%
%LPC*%
G36*
X308528Y40935D02*
X308528Y40935D01*
X307635Y41828D01*
X307635Y58172D01*
X308528Y59065D01*
X324872Y59065D01*
X325765Y58172D01*
X325765Y41828D01*
X324872Y40935D01*
X308528Y40935D01*
G37*
%LPD*%
%LPC*%
G36*
X770596Y20573D02*
X770596Y20573D01*
X764793Y26376D01*
X764793Y34584D01*
X770596Y40387D01*
X778804Y40387D01*
X784607Y34584D01*
X784607Y26376D01*
X778804Y20573D01*
X770596Y20573D01*
G37*
%LPD*%
%LPC*%
G36*
X770596Y112013D02*
X770596Y112013D01*
X764793Y117816D01*
X764793Y126024D01*
X770596Y131827D01*
X778804Y131827D01*
X784607Y126024D01*
X784607Y117816D01*
X778804Y112013D01*
X770596Y112013D01*
G37*
%LPD*%
%LPC*%
G36*
X808696Y142493D02*
X808696Y142493D01*
X802893Y148296D01*
X802893Y156504D01*
X808696Y162307D01*
X816904Y162307D01*
X822707Y156504D01*
X822707Y148296D01*
X816904Y142493D01*
X808696Y142493D01*
G37*
%LPD*%
%LPC*%
G36*
X648676Y320293D02*
X648676Y320293D01*
X642873Y326096D01*
X642873Y334304D01*
X648676Y340107D01*
X656884Y340107D01*
X662687Y334304D01*
X662687Y326096D01*
X656884Y320293D01*
X648676Y320293D01*
G37*
%LPD*%
%LPC*%
G36*
X740116Y320293D02*
X740116Y320293D01*
X734313Y326096D01*
X734313Y334304D01*
X740116Y340107D01*
X748324Y340107D01*
X754127Y334304D01*
X754127Y326096D01*
X748324Y320293D01*
X740116Y320293D01*
G37*
%LPD*%
%LPC*%
G36*
X541996Y294893D02*
X541996Y294893D01*
X536193Y300696D01*
X536193Y308904D01*
X541996Y314707D01*
X550204Y314707D01*
X556007Y308904D01*
X556007Y300696D01*
X550204Y294893D01*
X541996Y294893D01*
G37*
%LPD*%
%LPC*%
G36*
X97496Y205993D02*
X97496Y205993D01*
X91693Y211796D01*
X91693Y220004D01*
X97496Y225807D01*
X105704Y225807D01*
X111507Y220004D01*
X111507Y211796D01*
X105704Y205993D01*
X97496Y205993D01*
G37*
%LPD*%
%LPC*%
G36*
X97496Y244093D02*
X97496Y244093D01*
X91693Y249896D01*
X91693Y258104D01*
X97496Y263907D01*
X105704Y263907D01*
X111507Y258104D01*
X111507Y249896D01*
X105704Y244093D01*
X97496Y244093D01*
G37*
%LPD*%
%LPC*%
G36*
X516341Y23875D02*
X516341Y23875D01*
X512980Y25267D01*
X510407Y27840D01*
X509015Y31201D01*
X509015Y34839D01*
X510407Y38200D01*
X512980Y40773D01*
X516341Y42165D01*
X519979Y42165D01*
X523340Y40773D01*
X525913Y38200D01*
X527305Y34839D01*
X527305Y31201D01*
X525913Y27840D01*
X523340Y25267D01*
X519979Y23875D01*
X516341Y23875D01*
G37*
%LPD*%
%LPC*%
G36*
X490941Y23875D02*
X490941Y23875D01*
X487580Y25267D01*
X485007Y27840D01*
X483615Y31201D01*
X483615Y34839D01*
X485007Y38200D01*
X487580Y40773D01*
X490941Y42165D01*
X494579Y42165D01*
X497940Y40773D01*
X500513Y38200D01*
X501905Y34839D01*
X501905Y31201D01*
X500513Y27840D01*
X497940Y25267D01*
X494579Y23875D01*
X490941Y23875D01*
G37*
%LPD*%
%LPC*%
G36*
X465541Y23875D02*
X465541Y23875D01*
X462180Y25267D01*
X459607Y27840D01*
X458215Y31201D01*
X458215Y34839D01*
X459607Y38200D01*
X462180Y40773D01*
X465541Y42165D01*
X469179Y42165D01*
X472540Y40773D01*
X475113Y38200D01*
X476505Y34839D01*
X476505Y31201D01*
X475113Y27840D01*
X472540Y25267D01*
X469179Y23875D01*
X465541Y23875D01*
G37*
%LPD*%
%LPC*%
G36*
X541741Y49275D02*
X541741Y49275D01*
X538380Y50667D01*
X535807Y53240D01*
X534415Y56601D01*
X534415Y60239D01*
X535807Y63600D01*
X538380Y66173D01*
X541741Y67565D01*
X545379Y67565D01*
X548740Y66173D01*
X551313Y63600D01*
X552705Y60239D01*
X552705Y56601D01*
X551313Y53240D01*
X548740Y50667D01*
X545379Y49275D01*
X541741Y49275D01*
G37*
%LPD*%
%LPC*%
G36*
X442681Y130555D02*
X442681Y130555D01*
X439320Y131947D01*
X436747Y134520D01*
X435355Y137881D01*
X435355Y141519D01*
X436747Y144880D01*
X439320Y147453D01*
X442681Y148845D01*
X446319Y148845D01*
X449680Y147453D01*
X452253Y144880D01*
X453645Y141519D01*
X453645Y137881D01*
X452253Y134520D01*
X449680Y131947D01*
X446319Y130555D01*
X442681Y130555D01*
G37*
%LPD*%
%LPC*%
G36*
X442681Y105155D02*
X442681Y105155D01*
X439320Y106547D01*
X436747Y109120D01*
X435355Y112481D01*
X435355Y116119D01*
X436747Y119480D01*
X439320Y122053D01*
X442681Y123445D01*
X446319Y123445D01*
X449680Y122053D01*
X452253Y119480D01*
X453645Y116119D01*
X453645Y112481D01*
X452253Y109120D01*
X449680Y106547D01*
X446319Y105155D01*
X442681Y105155D01*
G37*
%LPD*%
%LPC*%
G36*
X465541Y49275D02*
X465541Y49275D01*
X462180Y50667D01*
X459607Y53240D01*
X458215Y56601D01*
X458215Y60239D01*
X459607Y63600D01*
X462180Y66173D01*
X465541Y67565D01*
X469179Y67565D01*
X472540Y66173D01*
X475113Y63600D01*
X476505Y60239D01*
X476505Y56601D01*
X475113Y53240D01*
X472540Y50667D01*
X469179Y49275D01*
X465541Y49275D01*
G37*
%LPD*%
%LPC*%
G36*
X541741Y262635D02*
X541741Y262635D01*
X538380Y264027D01*
X535807Y266600D01*
X534415Y269961D01*
X534415Y273599D01*
X535807Y276960D01*
X538380Y279533D01*
X541741Y280925D01*
X545379Y280925D01*
X548740Y279533D01*
X551313Y276960D01*
X552705Y273599D01*
X552705Y269961D01*
X551313Y266600D01*
X548740Y264027D01*
X545379Y262635D01*
X541741Y262635D01*
G37*
%LPD*%
%LPC*%
G36*
X719541Y49275D02*
X719541Y49275D01*
X716180Y50667D01*
X713607Y53240D01*
X712215Y56601D01*
X712215Y60239D01*
X713607Y63600D01*
X716180Y66173D01*
X719541Y67565D01*
X723179Y67565D01*
X726540Y66173D01*
X729113Y63600D01*
X730505Y60239D01*
X730505Y56601D01*
X729113Y53240D01*
X726540Y50667D01*
X723179Y49275D01*
X719541Y49275D01*
G37*
%LPD*%
%LPC*%
G36*
X694141Y49275D02*
X694141Y49275D01*
X690780Y50667D01*
X688207Y53240D01*
X686815Y56601D01*
X686815Y60239D01*
X688207Y63600D01*
X690780Y66173D01*
X694141Y67565D01*
X697779Y67565D01*
X701140Y66173D01*
X703713Y63600D01*
X705105Y60239D01*
X705105Y56601D01*
X703713Y53240D01*
X701140Y50667D01*
X697779Y49275D01*
X694141Y49275D01*
G37*
%LPD*%
%LPC*%
G36*
X668741Y49275D02*
X668741Y49275D01*
X665380Y50667D01*
X662807Y53240D01*
X661415Y56601D01*
X661415Y60239D01*
X662807Y63600D01*
X665380Y66173D01*
X668741Y67565D01*
X672379Y67565D01*
X675740Y66173D01*
X678313Y63600D01*
X679705Y60239D01*
X679705Y56601D01*
X678313Y53240D01*
X675740Y50667D01*
X672379Y49275D01*
X668741Y49275D01*
G37*
%LPD*%
%LPC*%
G36*
X643341Y49275D02*
X643341Y49275D01*
X639980Y50667D01*
X637407Y53240D01*
X636015Y56601D01*
X636015Y60239D01*
X637407Y63600D01*
X639980Y66173D01*
X643341Y67565D01*
X646979Y67565D01*
X650340Y66173D01*
X652913Y63600D01*
X654305Y60239D01*
X654305Y56601D01*
X652913Y53240D01*
X650340Y50667D01*
X646979Y49275D01*
X643341Y49275D01*
G37*
%LPD*%
%LPC*%
G36*
X617941Y49275D02*
X617941Y49275D01*
X614580Y50667D01*
X612007Y53240D01*
X610615Y56601D01*
X610615Y60239D01*
X612007Y63600D01*
X614580Y66173D01*
X617941Y67565D01*
X621579Y67565D01*
X624940Y66173D01*
X627513Y63600D01*
X628905Y60239D01*
X628905Y56601D01*
X627513Y53240D01*
X624940Y50667D01*
X621579Y49275D01*
X617941Y49275D01*
G37*
%LPD*%
%LPC*%
G36*
X592541Y49275D02*
X592541Y49275D01*
X589180Y50667D01*
X586607Y53240D01*
X585215Y56601D01*
X585215Y60239D01*
X586607Y63600D01*
X589180Y66173D01*
X592541Y67565D01*
X596179Y67565D01*
X599540Y66173D01*
X602113Y63600D01*
X603505Y60239D01*
X603505Y56601D01*
X602113Y53240D01*
X599540Y50667D01*
X596179Y49275D01*
X592541Y49275D01*
G37*
%LPD*%
%LPC*%
G36*
X567141Y49275D02*
X567141Y49275D01*
X563780Y50667D01*
X561207Y53240D01*
X559815Y56601D01*
X559815Y60239D01*
X561207Y63600D01*
X563780Y66173D01*
X567141Y67565D01*
X570779Y67565D01*
X574140Y66173D01*
X576713Y63600D01*
X578105Y60239D01*
X578105Y56601D01*
X576713Y53240D01*
X574140Y50667D01*
X570779Y49275D01*
X567141Y49275D01*
G37*
%LPD*%
%LPC*%
G36*
X516341Y49275D02*
X516341Y49275D01*
X512980Y50667D01*
X510407Y53240D01*
X509015Y56601D01*
X509015Y60239D01*
X510407Y63600D01*
X512980Y66173D01*
X516341Y67565D01*
X519979Y67565D01*
X523340Y66173D01*
X525913Y63600D01*
X527305Y60239D01*
X527305Y56601D01*
X525913Y53240D01*
X523340Y50667D01*
X519979Y49275D01*
X516341Y49275D01*
G37*
%LPD*%
%LPC*%
G36*
X490941Y49275D02*
X490941Y49275D01*
X487580Y50667D01*
X485007Y53240D01*
X483615Y56601D01*
X483615Y60239D01*
X485007Y63600D01*
X487580Y66173D01*
X490941Y67565D01*
X494579Y67565D01*
X497940Y66173D01*
X500513Y63600D01*
X501905Y60239D01*
X501905Y56601D01*
X500513Y53240D01*
X497940Y50667D01*
X494579Y49275D01*
X490941Y49275D01*
G37*
%LPD*%
%LPC*%
G36*
X719541Y262635D02*
X719541Y262635D01*
X716180Y264027D01*
X713607Y266600D01*
X712215Y269961D01*
X712215Y273599D01*
X713607Y276960D01*
X716180Y279533D01*
X719541Y280925D01*
X723179Y280925D01*
X726540Y279533D01*
X729113Y276960D01*
X730505Y273599D01*
X730505Y269961D01*
X729113Y266600D01*
X726540Y264027D01*
X723179Y262635D01*
X719541Y262635D01*
G37*
%LPD*%
%LPC*%
G36*
X643341Y262635D02*
X643341Y262635D01*
X639980Y264027D01*
X637407Y266600D01*
X636015Y269961D01*
X636015Y273599D01*
X637407Y276960D01*
X639980Y279533D01*
X643341Y280925D01*
X646979Y280925D01*
X650340Y279533D01*
X652913Y276960D01*
X654305Y273599D01*
X654305Y269961D01*
X652913Y266600D01*
X650340Y264027D01*
X646979Y262635D01*
X643341Y262635D01*
G37*
%LPD*%
%LPC*%
G36*
X617941Y262635D02*
X617941Y262635D01*
X614580Y264027D01*
X612007Y266600D01*
X610615Y269961D01*
X610615Y273599D01*
X612007Y276960D01*
X614580Y279533D01*
X617941Y280925D01*
X621579Y280925D01*
X624940Y279533D01*
X627513Y276960D01*
X628905Y273599D01*
X628905Y269961D01*
X627513Y266600D01*
X624940Y264027D01*
X621579Y262635D01*
X617941Y262635D01*
G37*
%LPD*%
%LPC*%
G36*
X592541Y262635D02*
X592541Y262635D01*
X589180Y264027D01*
X586607Y266600D01*
X585215Y269961D01*
X585215Y273599D01*
X586607Y276960D01*
X589180Y279533D01*
X592541Y280925D01*
X596179Y280925D01*
X599540Y279533D01*
X602113Y276960D01*
X603505Y273599D01*
X603505Y269961D01*
X602113Y266600D01*
X599540Y264027D01*
X596179Y262635D01*
X592541Y262635D01*
G37*
%LPD*%
%LPC*%
G36*
X668741Y262635D02*
X668741Y262635D01*
X665380Y264027D01*
X662807Y266600D01*
X661415Y269961D01*
X661415Y273599D01*
X662807Y276960D01*
X665380Y279533D01*
X668741Y280925D01*
X672379Y280925D01*
X675740Y279533D01*
X678313Y276960D01*
X679705Y273599D01*
X679705Y269961D01*
X678313Y266600D01*
X675740Y264027D01*
X672379Y262635D01*
X668741Y262635D01*
G37*
%LPD*%
%LPC*%
G36*
X744941Y23875D02*
X744941Y23875D01*
X741580Y25267D01*
X739007Y27840D01*
X737615Y31201D01*
X737615Y34839D01*
X739007Y38200D01*
X741580Y40773D01*
X744941Y42165D01*
X748579Y42165D01*
X751940Y40773D01*
X754513Y38200D01*
X755905Y34839D01*
X755905Y31201D01*
X754513Y27840D01*
X751940Y25267D01*
X748579Y23875D01*
X744941Y23875D01*
G37*
%LPD*%
%LPC*%
G36*
X516341Y262635D02*
X516341Y262635D01*
X512980Y264027D01*
X510407Y266600D01*
X509015Y269961D01*
X509015Y273599D01*
X510407Y276960D01*
X512980Y279533D01*
X516341Y280925D01*
X519979Y280925D01*
X523340Y279533D01*
X525913Y276960D01*
X527305Y273599D01*
X527305Y269961D01*
X525913Y266600D01*
X523340Y264027D01*
X519979Y262635D01*
X516341Y262635D01*
G37*
%LPD*%
%LPC*%
G36*
X694141Y262635D02*
X694141Y262635D01*
X690780Y264027D01*
X688207Y266600D01*
X686815Y269961D01*
X686815Y273599D01*
X688207Y276960D01*
X690780Y279533D01*
X694141Y280925D01*
X697779Y280925D01*
X701140Y279533D01*
X703713Y276960D01*
X705105Y273599D01*
X705105Y269961D01*
X703713Y266600D01*
X701140Y264027D01*
X697779Y262635D01*
X694141Y262635D01*
G37*
%LPD*%
%LPC*%
G36*
X719541Y23875D02*
X719541Y23875D01*
X716180Y25267D01*
X713607Y27840D01*
X712215Y31201D01*
X712215Y34839D01*
X713607Y38200D01*
X716180Y40773D01*
X719541Y42165D01*
X723179Y42165D01*
X726540Y40773D01*
X729113Y38200D01*
X730505Y34839D01*
X730505Y31201D01*
X729113Y27840D01*
X726540Y25267D01*
X723179Y23875D01*
X719541Y23875D01*
G37*
%LPD*%
%LPC*%
G36*
X694141Y23875D02*
X694141Y23875D01*
X690780Y25267D01*
X688207Y27840D01*
X686815Y31201D01*
X686815Y34839D01*
X688207Y38200D01*
X690780Y40773D01*
X694141Y42165D01*
X697779Y42165D01*
X701140Y40773D01*
X703713Y38200D01*
X705105Y34839D01*
X705105Y31201D01*
X703713Y27840D01*
X701140Y25267D01*
X697779Y23875D01*
X694141Y23875D01*
G37*
%LPD*%
%LPC*%
G36*
X668741Y23875D02*
X668741Y23875D01*
X665380Y25267D01*
X662807Y27840D01*
X661415Y31201D01*
X661415Y34839D01*
X662807Y38200D01*
X665380Y40773D01*
X668741Y42165D01*
X672379Y42165D01*
X675740Y40773D01*
X678313Y38200D01*
X679705Y34839D01*
X679705Y31201D01*
X678313Y27840D01*
X675740Y25267D01*
X672379Y23875D01*
X668741Y23875D01*
G37*
%LPD*%
%LPC*%
G36*
X643341Y23875D02*
X643341Y23875D01*
X639980Y25267D01*
X637407Y27840D01*
X636015Y31201D01*
X636015Y34839D01*
X637407Y38200D01*
X639980Y40773D01*
X643341Y42165D01*
X646979Y42165D01*
X650340Y40773D01*
X652913Y38200D01*
X654305Y34839D01*
X654305Y31201D01*
X652913Y27840D01*
X650340Y25267D01*
X646979Y23875D01*
X643341Y23875D01*
G37*
%LPD*%
%LPC*%
G36*
X617941Y23875D02*
X617941Y23875D01*
X614580Y25267D01*
X612007Y27840D01*
X610615Y31201D01*
X610615Y34839D01*
X612007Y38200D01*
X614580Y40773D01*
X617941Y42165D01*
X621579Y42165D01*
X624940Y40773D01*
X627513Y38200D01*
X628905Y34839D01*
X628905Y31201D01*
X627513Y27840D01*
X624940Y25267D01*
X621579Y23875D01*
X617941Y23875D01*
G37*
%LPD*%
%LPC*%
G36*
X592541Y23875D02*
X592541Y23875D01*
X589180Y25267D01*
X586607Y27840D01*
X585215Y31201D01*
X585215Y34839D01*
X586607Y38200D01*
X589180Y40773D01*
X592541Y42165D01*
X596179Y42165D01*
X599540Y40773D01*
X602113Y38200D01*
X603505Y34839D01*
X603505Y31201D01*
X602113Y27840D01*
X599540Y25267D01*
X596179Y23875D01*
X592541Y23875D01*
G37*
%LPD*%
%LPC*%
G36*
X719541Y237235D02*
X719541Y237235D01*
X716180Y238627D01*
X713607Y241200D01*
X712215Y244561D01*
X712215Y248199D01*
X713607Y251560D01*
X716180Y254133D01*
X719541Y255525D01*
X723179Y255525D01*
X726540Y254133D01*
X729113Y251560D01*
X730505Y248199D01*
X730505Y244561D01*
X729113Y241200D01*
X726540Y238627D01*
X723179Y237235D01*
X719541Y237235D01*
G37*
%LPD*%
%LPC*%
G36*
X617941Y237235D02*
X617941Y237235D01*
X614580Y238627D01*
X612007Y241200D01*
X610615Y244561D01*
X610615Y248199D01*
X612007Y251560D01*
X614580Y254133D01*
X617941Y255525D01*
X621579Y255525D01*
X624940Y254133D01*
X627513Y251560D01*
X628905Y248199D01*
X628905Y244561D01*
X627513Y241200D01*
X624940Y238627D01*
X621579Y237235D01*
X617941Y237235D01*
G37*
%LPD*%
%LPC*%
G36*
X668741Y237235D02*
X668741Y237235D01*
X665380Y238627D01*
X662807Y241200D01*
X661415Y244561D01*
X661415Y248199D01*
X662807Y251560D01*
X665380Y254133D01*
X668741Y255525D01*
X672379Y255525D01*
X675740Y254133D01*
X678313Y251560D01*
X679705Y248199D01*
X679705Y244561D01*
X678313Y241200D01*
X675740Y238627D01*
X672379Y237235D01*
X668741Y237235D01*
G37*
%LPD*%
%LPC*%
G36*
X592541Y237235D02*
X592541Y237235D01*
X589180Y238627D01*
X586607Y241200D01*
X585215Y244561D01*
X585215Y248199D01*
X586607Y251560D01*
X589180Y254133D01*
X592541Y255525D01*
X596179Y255525D01*
X599540Y254133D01*
X602113Y251560D01*
X603505Y248199D01*
X603505Y244561D01*
X602113Y241200D01*
X599540Y238627D01*
X596179Y237235D01*
X592541Y237235D01*
G37*
%LPD*%
%LPC*%
G36*
X694141Y237235D02*
X694141Y237235D01*
X690780Y238627D01*
X688207Y241200D01*
X686815Y244561D01*
X686815Y248199D01*
X688207Y251560D01*
X690780Y254133D01*
X694141Y255525D01*
X697779Y255525D01*
X701140Y254133D01*
X703713Y251560D01*
X705105Y248199D01*
X705105Y244561D01*
X703713Y241200D01*
X701140Y238627D01*
X697779Y237235D01*
X694141Y237235D01*
G37*
%LPD*%
%LPC*%
G36*
X567141Y237235D02*
X567141Y237235D01*
X563780Y238627D01*
X561207Y241200D01*
X559815Y244561D01*
X559815Y248199D01*
X561207Y251560D01*
X563780Y254133D01*
X567141Y255525D01*
X570779Y255525D01*
X574140Y254133D01*
X576713Y251560D01*
X578105Y248199D01*
X578105Y244561D01*
X576713Y241200D01*
X574140Y238627D01*
X570779Y237235D01*
X567141Y237235D01*
G37*
%LPD*%
%LPC*%
G36*
X541741Y237235D02*
X541741Y237235D01*
X538380Y238627D01*
X535807Y241200D01*
X534415Y244561D01*
X534415Y248199D01*
X535807Y251560D01*
X538380Y254133D01*
X541741Y255525D01*
X545379Y255525D01*
X548740Y254133D01*
X551313Y251560D01*
X552705Y248199D01*
X552705Y244561D01*
X551313Y241200D01*
X548740Y238627D01*
X545379Y237235D01*
X541741Y237235D01*
G37*
%LPD*%
%LPC*%
G36*
X643341Y237235D02*
X643341Y237235D01*
X639980Y238627D01*
X637407Y241200D01*
X636015Y244561D01*
X636015Y248199D01*
X637407Y251560D01*
X639980Y254133D01*
X643341Y255525D01*
X646979Y255525D01*
X650340Y254133D01*
X652913Y251560D01*
X654305Y248199D01*
X654305Y244561D01*
X652913Y241200D01*
X650340Y238627D01*
X646979Y237235D01*
X643341Y237235D01*
G37*
%LPD*%
%LPC*%
G36*
X567141Y23875D02*
X567141Y23875D01*
X563780Y25267D01*
X561207Y27840D01*
X559815Y31201D01*
X559815Y34839D01*
X561207Y38200D01*
X563780Y40773D01*
X567141Y42165D01*
X570779Y42165D01*
X574140Y40773D01*
X576713Y38200D01*
X578105Y34839D01*
X578105Y31201D01*
X576713Y27840D01*
X574140Y25267D01*
X570779Y23875D01*
X567141Y23875D01*
G37*
%LPD*%
%LPC*%
G36*
X541741Y23875D02*
X541741Y23875D01*
X538380Y25267D01*
X535807Y27840D01*
X534415Y31201D01*
X534415Y34839D01*
X535807Y38200D01*
X538380Y40773D01*
X541741Y42165D01*
X545379Y42165D01*
X548740Y40773D01*
X551313Y38200D01*
X552705Y34839D01*
X552705Y31201D01*
X551313Y27840D01*
X548740Y25267D01*
X545379Y23875D01*
X541741Y23875D01*
G37*
%LPD*%
%LPC*%
G36*
X364897Y40935D02*
X364897Y40935D01*
X361565Y42315D01*
X359015Y44865D01*
X357635Y48197D01*
X357635Y51803D01*
X359015Y55135D01*
X361565Y57685D01*
X364897Y59065D01*
X368503Y59065D01*
X371835Y57685D01*
X374385Y55135D01*
X375765Y51803D01*
X375765Y48197D01*
X374385Y44865D01*
X371835Y42315D01*
X368503Y40935D01*
X364897Y40935D01*
G37*
%LPD*%
%LPC*%
G36*
X187097Y40935D02*
X187097Y40935D01*
X183765Y42315D01*
X181215Y44865D01*
X179835Y48197D01*
X179835Y51803D01*
X181215Y55135D01*
X183765Y57685D01*
X187097Y59065D01*
X190703Y59065D01*
X194035Y57685D01*
X196585Y55135D01*
X197965Y51803D01*
X197965Y48197D01*
X196585Y44865D01*
X194035Y42315D01*
X190703Y40935D01*
X187097Y40935D01*
G37*
%LPD*%
%LPC*%
G36*
X805818Y258825D02*
X805818Y258825D01*
X804925Y259718D01*
X804925Y273682D01*
X805818Y274575D01*
X819782Y274575D01*
X820675Y273682D01*
X820675Y259718D01*
X819782Y258825D01*
X805818Y258825D01*
G37*
%LPD*%
%LPC*%
G36*
X52323Y280923D02*
X52323Y280923D01*
X52323Y293881D01*
X54205Y293583D01*
X56382Y292875D01*
X58421Y291836D01*
X60273Y290491D01*
X61891Y288873D01*
X63236Y287021D01*
X64275Y284982D01*
X64983Y282805D01*
X65281Y280923D01*
X52323Y280923D01*
G37*
%LPD*%
%LPC*%
G36*
X36319Y280923D02*
X36319Y280923D01*
X36617Y282805D01*
X37325Y284982D01*
X38364Y287021D01*
X39709Y288873D01*
X41327Y290491D01*
X43179Y291836D01*
X45218Y292875D01*
X47395Y293583D01*
X49277Y293881D01*
X49277Y280923D01*
X36319Y280923D01*
G37*
%LPD*%
%LPC*%
G36*
X52323Y277877D02*
X52323Y277877D01*
X65281Y277877D01*
X64983Y275995D01*
X64275Y273818D01*
X63236Y271779D01*
X61891Y269927D01*
X60273Y268309D01*
X58421Y266964D01*
X56382Y265925D01*
X54205Y265217D01*
X52323Y264919D01*
X52323Y277877D01*
G37*
%LPD*%
%LPC*%
G36*
X47395Y265217D02*
X47395Y265217D01*
X45218Y265925D01*
X43179Y266964D01*
X41327Y268309D01*
X39709Y269927D01*
X38364Y271779D01*
X37325Y273818D01*
X36617Y275995D01*
X36319Y277877D01*
X49277Y277877D01*
X49277Y264919D01*
X47395Y265217D01*
G37*
%LPD*%
%LPC*%
G36*
X11780Y160665D02*
X11780Y160665D01*
X11002Y160752D01*
X10264Y161011D01*
X9601Y161427D01*
X9047Y161981D01*
X8631Y162644D01*
X8372Y163382D01*
X8285Y164160D01*
X8372Y164938D01*
X8631Y165676D01*
X9047Y166339D01*
X9601Y166893D01*
X10264Y167309D01*
X11002Y167568D01*
X11780Y167655D01*
X23780Y167655D01*
X24558Y167568D01*
X25296Y167309D01*
X25959Y166893D01*
X26513Y166339D01*
X26929Y165676D01*
X27188Y164938D01*
X27275Y164160D01*
X27188Y163382D01*
X26929Y162644D01*
X26513Y161981D01*
X25959Y161427D01*
X25296Y161011D01*
X24558Y160752D01*
X23780Y160665D01*
X11780Y160665D01*
G37*
%LPD*%
%LPC*%
G36*
X11780Y233665D02*
X11780Y233665D01*
X11002Y233752D01*
X10264Y234011D01*
X9601Y234427D01*
X9047Y234981D01*
X8631Y235644D01*
X8372Y236382D01*
X8285Y237160D01*
X8372Y237938D01*
X8631Y238676D01*
X9047Y239339D01*
X9601Y239893D01*
X10264Y240309D01*
X11002Y240568D01*
X11780Y240655D01*
X23780Y240655D01*
X24558Y240568D01*
X25296Y240309D01*
X25959Y239893D01*
X26513Y239339D01*
X26929Y238676D01*
X27188Y237938D01*
X27275Y237160D01*
X27188Y236382D01*
X26929Y235644D01*
X26513Y234981D01*
X25959Y234427D01*
X25296Y234011D01*
X24558Y233752D01*
X23780Y233665D01*
X11780Y233665D01*
G37*
%LPD*%
%LPC*%
G36*
X382523Y344423D02*
X382523Y344423D01*
X382523Y360566D01*
X383379Y360431D01*
X384900Y359936D01*
X386325Y359210D01*
X387619Y358270D01*
X388750Y357139D01*
X389690Y355845D01*
X390416Y354420D01*
X390911Y352899D01*
X391161Y351320D01*
X391161Y344423D01*
X382523Y344423D01*
G37*
%LPD*%
%LPC*%
G36*
X166623Y344423D02*
X166623Y344423D01*
X166623Y360566D01*
X167479Y360431D01*
X169000Y359936D01*
X170425Y359210D01*
X171719Y358270D01*
X172850Y357139D01*
X173790Y355845D01*
X174516Y354420D01*
X175011Y352899D01*
X175261Y351320D01*
X175261Y344423D01*
X166623Y344423D01*
G37*
%LPD*%
%LPC*%
G36*
X382523Y341377D02*
X382523Y341377D01*
X391161Y341377D01*
X391161Y334480D01*
X390911Y332901D01*
X390416Y331380D01*
X389690Y329955D01*
X388750Y328661D01*
X387619Y327530D01*
X386325Y326590D01*
X384900Y325864D01*
X383379Y325369D01*
X382523Y325234D01*
X382523Y341377D01*
G37*
%LPD*%
%LPC*%
G36*
X166623Y341377D02*
X166623Y341377D01*
X175261Y341377D01*
X175261Y334480D01*
X175011Y332901D01*
X174516Y331380D01*
X173790Y329955D01*
X172850Y328661D01*
X171719Y327530D01*
X170425Y326590D01*
X169000Y325864D01*
X167479Y325369D01*
X166623Y325234D01*
X166623Y341377D01*
G37*
%LPD*%
%LPC*%
G36*
X370839Y344423D02*
X370839Y344423D01*
X370839Y351320D01*
X371089Y352899D01*
X371584Y354420D01*
X372310Y355845D01*
X373250Y357139D01*
X374381Y358270D01*
X375675Y359210D01*
X377100Y359936D01*
X378621Y360431D01*
X379477Y360566D01*
X379477Y344423D01*
X370839Y344423D01*
G37*
%LPD*%
%LPC*%
G36*
X154939Y344423D02*
X154939Y344423D01*
X154939Y351320D01*
X155189Y352899D01*
X155684Y354420D01*
X156410Y355845D01*
X157350Y357139D01*
X158481Y358270D01*
X159775Y359210D01*
X161200Y359936D01*
X162721Y360431D01*
X163577Y360566D01*
X163577Y344423D01*
X154939Y344423D01*
G37*
%LPD*%
%LPC*%
G36*
X162721Y325369D02*
X162721Y325369D01*
X161200Y325864D01*
X159775Y326590D01*
X158481Y327530D01*
X157350Y328661D01*
X156410Y329955D01*
X155684Y331380D01*
X155189Y332901D01*
X154939Y334480D01*
X154939Y341377D01*
X163577Y341377D01*
X163577Y325234D01*
X162721Y325369D01*
G37*
%LPD*%
%LPC*%
G36*
X378621Y325369D02*
X378621Y325369D01*
X377100Y325864D01*
X375675Y326590D01*
X374381Y327530D01*
X373250Y328661D01*
X372310Y329955D01*
X371584Y331380D01*
X371089Y332901D01*
X370839Y334480D01*
X370839Y341377D01*
X379477Y341377D01*
X379477Y325234D01*
X378621Y325369D01*
G37*
%LPD*%
%LPC*%
G36*
X776223Y230123D02*
X776223Y230123D01*
X776223Y244225D01*
X777367Y243997D01*
X779032Y243308D01*
X780530Y242307D01*
X781803Y241034D01*
X782804Y239536D01*
X783493Y237871D01*
X783845Y236105D01*
X783845Y230123D01*
X776223Y230123D01*
G37*
%LPD*%
%LPC*%
G36*
X776223Y227077D02*
X776223Y227077D01*
X783845Y227077D01*
X783845Y221095D01*
X783493Y219329D01*
X782804Y217664D01*
X781803Y216166D01*
X780530Y214893D01*
X779032Y213892D01*
X777367Y213203D01*
X776223Y212975D01*
X776223Y227077D01*
G37*
%LPD*%
%LPC*%
G36*
X765555Y230123D02*
X765555Y230123D01*
X765555Y236105D01*
X765907Y237871D01*
X766596Y239536D01*
X767597Y241034D01*
X768870Y242307D01*
X770368Y243308D01*
X772033Y243997D01*
X773177Y244225D01*
X773177Y230123D01*
X765555Y230123D01*
G37*
%LPD*%
%LPC*%
G36*
X772033Y213203D02*
X772033Y213203D01*
X770368Y213892D01*
X768870Y214893D01*
X767597Y216166D01*
X766596Y217664D01*
X765907Y219329D01*
X765555Y221095D01*
X765555Y227077D01*
X773177Y227077D01*
X773177Y212975D01*
X772033Y213203D01*
G37*
%LPD*%
%LPC*%
G36*
X522223Y306323D02*
X522223Y306323D01*
X522223Y315723D01*
X525224Y315723D01*
X531623Y309324D01*
X531623Y306323D01*
X522223Y306323D01*
G37*
%LPD*%
%LPC*%
G36*
X128523Y255523D02*
X128523Y255523D01*
X128523Y264923D01*
X131524Y264923D01*
X137923Y258524D01*
X137923Y255523D01*
X128523Y255523D01*
G37*
%LPD*%
%LPC*%
G36*
X369823Y230123D02*
X369823Y230123D01*
X369823Y239523D01*
X372824Y239523D01*
X379223Y233124D01*
X379223Y230123D01*
X369823Y230123D01*
G37*
%LPD*%
%LPC*%
G36*
X128523Y217423D02*
X128523Y217423D01*
X128523Y226823D01*
X131524Y226823D01*
X137923Y220424D01*
X137923Y217423D01*
X128523Y217423D01*
G37*
%LPD*%
%LPC*%
G36*
X839723Y153923D02*
X839723Y153923D01*
X839723Y163323D01*
X842724Y163323D01*
X849123Y156924D01*
X849123Y153923D01*
X839723Y153923D01*
G37*
%LPD*%
%LPC*%
G36*
X369823Y217677D02*
X369823Y217677D01*
X369823Y227077D01*
X379223Y227077D01*
X379223Y224076D01*
X372824Y217677D01*
X369823Y217677D01*
G37*
%LPD*%
%LPC*%
G36*
X522223Y293877D02*
X522223Y293877D01*
X522223Y303277D01*
X531623Y303277D01*
X531623Y300276D01*
X525224Y293877D01*
X522223Y293877D01*
G37*
%LPD*%
%LPC*%
G36*
X357377Y230123D02*
X357377Y230123D01*
X357377Y233124D01*
X363776Y239523D01*
X366777Y239523D01*
X366777Y230123D01*
X357377Y230123D01*
G37*
%LPD*%
%LPC*%
G36*
X509777Y306323D02*
X509777Y306323D01*
X509777Y309324D01*
X516176Y315723D01*
X519177Y315723D01*
X519177Y306323D01*
X509777Y306323D01*
G37*
%LPD*%
%LPC*%
G36*
X827277Y153923D02*
X827277Y153923D01*
X827277Y156924D01*
X833676Y163323D01*
X836677Y163323D01*
X836677Y153923D01*
X827277Y153923D01*
G37*
%LPD*%
%LPC*%
G36*
X116077Y255523D02*
X116077Y255523D01*
X116077Y258524D01*
X122476Y264923D01*
X125477Y264923D01*
X125477Y255523D01*
X116077Y255523D01*
G37*
%LPD*%
%LPC*%
G36*
X128523Y204977D02*
X128523Y204977D01*
X128523Y214377D01*
X137923Y214377D01*
X137923Y211376D01*
X131524Y204977D01*
X128523Y204977D01*
G37*
%LPD*%
%LPC*%
G36*
X128523Y243077D02*
X128523Y243077D01*
X128523Y252477D01*
X137923Y252477D01*
X137923Y249476D01*
X131524Y243077D01*
X128523Y243077D01*
G37*
%LPD*%
%LPC*%
G36*
X839723Y141477D02*
X839723Y141477D01*
X839723Y150877D01*
X849123Y150877D01*
X849123Y147876D01*
X842724Y141477D01*
X839723Y141477D01*
G37*
%LPD*%
%LPC*%
G36*
X116077Y217423D02*
X116077Y217423D01*
X116077Y220424D01*
X122476Y226823D01*
X125477Y226823D01*
X125477Y217423D01*
X116077Y217423D01*
G37*
%LPD*%
%LPC*%
G36*
X516176Y293877D02*
X516176Y293877D01*
X509777Y300276D01*
X509777Y303277D01*
X519177Y303277D01*
X519177Y293877D01*
X516176Y293877D01*
G37*
%LPD*%
%LPC*%
G36*
X363776Y217677D02*
X363776Y217677D01*
X357377Y224076D01*
X357377Y227077D01*
X366777Y227077D01*
X366777Y217677D01*
X363776Y217677D01*
G37*
%LPD*%
%LPC*%
G36*
X122476Y243077D02*
X122476Y243077D01*
X116077Y249476D01*
X116077Y252477D01*
X125477Y252477D01*
X125477Y243077D01*
X122476Y243077D01*
G37*
%LPD*%
%LPC*%
G36*
X122476Y204977D02*
X122476Y204977D01*
X116077Y211376D01*
X116077Y214377D01*
X125477Y214377D01*
X125477Y204977D01*
X122476Y204977D01*
G37*
%LPD*%
%LPC*%
G36*
X833676Y141477D02*
X833676Y141477D01*
X827277Y147876D01*
X827277Y150877D01*
X836677Y150877D01*
X836677Y141477D01*
X833676Y141477D01*
G37*
%LPD*%
%LPC*%
G36*
X446023Y166623D02*
X446023Y166623D01*
X446023Y175146D01*
X446879Y175011D01*
X448400Y174516D01*
X449825Y173790D01*
X451119Y172850D01*
X452250Y171719D01*
X453190Y170425D01*
X453916Y169000D01*
X454411Y167479D01*
X454546Y166623D01*
X446023Y166623D01*
G37*
%LPD*%
%LPC*%
G36*
X446023Y163577D02*
X446023Y163577D01*
X454546Y163577D01*
X454411Y162721D01*
X453916Y161200D01*
X453190Y159775D01*
X452250Y158481D01*
X451119Y157350D01*
X449825Y156410D01*
X448400Y155684D01*
X446879Y155189D01*
X446023Y155054D01*
X446023Y163577D01*
G37*
%LPD*%
%LPC*%
G36*
X434454Y166623D02*
X434454Y166623D01*
X434589Y167479D01*
X435084Y169000D01*
X435810Y170425D01*
X436750Y171719D01*
X437881Y172850D01*
X439175Y173790D01*
X440600Y174516D01*
X442121Y175011D01*
X442977Y175146D01*
X442977Y166623D01*
X434454Y166623D01*
G37*
%LPD*%
%LPC*%
G36*
X442121Y155189D02*
X442121Y155189D01*
X440600Y155684D01*
X439175Y156410D01*
X437881Y157350D01*
X436750Y158481D01*
X435810Y159775D01*
X435084Y161200D01*
X434589Y162721D01*
X434454Y163577D01*
X442977Y163577D01*
X442977Y155054D01*
X442121Y155189D01*
G37*
%LPD*%
%LPC*%
G36*
X318223Y101523D02*
X318223Y101523D01*
X318223Y109965D01*
X319061Y109833D01*
X320570Y109342D01*
X321983Y108622D01*
X323267Y107689D01*
X324389Y106567D01*
X325322Y105283D01*
X326042Y103870D01*
X326533Y102361D01*
X326665Y101523D01*
X318223Y101523D01*
G37*
%LPD*%
%LPC*%
G36*
X190423Y101523D02*
X190423Y101523D01*
X190423Y109965D01*
X191261Y109833D01*
X192770Y109342D01*
X194183Y108622D01*
X195467Y107689D01*
X196589Y106567D01*
X197522Y105283D01*
X198242Y103870D01*
X198733Y102361D01*
X198865Y101523D01*
X190423Y101523D01*
G37*
%LPD*%
%LPC*%
G36*
X368223Y101523D02*
X368223Y101523D01*
X368223Y109965D01*
X369061Y109833D01*
X370570Y109342D01*
X371983Y108622D01*
X373267Y107689D01*
X374389Y106567D01*
X375322Y105283D01*
X376042Y103870D01*
X376533Y102361D01*
X376665Y101523D01*
X368223Y101523D01*
G37*
%LPD*%
%LPC*%
G36*
X140423Y101523D02*
X140423Y101523D01*
X140423Y109965D01*
X141261Y109833D01*
X142770Y109342D01*
X144183Y108622D01*
X145467Y107689D01*
X146589Y106567D01*
X147522Y105283D01*
X148242Y103870D01*
X148733Y102361D01*
X148865Y101523D01*
X140423Y101523D01*
G37*
%LPD*%
%LPC*%
G36*
X318223Y98477D02*
X318223Y98477D01*
X326665Y98477D01*
X326533Y97639D01*
X326042Y96130D01*
X325322Y94717D01*
X324389Y93433D01*
X323267Y92311D01*
X321983Y91378D01*
X320570Y90658D01*
X319061Y90167D01*
X318223Y90035D01*
X318223Y98477D01*
G37*
%LPD*%
%LPC*%
G36*
X356735Y101523D02*
X356735Y101523D01*
X356867Y102361D01*
X357358Y103870D01*
X358078Y105283D01*
X359011Y106567D01*
X360133Y107689D01*
X361417Y108622D01*
X362830Y109342D01*
X364339Y109833D01*
X365177Y109965D01*
X365177Y101523D01*
X356735Y101523D01*
G37*
%LPD*%
%LPC*%
G36*
X190423Y98477D02*
X190423Y98477D01*
X198865Y98477D01*
X198733Y97639D01*
X198242Y96130D01*
X197522Y94717D01*
X196589Y93433D01*
X195467Y92311D01*
X194183Y91378D01*
X192770Y90658D01*
X191261Y90167D01*
X190423Y90035D01*
X190423Y98477D01*
G37*
%LPD*%
%LPC*%
G36*
X140423Y98477D02*
X140423Y98477D01*
X148865Y98477D01*
X148733Y97639D01*
X148242Y96130D01*
X147522Y94717D01*
X146589Y93433D01*
X145467Y92311D01*
X144183Y91378D01*
X142770Y90658D01*
X141261Y90167D01*
X140423Y90035D01*
X140423Y98477D01*
G37*
%LPD*%
%LPC*%
G36*
X178935Y101523D02*
X178935Y101523D01*
X179067Y102361D01*
X179558Y103870D01*
X180278Y105283D01*
X181211Y106567D01*
X182333Y107689D01*
X183617Y108622D01*
X185030Y109342D01*
X186539Y109833D01*
X187377Y109965D01*
X187377Y101523D01*
X178935Y101523D01*
G37*
%LPD*%
%LPC*%
G36*
X128935Y101523D02*
X128935Y101523D01*
X129067Y102361D01*
X129558Y103870D01*
X130278Y105283D01*
X131211Y106567D01*
X132333Y107689D01*
X133617Y108622D01*
X135030Y109342D01*
X136539Y109833D01*
X137377Y109965D01*
X137377Y101523D01*
X128935Y101523D01*
G37*
%LPD*%
%LPC*%
G36*
X368223Y98477D02*
X368223Y98477D01*
X376665Y98477D01*
X376533Y97639D01*
X376042Y96130D01*
X375322Y94717D01*
X374389Y93433D01*
X373267Y92311D01*
X371983Y91378D01*
X370570Y90658D01*
X369061Y90167D01*
X368223Y90035D01*
X368223Y98477D01*
G37*
%LPD*%
%LPC*%
G36*
X306735Y101523D02*
X306735Y101523D01*
X306867Y102361D01*
X307358Y103870D01*
X308078Y105283D01*
X309011Y106567D01*
X310133Y107689D01*
X311417Y108622D01*
X312830Y109342D01*
X314339Y109833D01*
X315177Y109965D01*
X315177Y101523D01*
X306735Y101523D01*
G37*
%LPD*%
%LPC*%
G36*
X314339Y90167D02*
X314339Y90167D01*
X312830Y90658D01*
X311417Y91378D01*
X310133Y92311D01*
X309011Y93433D01*
X308078Y94717D01*
X307358Y96130D01*
X306867Y97639D01*
X306735Y98477D01*
X315177Y98477D01*
X315177Y90035D01*
X314339Y90167D01*
G37*
%LPD*%
%LPC*%
G36*
X186539Y90167D02*
X186539Y90167D01*
X185030Y90658D01*
X183617Y91378D01*
X182333Y92311D01*
X181211Y93433D01*
X180278Y94717D01*
X179558Y96130D01*
X179067Y97639D01*
X178935Y98477D01*
X187377Y98477D01*
X187377Y90035D01*
X186539Y90167D01*
G37*
%LPD*%
%LPC*%
G36*
X136539Y90167D02*
X136539Y90167D01*
X135030Y90658D01*
X133617Y91378D01*
X132333Y92311D01*
X131211Y93433D01*
X130278Y94717D01*
X129558Y96130D01*
X129067Y97639D01*
X128935Y98477D01*
X137377Y98477D01*
X137377Y90035D01*
X136539Y90167D01*
G37*
%LPD*%
%LPC*%
G36*
X364339Y90167D02*
X364339Y90167D01*
X362830Y90658D01*
X361417Y91378D01*
X360133Y92311D01*
X359011Y93433D01*
X358078Y94717D01*
X357358Y96130D01*
X356867Y97639D01*
X356735Y98477D01*
X365177Y98477D01*
X365177Y90035D01*
X364339Y90167D01*
G37*
%LPD*%
%LPC*%
G36*
X813799Y229599D02*
X813799Y229599D01*
X813799Y237466D01*
X815393Y237149D01*
X817011Y236479D01*
X818468Y235506D01*
X819706Y234268D01*
X820679Y232811D01*
X821349Y231193D01*
X821666Y229599D01*
X813799Y229599D01*
G37*
%LPD*%
%LPC*%
G36*
X803934Y229599D02*
X803934Y229599D01*
X804251Y231193D01*
X804921Y232811D01*
X805894Y234268D01*
X807132Y235506D01*
X808589Y236479D01*
X810207Y237149D01*
X811801Y237466D01*
X811801Y229599D01*
X803934Y229599D01*
G37*
%LPD*%
%LPC*%
G36*
X813799Y227601D02*
X813799Y227601D01*
X821666Y227601D01*
X821349Y226007D01*
X820679Y224389D01*
X819706Y222932D01*
X818468Y221694D01*
X817011Y220721D01*
X815393Y220051D01*
X813799Y219734D01*
X813799Y227601D01*
G37*
%LPD*%
%LPC*%
G36*
X810207Y220051D02*
X810207Y220051D01*
X808589Y220721D01*
X807132Y221694D01*
X805894Y222932D01*
X804921Y224389D01*
X804251Y226007D01*
X803934Y227601D01*
X811801Y227601D01*
X811801Y219734D01*
X810207Y220051D01*
G37*
%LPD*%
%LPC*%
G36*
X69803Y183137D02*
X69803Y183137D01*
X76726Y183137D01*
X76531Y182157D01*
X75884Y180595D01*
X74945Y179190D01*
X73750Y177995D01*
X72345Y177056D01*
X70783Y176409D01*
X69803Y176214D01*
X69803Y183137D01*
G37*
%LPD*%
%LPC*%
G36*
X65777Y176409D02*
X65777Y176409D01*
X64215Y177056D01*
X62810Y177995D01*
X61615Y179190D01*
X60676Y180595D01*
X60029Y182157D01*
X59834Y183137D01*
X66757Y183137D01*
X66757Y176214D01*
X65777Y176409D01*
G37*
%LPD*%
%LPC*%
G36*
X368299Y228599D02*
X368299Y228599D01*
X368299Y228601D01*
X368301Y228601D01*
X368301Y228599D01*
X368299Y228599D01*
G37*
%LPD*%
%LPC*%
G36*
X126999Y215899D02*
X126999Y215899D01*
X126999Y215901D01*
X127001Y215901D01*
X127001Y215899D01*
X126999Y215899D01*
G37*
%LPD*%
%LPC*%
G36*
X366699Y99999D02*
X366699Y99999D01*
X366699Y100001D01*
X366701Y100001D01*
X366701Y99999D01*
X366699Y99999D01*
G37*
%LPD*%
%LPC*%
G36*
X126999Y253999D02*
X126999Y253999D01*
X126999Y254001D01*
X127001Y254001D01*
X127001Y253999D01*
X126999Y253999D01*
G37*
%LPD*%
%LPC*%
G36*
X50799Y279399D02*
X50799Y279399D01*
X50799Y279401D01*
X50801Y279401D01*
X50801Y279399D01*
X50799Y279399D01*
G37*
%LPD*%
%LPC*%
G36*
X444499Y165099D02*
X444499Y165099D01*
X444499Y165101D01*
X444501Y165101D01*
X444501Y165099D01*
X444499Y165099D01*
G37*
%LPD*%
%LPC*%
G36*
X316699Y99999D02*
X316699Y99999D01*
X316699Y100001D01*
X316701Y100001D01*
X316701Y99999D01*
X316699Y99999D01*
G37*
%LPD*%
%LPC*%
G36*
X520699Y304799D02*
X520699Y304799D01*
X520699Y304801D01*
X520701Y304801D01*
X520701Y304799D01*
X520699Y304799D01*
G37*
%LPD*%
%LPC*%
G36*
X380999Y342899D02*
X380999Y342899D01*
X380999Y342901D01*
X381001Y342901D01*
X381001Y342899D01*
X380999Y342899D01*
G37*
%LPD*%
%LPC*%
G36*
X165099Y342899D02*
X165099Y342899D01*
X165099Y342901D01*
X165101Y342901D01*
X165101Y342899D01*
X165099Y342899D01*
G37*
%LPD*%
%LPC*%
G36*
X188899Y99999D02*
X188899Y99999D01*
X188899Y100001D01*
X188901Y100001D01*
X188901Y99999D01*
X188899Y99999D01*
G37*
%LPD*%
%LPC*%
G36*
X838199Y152399D02*
X838199Y152399D01*
X838199Y152401D01*
X838201Y152401D01*
X838201Y152399D01*
X838199Y152399D01*
G37*
%LPD*%
%LPC*%
G36*
X774699Y228599D02*
X774699Y228599D01*
X774699Y228601D01*
X774701Y228601D01*
X774701Y228599D01*
X774699Y228599D01*
G37*
%LPD*%
%LPC*%
G36*
X138899Y99999D02*
X138899Y99999D01*
X138899Y100001D01*
X138901Y100001D01*
X138901Y99999D01*
X138899Y99999D01*
G37*
%LPD*%
D10*
X68280Y200660D03*
X68280Y184660D03*
X56280Y208660D03*
X56280Y192660D03*
X68280Y216660D03*
D11*
X381000Y335280D02*
X381000Y350520D01*
X406400Y350520D02*
X406400Y335280D01*
X431800Y335280D02*
X431800Y350520D01*
D12*
X444500Y190500D03*
D13*
X444500Y165100D03*
X444500Y139700D03*
X444500Y114300D03*
D12*
X518160Y246380D03*
D13*
X518160Y271780D03*
X543560Y246380D03*
X543560Y271780D03*
X568960Y246380D03*
X568960Y271780D03*
X594360Y246380D03*
X594360Y271780D03*
X619760Y246380D03*
X619760Y271780D03*
X645160Y246380D03*
X645160Y271780D03*
X670560Y246380D03*
X670560Y271780D03*
X695960Y246380D03*
X695960Y271780D03*
X721360Y246380D03*
X721360Y271780D03*
X746760Y246380D03*
X746760Y271780D03*
D12*
X746760Y58420D03*
D13*
X746760Y33020D03*
X721360Y58420D03*
X721360Y33020D03*
X695960Y58420D03*
X695960Y33020D03*
X670560Y58420D03*
X670560Y33020D03*
X645160Y58420D03*
X645160Y33020D03*
X619760Y58420D03*
X619760Y33020D03*
X594360Y58420D03*
X594360Y33020D03*
X568960Y58420D03*
X568960Y33020D03*
X543560Y58420D03*
X543560Y33020D03*
X518160Y58420D03*
X518160Y33020D03*
X492760Y58420D03*
X492760Y33020D03*
X467360Y58420D03*
X467360Y33020D03*
D14*
X138900Y50000D03*
D15*
X188900Y50000D03*
X188900Y100000D03*
X138900Y100000D03*
D14*
X316700Y50000D03*
D15*
X366700Y50000D03*
X366700Y100000D03*
X316700Y100000D03*
D16*
X101600Y215900D03*
X127000Y215900D03*
X101600Y254000D03*
X127000Y254000D03*
D17*
X546100Y304800D03*
X520700Y304800D03*
X393700Y228600D03*
X368300Y228600D03*
D11*
X139700Y335280D02*
X139700Y350520D01*
X165100Y350520D02*
X165100Y335280D01*
X190500Y335280D02*
X190500Y350520D01*
X215900Y350520D02*
X215900Y335280D01*
X241300Y335280D02*
X241300Y350520D01*
D18*
X596900Y349504D02*
X596900Y336296D01*
X546100Y336296D02*
X546100Y349504D01*
X571500Y349504D02*
X571500Y336296D01*
D17*
X744220Y330200D03*
X652780Y330200D03*
D19*
X812800Y266700D03*
D20*
X812800Y228600D03*
D18*
X774700Y159004D02*
X774700Y145796D01*
X774700Y221996D02*
X774700Y235204D01*
D21*
X774700Y121920D03*
X774700Y30480D03*
D16*
X812800Y152400D03*
X838200Y152400D03*
D22*
X482600Y101600D03*
X50800Y279400D03*
D23*
X743712Y246888D02*
X746760Y246888D01*
X743712Y246888D02*
X734568Y256032D01*
X734568Y277368D01*
X726948Y284988D01*
X574548Y284988D01*
X746760Y246888D02*
X746760Y246380D01*
D24*
X574548Y284988D03*
D23*
X467868Y163068D02*
X467868Y138684D01*
X467868Y163068D02*
X454152Y176784D01*
X452628Y176784D01*
X445008Y184404D01*
X445008Y190500D01*
X444500Y190500D01*
X431292Y332232D02*
X431292Y342900D01*
X431292Y332232D02*
X403860Y304800D01*
X403860Y239268D01*
X393192Y228600D01*
X431292Y342900D02*
X431800Y342900D01*
X393700Y228600D02*
X393192Y228600D01*
D24*
X467868Y138684D03*
M02*
