G04 EAGLE Gerber RS-274X export*
G75*
%MOMM*%
%FSLAX34Y34*%
%LPD*%
%INSilkscreen Top*%
%IPPOS*%
%AMOC8*
5,1,8,0,0,1.08239X$1,22.5*%
G01*
%ADD10C,0.152400*%
%ADD11C,0.127000*%
%ADD12C,0.177800*%
%ADD13C,0.101600*%
%ADD14C,0.200000*%
%ADD15C,0.254000*%


D10*
X101600Y76200D02*
X101619Y77758D01*
X101676Y79316D01*
X101772Y80871D01*
X101906Y82424D01*
X102078Y83973D01*
X102287Y85517D01*
X102535Y87056D01*
X102820Y88588D01*
X103143Y90113D01*
X103503Y91629D01*
X103900Y93136D01*
X104334Y94633D01*
X104805Y96119D01*
X105312Y97593D01*
X105855Y99053D01*
X106434Y100500D01*
X107048Y101933D01*
X107697Y103350D01*
X108380Y104750D01*
X109098Y106134D01*
X109849Y107499D01*
X110634Y108846D01*
X111452Y110172D01*
X112302Y111479D01*
X113183Y112764D01*
X114096Y114027D01*
X115040Y115267D01*
X116014Y116484D01*
X117017Y117676D01*
X118050Y118844D01*
X119110Y119986D01*
X120199Y121101D01*
X121314Y122190D01*
X122456Y123250D01*
X123624Y124283D01*
X124816Y125286D01*
X126033Y126260D01*
X127273Y127204D01*
X128536Y128117D01*
X129821Y128998D01*
X131128Y129848D01*
X132454Y130666D01*
X133801Y131451D01*
X135166Y132202D01*
X136550Y132920D01*
X137950Y133603D01*
X139367Y134252D01*
X140800Y134866D01*
X142247Y135445D01*
X143707Y135988D01*
X145181Y136495D01*
X146667Y136966D01*
X148164Y137400D01*
X149671Y137797D01*
X151187Y138157D01*
X152712Y138480D01*
X154244Y138765D01*
X155783Y139013D01*
X157327Y139222D01*
X158876Y139394D01*
X160429Y139528D01*
X161984Y139624D01*
X163542Y139681D01*
X165100Y139700D01*
X166658Y139681D01*
X168216Y139624D01*
X169771Y139528D01*
X171324Y139394D01*
X172873Y139222D01*
X174417Y139013D01*
X175956Y138765D01*
X177488Y138480D01*
X179013Y138157D01*
X180529Y137797D01*
X182036Y137400D01*
X183533Y136966D01*
X185019Y136495D01*
X186493Y135988D01*
X187953Y135445D01*
X189400Y134866D01*
X190833Y134252D01*
X192250Y133603D01*
X193650Y132920D01*
X195034Y132202D01*
X196399Y131451D01*
X197746Y130666D01*
X199072Y129848D01*
X200379Y128998D01*
X201664Y128117D01*
X202927Y127204D01*
X204167Y126260D01*
X205384Y125286D01*
X206576Y124283D01*
X207744Y123250D01*
X208886Y122190D01*
X210001Y121101D01*
X211090Y119986D01*
X212150Y118844D01*
X213183Y117676D01*
X214186Y116484D01*
X215160Y115267D01*
X216104Y114027D01*
X217017Y112764D01*
X217898Y111479D01*
X218748Y110172D01*
X219566Y108846D01*
X220351Y107499D01*
X221102Y106134D01*
X221820Y104750D01*
X222503Y103350D01*
X223152Y101933D01*
X223766Y100500D01*
X224345Y99053D01*
X224888Y97593D01*
X225395Y96119D01*
X225866Y94633D01*
X226300Y93136D01*
X226697Y91629D01*
X227057Y90113D01*
X227380Y88588D01*
X227665Y87056D01*
X227913Y85517D01*
X228122Y83973D01*
X228294Y82424D01*
X228428Y80871D01*
X228524Y79316D01*
X228581Y77758D01*
X228600Y76200D01*
X228581Y74642D01*
X228524Y73084D01*
X228428Y71529D01*
X228294Y69976D01*
X228122Y68427D01*
X227913Y66883D01*
X227665Y65344D01*
X227380Y63812D01*
X227057Y62287D01*
X226697Y60771D01*
X226300Y59264D01*
X225866Y57767D01*
X225395Y56281D01*
X224888Y54807D01*
X224345Y53347D01*
X223766Y51900D01*
X223152Y50467D01*
X222503Y49050D01*
X221820Y47650D01*
X221102Y46266D01*
X220351Y44901D01*
X219566Y43554D01*
X218748Y42228D01*
X217898Y40921D01*
X217017Y39636D01*
X216104Y38373D01*
X215160Y37133D01*
X214186Y35916D01*
X213183Y34724D01*
X212150Y33556D01*
X211090Y32414D01*
X210001Y31299D01*
X208886Y30210D01*
X207744Y29150D01*
X206576Y28117D01*
X205384Y27114D01*
X204167Y26140D01*
X202927Y25196D01*
X201664Y24283D01*
X200379Y23402D01*
X199072Y22552D01*
X197746Y21734D01*
X196399Y20949D01*
X195034Y20198D01*
X193650Y19480D01*
X192250Y18797D01*
X190833Y18148D01*
X189400Y17534D01*
X187953Y16955D01*
X186493Y16412D01*
X185019Y15905D01*
X183533Y15434D01*
X182036Y15000D01*
X180529Y14603D01*
X179013Y14243D01*
X177488Y13920D01*
X175956Y13635D01*
X174417Y13387D01*
X172873Y13178D01*
X171324Y13006D01*
X169771Y12872D01*
X168216Y12776D01*
X166658Y12719D01*
X165100Y12700D01*
X163542Y12719D01*
X161984Y12776D01*
X160429Y12872D01*
X158876Y13006D01*
X157327Y13178D01*
X155783Y13387D01*
X154244Y13635D01*
X152712Y13920D01*
X151187Y14243D01*
X149671Y14603D01*
X148164Y15000D01*
X146667Y15434D01*
X145181Y15905D01*
X143707Y16412D01*
X142247Y16955D01*
X140800Y17534D01*
X139367Y18148D01*
X137950Y18797D01*
X136550Y19480D01*
X135166Y20198D01*
X133801Y20949D01*
X132454Y21734D01*
X131128Y22552D01*
X129821Y23402D01*
X128536Y24283D01*
X127273Y25196D01*
X126033Y26140D01*
X124816Y27114D01*
X123624Y28117D01*
X122456Y29150D01*
X121314Y30210D01*
X120199Y31299D01*
X119110Y32414D01*
X118050Y33556D01*
X117017Y34724D01*
X116014Y35916D01*
X115040Y37133D01*
X114096Y38373D01*
X113183Y39636D01*
X112302Y40921D01*
X111452Y42228D01*
X110634Y43554D01*
X109849Y44901D01*
X109098Y46266D01*
X108380Y47650D01*
X107697Y49050D01*
X107048Y50467D01*
X106434Y51900D01*
X105855Y53347D01*
X105312Y54807D01*
X104805Y56281D01*
X104334Y57767D01*
X103900Y59264D01*
X103503Y60771D01*
X103143Y62287D01*
X102820Y63812D01*
X102535Y65344D01*
X102287Y66883D01*
X102078Y68427D01*
X101906Y69976D01*
X101772Y71529D01*
X101676Y73084D01*
X101619Y74642D01*
X101600Y76200D01*
X279400Y76200D02*
X279419Y77758D01*
X279476Y79316D01*
X279572Y80871D01*
X279706Y82424D01*
X279878Y83973D01*
X280087Y85517D01*
X280335Y87056D01*
X280620Y88588D01*
X280943Y90113D01*
X281303Y91629D01*
X281700Y93136D01*
X282134Y94633D01*
X282605Y96119D01*
X283112Y97593D01*
X283655Y99053D01*
X284234Y100500D01*
X284848Y101933D01*
X285497Y103350D01*
X286180Y104750D01*
X286898Y106134D01*
X287649Y107499D01*
X288434Y108846D01*
X289252Y110172D01*
X290102Y111479D01*
X290983Y112764D01*
X291896Y114027D01*
X292840Y115267D01*
X293814Y116484D01*
X294817Y117676D01*
X295850Y118844D01*
X296910Y119986D01*
X297999Y121101D01*
X299114Y122190D01*
X300256Y123250D01*
X301424Y124283D01*
X302616Y125286D01*
X303833Y126260D01*
X305073Y127204D01*
X306336Y128117D01*
X307621Y128998D01*
X308928Y129848D01*
X310254Y130666D01*
X311601Y131451D01*
X312966Y132202D01*
X314350Y132920D01*
X315750Y133603D01*
X317167Y134252D01*
X318600Y134866D01*
X320047Y135445D01*
X321507Y135988D01*
X322981Y136495D01*
X324467Y136966D01*
X325964Y137400D01*
X327471Y137797D01*
X328987Y138157D01*
X330512Y138480D01*
X332044Y138765D01*
X333583Y139013D01*
X335127Y139222D01*
X336676Y139394D01*
X338229Y139528D01*
X339784Y139624D01*
X341342Y139681D01*
X342900Y139700D01*
X344458Y139681D01*
X346016Y139624D01*
X347571Y139528D01*
X349124Y139394D01*
X350673Y139222D01*
X352217Y139013D01*
X353756Y138765D01*
X355288Y138480D01*
X356813Y138157D01*
X358329Y137797D01*
X359836Y137400D01*
X361333Y136966D01*
X362819Y136495D01*
X364293Y135988D01*
X365753Y135445D01*
X367200Y134866D01*
X368633Y134252D01*
X370050Y133603D01*
X371450Y132920D01*
X372834Y132202D01*
X374199Y131451D01*
X375546Y130666D01*
X376872Y129848D01*
X378179Y128998D01*
X379464Y128117D01*
X380727Y127204D01*
X381967Y126260D01*
X383184Y125286D01*
X384376Y124283D01*
X385544Y123250D01*
X386686Y122190D01*
X387801Y121101D01*
X388890Y119986D01*
X389950Y118844D01*
X390983Y117676D01*
X391986Y116484D01*
X392960Y115267D01*
X393904Y114027D01*
X394817Y112764D01*
X395698Y111479D01*
X396548Y110172D01*
X397366Y108846D01*
X398151Y107499D01*
X398902Y106134D01*
X399620Y104750D01*
X400303Y103350D01*
X400952Y101933D01*
X401566Y100500D01*
X402145Y99053D01*
X402688Y97593D01*
X403195Y96119D01*
X403666Y94633D01*
X404100Y93136D01*
X404497Y91629D01*
X404857Y90113D01*
X405180Y88588D01*
X405465Y87056D01*
X405713Y85517D01*
X405922Y83973D01*
X406094Y82424D01*
X406228Y80871D01*
X406324Y79316D01*
X406381Y77758D01*
X406400Y76200D01*
X406381Y74642D01*
X406324Y73084D01*
X406228Y71529D01*
X406094Y69976D01*
X405922Y68427D01*
X405713Y66883D01*
X405465Y65344D01*
X405180Y63812D01*
X404857Y62287D01*
X404497Y60771D01*
X404100Y59264D01*
X403666Y57767D01*
X403195Y56281D01*
X402688Y54807D01*
X402145Y53347D01*
X401566Y51900D01*
X400952Y50467D01*
X400303Y49050D01*
X399620Y47650D01*
X398902Y46266D01*
X398151Y44901D01*
X397366Y43554D01*
X396548Y42228D01*
X395698Y40921D01*
X394817Y39636D01*
X393904Y38373D01*
X392960Y37133D01*
X391986Y35916D01*
X390983Y34724D01*
X389950Y33556D01*
X388890Y32414D01*
X387801Y31299D01*
X386686Y30210D01*
X385544Y29150D01*
X384376Y28117D01*
X383184Y27114D01*
X381967Y26140D01*
X380727Y25196D01*
X379464Y24283D01*
X378179Y23402D01*
X376872Y22552D01*
X375546Y21734D01*
X374199Y20949D01*
X372834Y20198D01*
X371450Y19480D01*
X370050Y18797D01*
X368633Y18148D01*
X367200Y17534D01*
X365753Y16955D01*
X364293Y16412D01*
X362819Y15905D01*
X361333Y15434D01*
X359836Y15000D01*
X358329Y14603D01*
X356813Y14243D01*
X355288Y13920D01*
X353756Y13635D01*
X352217Y13387D01*
X350673Y13178D01*
X349124Y13006D01*
X347571Y12872D01*
X346016Y12776D01*
X344458Y12719D01*
X342900Y12700D01*
X341342Y12719D01*
X339784Y12776D01*
X338229Y12872D01*
X336676Y13006D01*
X335127Y13178D01*
X333583Y13387D01*
X332044Y13635D01*
X330512Y13920D01*
X328987Y14243D01*
X327471Y14603D01*
X325964Y15000D01*
X324467Y15434D01*
X322981Y15905D01*
X321507Y16412D01*
X320047Y16955D01*
X318600Y17534D01*
X317167Y18148D01*
X315750Y18797D01*
X314350Y19480D01*
X312966Y20198D01*
X311601Y20949D01*
X310254Y21734D01*
X308928Y22552D01*
X307621Y23402D01*
X306336Y24283D01*
X305073Y25196D01*
X303833Y26140D01*
X302616Y27114D01*
X301424Y28117D01*
X300256Y29150D01*
X299114Y30210D01*
X297999Y31299D01*
X296910Y32414D01*
X295850Y33556D01*
X294817Y34724D01*
X293814Y35916D01*
X292840Y37133D01*
X291896Y38373D01*
X290983Y39636D01*
X290102Y40921D01*
X289252Y42228D01*
X288434Y43554D01*
X287649Y44901D01*
X286898Y46266D01*
X286180Y47650D01*
X285497Y49050D01*
X284848Y50467D01*
X284234Y51900D01*
X283655Y53347D01*
X283112Y54807D01*
X282605Y56281D01*
X282134Y57767D01*
X281700Y59264D01*
X281303Y60771D01*
X280943Y62287D01*
X280620Y63812D01*
X280335Y65344D01*
X280087Y66883D01*
X279878Y68427D01*
X279706Y69976D01*
X279572Y71529D01*
X279476Y73084D01*
X279419Y74642D01*
X279400Y76200D01*
X113199Y311884D02*
X102362Y311884D01*
X107781Y317302D02*
X107781Y306465D01*
X119938Y305562D02*
X125357Y305562D01*
X125475Y305564D01*
X125593Y305570D01*
X125711Y305579D01*
X125828Y305593D01*
X125945Y305610D01*
X126062Y305631D01*
X126177Y305656D01*
X126292Y305685D01*
X126406Y305718D01*
X126518Y305754D01*
X126629Y305794D01*
X126739Y305837D01*
X126848Y305884D01*
X126955Y305934D01*
X127060Y305989D01*
X127163Y306046D01*
X127264Y306107D01*
X127364Y306171D01*
X127461Y306238D01*
X127556Y306308D01*
X127648Y306382D01*
X127739Y306458D01*
X127826Y306538D01*
X127911Y306620D01*
X127993Y306705D01*
X128073Y306792D01*
X128149Y306883D01*
X128223Y306975D01*
X128293Y307070D01*
X128360Y307167D01*
X128424Y307267D01*
X128485Y307368D01*
X128542Y307471D01*
X128597Y307576D01*
X128647Y307683D01*
X128694Y307792D01*
X128737Y307902D01*
X128777Y308013D01*
X128813Y308125D01*
X128846Y308239D01*
X128875Y308354D01*
X128900Y308469D01*
X128921Y308586D01*
X128938Y308703D01*
X128952Y308820D01*
X128961Y308938D01*
X128967Y309056D01*
X128969Y309174D01*
X128970Y309174D02*
X128970Y310981D01*
X128969Y310981D02*
X128967Y311099D01*
X128961Y311217D01*
X128952Y311335D01*
X128938Y311452D01*
X128921Y311569D01*
X128900Y311686D01*
X128875Y311801D01*
X128846Y311916D01*
X128813Y312030D01*
X128777Y312142D01*
X128737Y312253D01*
X128694Y312363D01*
X128647Y312472D01*
X128597Y312579D01*
X128542Y312684D01*
X128485Y312787D01*
X128424Y312888D01*
X128360Y312988D01*
X128293Y313085D01*
X128223Y313180D01*
X128149Y313272D01*
X128073Y313363D01*
X127993Y313450D01*
X127911Y313535D01*
X127826Y313617D01*
X127739Y313697D01*
X127648Y313773D01*
X127556Y313847D01*
X127461Y313917D01*
X127364Y313984D01*
X127264Y314048D01*
X127163Y314109D01*
X127060Y314166D01*
X126955Y314221D01*
X126848Y314271D01*
X126739Y314318D01*
X126629Y314361D01*
X126518Y314401D01*
X126406Y314437D01*
X126292Y314470D01*
X126177Y314499D01*
X126062Y314524D01*
X125945Y314545D01*
X125828Y314562D01*
X125711Y314576D01*
X125593Y314585D01*
X125475Y314591D01*
X125357Y314593D01*
X119938Y314593D01*
X119938Y321818D01*
X128970Y321818D01*
X134667Y321818D02*
X140085Y305562D01*
X145504Y321818D01*
X172184Y314593D02*
X174893Y314593D01*
X174893Y305562D01*
X169474Y305562D01*
X169356Y305564D01*
X169238Y305570D01*
X169120Y305579D01*
X169003Y305593D01*
X168886Y305610D01*
X168769Y305631D01*
X168654Y305656D01*
X168539Y305685D01*
X168425Y305718D01*
X168313Y305754D01*
X168202Y305794D01*
X168092Y305837D01*
X167983Y305884D01*
X167876Y305934D01*
X167771Y305989D01*
X167668Y306046D01*
X167567Y306107D01*
X167467Y306171D01*
X167370Y306238D01*
X167275Y306308D01*
X167183Y306382D01*
X167092Y306458D01*
X167005Y306538D01*
X166920Y306620D01*
X166838Y306705D01*
X166758Y306792D01*
X166682Y306883D01*
X166608Y306975D01*
X166538Y307070D01*
X166471Y307167D01*
X166407Y307267D01*
X166346Y307368D01*
X166289Y307471D01*
X166234Y307576D01*
X166184Y307683D01*
X166137Y307792D01*
X166094Y307902D01*
X166054Y308013D01*
X166018Y308125D01*
X165985Y308239D01*
X165956Y308354D01*
X165931Y308469D01*
X165910Y308586D01*
X165893Y308703D01*
X165879Y308820D01*
X165870Y308938D01*
X165864Y309056D01*
X165862Y309174D01*
X165862Y318206D01*
X165864Y318324D01*
X165870Y318442D01*
X165879Y318560D01*
X165893Y318677D01*
X165910Y318794D01*
X165931Y318911D01*
X165956Y319026D01*
X165985Y319141D01*
X166018Y319255D01*
X166054Y319367D01*
X166094Y319478D01*
X166137Y319588D01*
X166184Y319697D01*
X166234Y319804D01*
X166288Y319909D01*
X166346Y320012D01*
X166407Y320113D01*
X166471Y320213D01*
X166538Y320310D01*
X166608Y320405D01*
X166682Y320497D01*
X166758Y320588D01*
X166838Y320675D01*
X166920Y320760D01*
X167005Y320842D01*
X167092Y320922D01*
X167183Y320998D01*
X167275Y321072D01*
X167370Y321142D01*
X167467Y321209D01*
X167567Y321273D01*
X167668Y321334D01*
X167771Y321391D01*
X167876Y321445D01*
X167983Y321496D01*
X168092Y321543D01*
X168202Y321586D01*
X168313Y321626D01*
X168425Y321662D01*
X168539Y321695D01*
X168654Y321724D01*
X168769Y321749D01*
X168886Y321770D01*
X169003Y321787D01*
X169120Y321801D01*
X169238Y321810D01*
X169356Y321816D01*
X169474Y321818D01*
X174893Y321818D01*
X182535Y321818D02*
X182535Y305562D01*
X191566Y305562D02*
X182535Y321818D01*
X191566Y321818D02*
X191566Y305562D01*
X199209Y305562D02*
X199209Y321818D01*
X203724Y321818D01*
X203855Y321816D01*
X203987Y321810D01*
X204118Y321801D01*
X204248Y321787D01*
X204379Y321770D01*
X204508Y321749D01*
X204637Y321725D01*
X204765Y321696D01*
X204893Y321664D01*
X205019Y321628D01*
X205144Y321589D01*
X205269Y321546D01*
X205391Y321499D01*
X205513Y321449D01*
X205633Y321395D01*
X205751Y321338D01*
X205867Y321277D01*
X205982Y321213D01*
X206095Y321146D01*
X206206Y321075D01*
X206314Y321001D01*
X206421Y320924D01*
X206525Y320844D01*
X206627Y320761D01*
X206726Y320676D01*
X206823Y320587D01*
X206917Y320495D01*
X207009Y320401D01*
X207098Y320304D01*
X207183Y320205D01*
X207266Y320103D01*
X207346Y319999D01*
X207423Y319892D01*
X207497Y319784D01*
X207568Y319673D01*
X207635Y319560D01*
X207699Y319445D01*
X207760Y319329D01*
X207817Y319211D01*
X207871Y319091D01*
X207921Y318969D01*
X207968Y318847D01*
X208011Y318722D01*
X208050Y318597D01*
X208086Y318471D01*
X208118Y318343D01*
X208147Y318215D01*
X208171Y318086D01*
X208192Y317957D01*
X208209Y317826D01*
X208223Y317696D01*
X208232Y317565D01*
X208238Y317433D01*
X208240Y317302D01*
X208240Y310078D01*
X208238Y309947D01*
X208232Y309815D01*
X208223Y309684D01*
X208209Y309554D01*
X208192Y309423D01*
X208171Y309294D01*
X208147Y309165D01*
X208118Y309037D01*
X208086Y308909D01*
X208050Y308783D01*
X208011Y308658D01*
X207968Y308533D01*
X207921Y308411D01*
X207871Y308289D01*
X207817Y308169D01*
X207760Y308051D01*
X207699Y307935D01*
X207635Y307820D01*
X207568Y307707D01*
X207497Y307596D01*
X207423Y307488D01*
X207346Y307381D01*
X207266Y307277D01*
X207183Y307175D01*
X207098Y307076D01*
X207009Y306979D01*
X206917Y306885D01*
X206823Y306793D01*
X206726Y306704D01*
X206627Y306619D01*
X206525Y306536D01*
X206421Y306456D01*
X206314Y306379D01*
X206206Y306305D01*
X206095Y306234D01*
X205982Y306167D01*
X205867Y306103D01*
X205751Y306042D01*
X205633Y305985D01*
X205513Y305931D01*
X205391Y305881D01*
X205269Y305834D01*
X205144Y305791D01*
X205019Y305752D01*
X204893Y305716D01*
X204765Y305684D01*
X204637Y305655D01*
X204508Y305631D01*
X204378Y305610D01*
X204248Y305593D01*
X204118Y305579D01*
X203987Y305570D01*
X203855Y305564D01*
X203724Y305562D01*
X199209Y305562D01*
X442722Y334744D02*
X453559Y334744D01*
X448141Y329325D02*
X448141Y340162D01*
X460298Y328422D02*
X465717Y328422D01*
X465835Y328424D01*
X465953Y328430D01*
X466071Y328439D01*
X466188Y328453D01*
X466305Y328470D01*
X466422Y328491D01*
X466537Y328516D01*
X466652Y328545D01*
X466766Y328578D01*
X466878Y328614D01*
X466989Y328654D01*
X467099Y328697D01*
X467208Y328744D01*
X467315Y328794D01*
X467420Y328849D01*
X467523Y328906D01*
X467624Y328967D01*
X467724Y329031D01*
X467821Y329098D01*
X467916Y329168D01*
X468008Y329242D01*
X468099Y329318D01*
X468186Y329398D01*
X468271Y329480D01*
X468353Y329565D01*
X468433Y329652D01*
X468509Y329743D01*
X468583Y329835D01*
X468653Y329930D01*
X468720Y330027D01*
X468784Y330127D01*
X468845Y330228D01*
X468902Y330331D01*
X468957Y330436D01*
X469007Y330543D01*
X469054Y330652D01*
X469097Y330762D01*
X469137Y330873D01*
X469173Y330985D01*
X469206Y331099D01*
X469235Y331214D01*
X469260Y331329D01*
X469281Y331446D01*
X469298Y331563D01*
X469312Y331680D01*
X469321Y331798D01*
X469327Y331916D01*
X469329Y332034D01*
X469330Y332034D02*
X469330Y333841D01*
X469329Y333841D02*
X469327Y333959D01*
X469321Y334077D01*
X469312Y334195D01*
X469298Y334312D01*
X469281Y334429D01*
X469260Y334546D01*
X469235Y334661D01*
X469206Y334776D01*
X469173Y334890D01*
X469137Y335002D01*
X469097Y335113D01*
X469054Y335223D01*
X469007Y335332D01*
X468957Y335439D01*
X468902Y335544D01*
X468845Y335647D01*
X468784Y335748D01*
X468720Y335848D01*
X468653Y335945D01*
X468583Y336040D01*
X468509Y336132D01*
X468433Y336223D01*
X468353Y336310D01*
X468271Y336395D01*
X468186Y336477D01*
X468099Y336557D01*
X468008Y336633D01*
X467916Y336707D01*
X467821Y336777D01*
X467724Y336844D01*
X467624Y336908D01*
X467523Y336969D01*
X467420Y337026D01*
X467315Y337081D01*
X467208Y337131D01*
X467099Y337178D01*
X466989Y337221D01*
X466878Y337261D01*
X466766Y337297D01*
X466652Y337330D01*
X466537Y337359D01*
X466422Y337384D01*
X466305Y337405D01*
X466188Y337422D01*
X466071Y337436D01*
X465953Y337445D01*
X465835Y337451D01*
X465717Y337453D01*
X460298Y337453D01*
X460298Y344678D01*
X469330Y344678D01*
X475027Y344678D02*
X480445Y328422D01*
X485864Y344678D01*
X327293Y355233D02*
X324584Y355233D01*
X327293Y355233D02*
X327293Y346202D01*
X321874Y346202D01*
X321756Y346204D01*
X321638Y346210D01*
X321520Y346219D01*
X321403Y346233D01*
X321286Y346250D01*
X321169Y346271D01*
X321054Y346296D01*
X320939Y346325D01*
X320825Y346358D01*
X320713Y346394D01*
X320602Y346434D01*
X320492Y346477D01*
X320383Y346524D01*
X320276Y346574D01*
X320171Y346629D01*
X320068Y346686D01*
X319967Y346747D01*
X319867Y346811D01*
X319770Y346878D01*
X319675Y346948D01*
X319583Y347022D01*
X319492Y347098D01*
X319405Y347178D01*
X319320Y347260D01*
X319238Y347345D01*
X319158Y347432D01*
X319082Y347523D01*
X319008Y347615D01*
X318938Y347710D01*
X318871Y347807D01*
X318807Y347907D01*
X318746Y348008D01*
X318689Y348111D01*
X318634Y348216D01*
X318584Y348323D01*
X318537Y348432D01*
X318494Y348542D01*
X318454Y348653D01*
X318418Y348765D01*
X318385Y348879D01*
X318356Y348994D01*
X318331Y349109D01*
X318310Y349226D01*
X318293Y349343D01*
X318279Y349460D01*
X318270Y349578D01*
X318264Y349696D01*
X318262Y349814D01*
X318262Y358846D01*
X318264Y358964D01*
X318270Y359082D01*
X318279Y359200D01*
X318293Y359317D01*
X318310Y359434D01*
X318331Y359551D01*
X318356Y359666D01*
X318385Y359781D01*
X318418Y359895D01*
X318454Y360007D01*
X318494Y360118D01*
X318537Y360228D01*
X318584Y360337D01*
X318634Y360444D01*
X318688Y360549D01*
X318746Y360652D01*
X318807Y360753D01*
X318871Y360853D01*
X318938Y360950D01*
X319008Y361045D01*
X319082Y361137D01*
X319158Y361228D01*
X319238Y361315D01*
X319320Y361400D01*
X319405Y361482D01*
X319492Y361562D01*
X319583Y361638D01*
X319675Y361712D01*
X319770Y361782D01*
X319867Y361849D01*
X319967Y361913D01*
X320068Y361974D01*
X320171Y362031D01*
X320276Y362085D01*
X320383Y362136D01*
X320492Y362183D01*
X320602Y362226D01*
X320713Y362266D01*
X320825Y362302D01*
X320939Y362335D01*
X321054Y362364D01*
X321169Y362389D01*
X321286Y362410D01*
X321403Y362427D01*
X321520Y362441D01*
X321638Y362450D01*
X321756Y362456D01*
X321874Y362458D01*
X327293Y362458D01*
X334935Y362458D02*
X334935Y346202D01*
X343966Y346202D02*
X334935Y362458D01*
X343966Y362458D02*
X343966Y346202D01*
X351609Y346202D02*
X351609Y362458D01*
X356124Y362458D01*
X356255Y362456D01*
X356387Y362450D01*
X356518Y362441D01*
X356648Y362427D01*
X356779Y362410D01*
X356908Y362389D01*
X357037Y362365D01*
X357165Y362336D01*
X357293Y362304D01*
X357419Y362268D01*
X357544Y362229D01*
X357669Y362186D01*
X357791Y362139D01*
X357913Y362089D01*
X358033Y362035D01*
X358151Y361978D01*
X358267Y361917D01*
X358382Y361853D01*
X358495Y361786D01*
X358606Y361715D01*
X358714Y361641D01*
X358821Y361564D01*
X358925Y361484D01*
X359027Y361401D01*
X359126Y361316D01*
X359223Y361227D01*
X359317Y361135D01*
X359409Y361041D01*
X359498Y360944D01*
X359583Y360845D01*
X359666Y360743D01*
X359746Y360639D01*
X359823Y360532D01*
X359897Y360424D01*
X359968Y360313D01*
X360035Y360200D01*
X360099Y360085D01*
X360160Y359969D01*
X360217Y359851D01*
X360271Y359731D01*
X360321Y359609D01*
X360368Y359487D01*
X360411Y359362D01*
X360450Y359237D01*
X360486Y359111D01*
X360518Y358983D01*
X360547Y358855D01*
X360571Y358726D01*
X360592Y358597D01*
X360609Y358466D01*
X360623Y358336D01*
X360632Y358205D01*
X360638Y358073D01*
X360640Y357942D01*
X360640Y350718D01*
X360638Y350587D01*
X360632Y350455D01*
X360623Y350324D01*
X360609Y350194D01*
X360592Y350063D01*
X360571Y349934D01*
X360547Y349805D01*
X360518Y349677D01*
X360486Y349549D01*
X360450Y349423D01*
X360411Y349298D01*
X360368Y349173D01*
X360321Y349051D01*
X360271Y348929D01*
X360217Y348809D01*
X360160Y348691D01*
X360099Y348575D01*
X360035Y348460D01*
X359968Y348347D01*
X359897Y348236D01*
X359823Y348128D01*
X359746Y348021D01*
X359666Y347917D01*
X359583Y347815D01*
X359498Y347716D01*
X359409Y347619D01*
X359317Y347525D01*
X359223Y347433D01*
X359126Y347344D01*
X359027Y347259D01*
X358925Y347176D01*
X358821Y347096D01*
X358714Y347019D01*
X358606Y346945D01*
X358495Y346874D01*
X358382Y346807D01*
X358267Y346743D01*
X358151Y346682D01*
X358033Y346625D01*
X357913Y346571D01*
X357791Y346521D01*
X357669Y346474D01*
X357544Y346431D01*
X357419Y346392D01*
X357293Y346356D01*
X357165Y346324D01*
X357037Y346295D01*
X356908Y346271D01*
X356778Y346250D01*
X356648Y346233D01*
X356518Y346219D01*
X356387Y346210D01*
X356255Y346204D01*
X356124Y346202D01*
X351609Y346202D01*
D11*
X498700Y314500D02*
X498700Y303500D01*
X498700Y314500D02*
X541700Y314500D01*
X541700Y303500D01*
X542700Y303500D01*
X517700Y351500D02*
X517700Y380500D01*
X517700Y351500D02*
X523700Y351500D01*
X523700Y380500D01*
D12*
X526449Y302269D02*
X534746Y302269D01*
X530598Y298120D02*
X530598Y306418D01*
X515596Y304269D02*
X507299Y304269D01*
D13*
X499401Y280008D02*
X496804Y280008D01*
X496705Y280010D01*
X496605Y280016D01*
X496506Y280025D01*
X496408Y280038D01*
X496310Y280055D01*
X496212Y280076D01*
X496116Y280101D01*
X496021Y280129D01*
X495927Y280161D01*
X495834Y280196D01*
X495742Y280235D01*
X495652Y280278D01*
X495564Y280323D01*
X495477Y280373D01*
X495393Y280425D01*
X495310Y280481D01*
X495230Y280539D01*
X495152Y280601D01*
X495077Y280666D01*
X495004Y280734D01*
X494934Y280804D01*
X494866Y280877D01*
X494801Y280952D01*
X494739Y281030D01*
X494681Y281110D01*
X494625Y281193D01*
X494573Y281277D01*
X494523Y281364D01*
X494478Y281452D01*
X494435Y281542D01*
X494396Y281634D01*
X494361Y281727D01*
X494329Y281821D01*
X494301Y281916D01*
X494276Y282012D01*
X494255Y282110D01*
X494238Y282208D01*
X494225Y282306D01*
X494216Y282405D01*
X494210Y282505D01*
X494208Y282604D01*
X494208Y289096D01*
X494210Y289195D01*
X494216Y289295D01*
X494225Y289394D01*
X494238Y289492D01*
X494255Y289590D01*
X494276Y289688D01*
X494301Y289784D01*
X494329Y289879D01*
X494361Y289973D01*
X494396Y290066D01*
X494435Y290158D01*
X494478Y290248D01*
X494523Y290336D01*
X494573Y290423D01*
X494625Y290507D01*
X494681Y290590D01*
X494739Y290670D01*
X494801Y290748D01*
X494866Y290823D01*
X494934Y290896D01*
X495004Y290966D01*
X495077Y291034D01*
X495152Y291099D01*
X495230Y291161D01*
X495310Y291219D01*
X495393Y291275D01*
X495477Y291327D01*
X495564Y291377D01*
X495652Y291422D01*
X495742Y291465D01*
X495834Y291504D01*
X495926Y291539D01*
X496021Y291571D01*
X496116Y291599D01*
X496212Y291624D01*
X496310Y291645D01*
X496408Y291662D01*
X496506Y291675D01*
X496605Y291684D01*
X496705Y291690D01*
X496804Y291692D01*
X499401Y291692D01*
X504147Y291692D02*
X504147Y280008D01*
X510638Y280008D02*
X504147Y291692D01*
X510638Y291692D02*
X510638Y280008D01*
X515958Y289096D02*
X519204Y291692D01*
X519204Y280008D01*
X522449Y280008D02*
X515958Y280008D01*
D11*
X76280Y157160D02*
X34780Y157160D01*
X780Y157160D02*
X-19720Y157160D01*
X-19720Y244160D01*
X780Y244160D01*
X34780Y244160D02*
X76280Y244160D01*
X76280Y157160D01*
D14*
X84780Y216810D02*
X84782Y216899D01*
X84788Y216988D01*
X84798Y217077D01*
X84812Y217165D01*
X84829Y217252D01*
X84851Y217338D01*
X84877Y217424D01*
X84906Y217508D01*
X84939Y217591D01*
X84975Y217672D01*
X85016Y217752D01*
X85059Y217829D01*
X85106Y217905D01*
X85157Y217978D01*
X85210Y218049D01*
X85267Y218118D01*
X85327Y218184D01*
X85390Y218248D01*
X85455Y218308D01*
X85523Y218366D01*
X85594Y218420D01*
X85667Y218471D01*
X85742Y218519D01*
X85819Y218564D01*
X85898Y218605D01*
X85979Y218642D01*
X86061Y218676D01*
X86145Y218707D01*
X86230Y218733D01*
X86316Y218756D01*
X86403Y218774D01*
X86491Y218789D01*
X86580Y218800D01*
X86669Y218807D01*
X86758Y218810D01*
X86847Y218809D01*
X86936Y218804D01*
X87024Y218795D01*
X87113Y218782D01*
X87200Y218765D01*
X87287Y218745D01*
X87373Y218720D01*
X87457Y218692D01*
X87540Y218660D01*
X87622Y218624D01*
X87702Y218585D01*
X87780Y218542D01*
X87856Y218496D01*
X87930Y218446D01*
X88002Y218393D01*
X88071Y218337D01*
X88138Y218278D01*
X88202Y218216D01*
X88263Y218152D01*
X88322Y218084D01*
X88377Y218014D01*
X88429Y217942D01*
X88478Y217867D01*
X88523Y217791D01*
X88565Y217712D01*
X88603Y217632D01*
X88638Y217550D01*
X88669Y217466D01*
X88697Y217381D01*
X88720Y217295D01*
X88740Y217208D01*
X88756Y217121D01*
X88768Y217032D01*
X88776Y216944D01*
X88780Y216855D01*
X88780Y216765D01*
X88776Y216676D01*
X88768Y216588D01*
X88756Y216499D01*
X88740Y216412D01*
X88720Y216325D01*
X88697Y216239D01*
X88669Y216154D01*
X88638Y216070D01*
X88603Y215988D01*
X88565Y215908D01*
X88523Y215829D01*
X88478Y215753D01*
X88429Y215678D01*
X88377Y215606D01*
X88322Y215536D01*
X88263Y215468D01*
X88202Y215404D01*
X88138Y215342D01*
X88071Y215283D01*
X88002Y215227D01*
X87930Y215174D01*
X87856Y215124D01*
X87780Y215078D01*
X87702Y215035D01*
X87622Y214996D01*
X87540Y214960D01*
X87457Y214928D01*
X87373Y214900D01*
X87287Y214875D01*
X87200Y214855D01*
X87113Y214838D01*
X87024Y214825D01*
X86936Y214816D01*
X86847Y214811D01*
X86758Y214810D01*
X86669Y214813D01*
X86580Y214820D01*
X86491Y214831D01*
X86403Y214846D01*
X86316Y214864D01*
X86230Y214887D01*
X86145Y214913D01*
X86061Y214944D01*
X85979Y214978D01*
X85898Y215015D01*
X85819Y215056D01*
X85742Y215101D01*
X85667Y215149D01*
X85594Y215200D01*
X85523Y215254D01*
X85455Y215312D01*
X85390Y215372D01*
X85327Y215436D01*
X85267Y215502D01*
X85210Y215571D01*
X85157Y215642D01*
X85106Y215715D01*
X85059Y215791D01*
X85016Y215868D01*
X84975Y215948D01*
X84939Y216029D01*
X84906Y216112D01*
X84877Y216196D01*
X84851Y216282D01*
X84829Y216368D01*
X84812Y216455D01*
X84798Y216543D01*
X84788Y216632D01*
X84782Y216721D01*
X84780Y216810D01*
D10*
X61913Y143497D02*
X61913Y130840D01*
X61911Y130722D01*
X61905Y130604D01*
X61896Y130486D01*
X61882Y130368D01*
X61865Y130251D01*
X61844Y130135D01*
X61819Y130019D01*
X61790Y129904D01*
X61757Y129790D01*
X61721Y129678D01*
X61681Y129566D01*
X61638Y129456D01*
X61591Y129348D01*
X61540Y129241D01*
X61486Y129135D01*
X61429Y129032D01*
X61368Y128930D01*
X61304Y128831D01*
X61236Y128734D01*
X61166Y128639D01*
X61092Y128546D01*
X61016Y128456D01*
X60936Y128368D01*
X60854Y128283D01*
X60769Y128201D01*
X60681Y128121D01*
X60591Y128045D01*
X60498Y127971D01*
X60403Y127901D01*
X60306Y127833D01*
X60206Y127769D01*
X60105Y127708D01*
X60002Y127651D01*
X59896Y127597D01*
X59789Y127546D01*
X59681Y127499D01*
X59571Y127456D01*
X59459Y127416D01*
X59347Y127380D01*
X59233Y127347D01*
X59118Y127318D01*
X59002Y127293D01*
X58886Y127272D01*
X58769Y127255D01*
X58651Y127241D01*
X58533Y127232D01*
X58415Y127226D01*
X58297Y127224D01*
X56489Y127224D01*
X68984Y139880D02*
X73504Y143497D01*
X73504Y127224D01*
X68984Y127224D02*
X78024Y127224D01*
X374650Y355600D02*
X387350Y355600D01*
X393700Y349250D01*
X393700Y336550D01*
X387350Y330200D01*
X393700Y349250D02*
X400050Y355600D01*
X412750Y355600D01*
X419100Y349250D01*
X419100Y336550D01*
X412750Y330200D01*
X400050Y330200D01*
X393700Y336550D01*
X368300Y336550D02*
X368300Y349250D01*
X374650Y355600D01*
X368300Y336550D02*
X374650Y330200D01*
X387350Y330200D01*
X419100Y349250D02*
X425450Y355600D01*
X438150Y355600D01*
X444500Y349250D01*
X444500Y336550D01*
X438150Y330200D01*
X425450Y330200D01*
X419100Y336550D01*
D11*
X368173Y361823D02*
X368173Y373253D01*
X368173Y361823D02*
X373253Y361823D01*
X378079Y361823D02*
X383159Y361823D01*
X378079Y361823D02*
X378079Y373253D01*
X383159Y373253D01*
X381889Y368173D02*
X378079Y368173D01*
X387960Y373253D02*
X387960Y361823D01*
X387960Y373253D02*
X391135Y373253D01*
X391246Y373251D01*
X391356Y373245D01*
X391467Y373236D01*
X391577Y373222D01*
X391686Y373205D01*
X391795Y373184D01*
X391903Y373159D01*
X392010Y373130D01*
X392116Y373098D01*
X392221Y373062D01*
X392324Y373022D01*
X392426Y372979D01*
X392527Y372932D01*
X392626Y372881D01*
X392723Y372828D01*
X392817Y372771D01*
X392910Y372710D01*
X393001Y372647D01*
X393090Y372580D01*
X393176Y372510D01*
X393259Y372437D01*
X393341Y372362D01*
X393419Y372284D01*
X393494Y372202D01*
X393567Y372119D01*
X393637Y372033D01*
X393704Y371944D01*
X393767Y371853D01*
X393828Y371760D01*
X393885Y371666D01*
X393938Y371569D01*
X393989Y371470D01*
X394036Y371369D01*
X394079Y371267D01*
X394119Y371164D01*
X394155Y371059D01*
X394187Y370953D01*
X394216Y370846D01*
X394241Y370738D01*
X394262Y370629D01*
X394279Y370520D01*
X394293Y370410D01*
X394302Y370299D01*
X394308Y370189D01*
X394310Y370078D01*
X394310Y364998D01*
X394308Y364887D01*
X394302Y364777D01*
X394293Y364666D01*
X394279Y364556D01*
X394262Y364447D01*
X394241Y364338D01*
X394216Y364230D01*
X394187Y364123D01*
X394155Y364017D01*
X394119Y363912D01*
X394079Y363809D01*
X394036Y363707D01*
X393989Y363606D01*
X393938Y363507D01*
X393885Y363410D01*
X393828Y363316D01*
X393767Y363223D01*
X393704Y363132D01*
X393637Y363043D01*
X393567Y362957D01*
X393494Y362874D01*
X393419Y362792D01*
X393341Y362714D01*
X393259Y362639D01*
X393176Y362566D01*
X393090Y362496D01*
X393001Y362429D01*
X392910Y362366D01*
X392817Y362305D01*
X392723Y362248D01*
X392626Y362195D01*
X392527Y362144D01*
X392426Y362097D01*
X392324Y362054D01*
X392221Y362014D01*
X392116Y361978D01*
X392010Y361946D01*
X391903Y361917D01*
X391795Y361892D01*
X391686Y361871D01*
X391577Y361854D01*
X391467Y361840D01*
X391356Y361831D01*
X391246Y361825D01*
X391135Y361823D01*
X387960Y361823D01*
X399263Y360553D02*
X404343Y360553D01*
X412344Y361823D02*
X412444Y361825D01*
X412543Y361831D01*
X412643Y361841D01*
X412741Y361854D01*
X412840Y361872D01*
X412937Y361893D01*
X413033Y361918D01*
X413129Y361947D01*
X413223Y361980D01*
X413316Y362016D01*
X413407Y362056D01*
X413497Y362100D01*
X413585Y362147D01*
X413671Y362197D01*
X413755Y362251D01*
X413837Y362308D01*
X413916Y362368D01*
X413994Y362432D01*
X414068Y362498D01*
X414140Y362567D01*
X414209Y362639D01*
X414275Y362713D01*
X414339Y362791D01*
X414399Y362870D01*
X414456Y362952D01*
X414510Y363036D01*
X414560Y363122D01*
X414607Y363210D01*
X414651Y363300D01*
X414691Y363391D01*
X414727Y363484D01*
X414760Y363578D01*
X414789Y363674D01*
X414814Y363770D01*
X414835Y363867D01*
X414853Y363966D01*
X414866Y364064D01*
X414876Y364164D01*
X414882Y364263D01*
X414884Y364363D01*
X412344Y361823D02*
X412203Y361825D01*
X412062Y361830D01*
X411921Y361840D01*
X411780Y361853D01*
X411640Y361869D01*
X411500Y361890D01*
X411361Y361914D01*
X411222Y361942D01*
X411085Y361973D01*
X410948Y362008D01*
X410812Y362046D01*
X410677Y362088D01*
X410544Y362134D01*
X410411Y362183D01*
X410280Y362236D01*
X410151Y362292D01*
X410022Y362351D01*
X409896Y362414D01*
X409771Y362480D01*
X409648Y362549D01*
X409527Y362622D01*
X409408Y362698D01*
X409290Y362777D01*
X409175Y362858D01*
X409063Y362943D01*
X408952Y363031D01*
X408844Y363122D01*
X408738Y363215D01*
X408635Y363312D01*
X408534Y363411D01*
X408851Y370713D02*
X408853Y370813D01*
X408859Y370912D01*
X408869Y371012D01*
X408882Y371110D01*
X408900Y371209D01*
X408921Y371306D01*
X408946Y371402D01*
X408975Y371498D01*
X409008Y371592D01*
X409044Y371685D01*
X409084Y371776D01*
X409128Y371866D01*
X409175Y371954D01*
X409225Y372040D01*
X409279Y372124D01*
X409336Y372206D01*
X409396Y372285D01*
X409460Y372363D01*
X409526Y372437D01*
X409595Y372509D01*
X409667Y372578D01*
X409741Y372644D01*
X409819Y372708D01*
X409898Y372768D01*
X409980Y372825D01*
X410064Y372879D01*
X410150Y372929D01*
X410238Y372976D01*
X410328Y373020D01*
X410419Y373060D01*
X410512Y373096D01*
X410606Y373129D01*
X410702Y373158D01*
X410798Y373183D01*
X410895Y373204D01*
X410994Y373222D01*
X411092Y373235D01*
X411192Y373245D01*
X411291Y373251D01*
X411391Y373253D01*
X411391Y373254D02*
X411524Y373252D01*
X411657Y373247D01*
X411790Y373237D01*
X411923Y373224D01*
X412055Y373207D01*
X412187Y373187D01*
X412318Y373163D01*
X412448Y373135D01*
X412578Y373104D01*
X412706Y373069D01*
X412834Y373030D01*
X412960Y372988D01*
X413085Y372942D01*
X413209Y372893D01*
X413332Y372841D01*
X413453Y372785D01*
X413572Y372725D01*
X413690Y372663D01*
X413805Y372597D01*
X413919Y372528D01*
X414031Y372455D01*
X414141Y372380D01*
X414249Y372301D01*
X410121Y368490D02*
X410037Y368542D01*
X409954Y368597D01*
X409874Y368656D01*
X409796Y368717D01*
X409721Y368781D01*
X409648Y368849D01*
X409577Y368919D01*
X409510Y368991D01*
X409445Y369066D01*
X409383Y369144D01*
X409324Y369224D01*
X409268Y369306D01*
X409216Y369390D01*
X409167Y369476D01*
X409121Y369564D01*
X409078Y369654D01*
X409039Y369745D01*
X409004Y369838D01*
X408972Y369932D01*
X408944Y370027D01*
X408919Y370123D01*
X408899Y370220D01*
X408881Y370318D01*
X408868Y370416D01*
X408859Y370515D01*
X408853Y370614D01*
X408851Y370713D01*
X413614Y366586D02*
X413698Y366534D01*
X413781Y366479D01*
X413861Y366420D01*
X413939Y366359D01*
X414014Y366295D01*
X414087Y366227D01*
X414158Y366157D01*
X414225Y366085D01*
X414290Y366010D01*
X414352Y365932D01*
X414411Y365852D01*
X414467Y365770D01*
X414519Y365686D01*
X414568Y365600D01*
X414614Y365512D01*
X414657Y365422D01*
X414696Y365331D01*
X414731Y365238D01*
X414763Y365144D01*
X414791Y365049D01*
X414816Y364953D01*
X414836Y364856D01*
X414854Y364758D01*
X414867Y364660D01*
X414876Y364561D01*
X414882Y364462D01*
X414884Y364363D01*
X413614Y366586D02*
X410121Y368491D01*
X421996Y373253D02*
X421996Y361823D01*
X418821Y373253D02*
X425171Y373253D01*
X429952Y373253D02*
X429952Y361823D01*
X429952Y373253D02*
X433127Y373253D01*
X433238Y373251D01*
X433348Y373245D01*
X433459Y373236D01*
X433569Y373222D01*
X433678Y373205D01*
X433787Y373184D01*
X433895Y373159D01*
X434002Y373130D01*
X434108Y373098D01*
X434213Y373062D01*
X434316Y373022D01*
X434418Y372979D01*
X434519Y372932D01*
X434618Y372881D01*
X434715Y372828D01*
X434809Y372771D01*
X434902Y372710D01*
X434993Y372647D01*
X435082Y372580D01*
X435168Y372510D01*
X435251Y372437D01*
X435333Y372362D01*
X435411Y372284D01*
X435486Y372202D01*
X435559Y372119D01*
X435629Y372033D01*
X435696Y371944D01*
X435759Y371853D01*
X435820Y371760D01*
X435877Y371665D01*
X435930Y371569D01*
X435981Y371470D01*
X436028Y371369D01*
X436071Y371267D01*
X436111Y371164D01*
X436147Y371059D01*
X436179Y370953D01*
X436208Y370846D01*
X436233Y370738D01*
X436254Y370629D01*
X436271Y370520D01*
X436285Y370410D01*
X436294Y370299D01*
X436300Y370189D01*
X436302Y370078D01*
X436300Y369967D01*
X436294Y369857D01*
X436285Y369746D01*
X436271Y369636D01*
X436254Y369527D01*
X436233Y369418D01*
X436208Y369310D01*
X436179Y369203D01*
X436147Y369097D01*
X436111Y368992D01*
X436071Y368889D01*
X436028Y368787D01*
X435981Y368686D01*
X435930Y368587D01*
X435877Y368490D01*
X435820Y368396D01*
X435759Y368303D01*
X435696Y368212D01*
X435629Y368123D01*
X435559Y368037D01*
X435486Y367954D01*
X435411Y367872D01*
X435333Y367794D01*
X435251Y367719D01*
X435168Y367646D01*
X435082Y367576D01*
X434993Y367509D01*
X434902Y367446D01*
X434809Y367385D01*
X434715Y367328D01*
X434618Y367275D01*
X434519Y367224D01*
X434418Y367177D01*
X434316Y367134D01*
X434213Y367094D01*
X434108Y367058D01*
X434002Y367026D01*
X433895Y366997D01*
X433787Y366972D01*
X433678Y366951D01*
X433569Y366934D01*
X433459Y366920D01*
X433348Y366911D01*
X433238Y366905D01*
X433127Y366903D01*
X429952Y366903D01*
X433762Y366903D02*
X436302Y361823D01*
X442189Y361823D02*
X442189Y373253D01*
X440919Y361823D02*
X443459Y361823D01*
X443459Y373253D02*
X440919Y373253D01*
X448729Y373253D02*
X448729Y361823D01*
X448729Y373253D02*
X451904Y373253D01*
X452015Y373251D01*
X452125Y373245D01*
X452236Y373236D01*
X452346Y373222D01*
X452455Y373205D01*
X452564Y373184D01*
X452672Y373159D01*
X452779Y373130D01*
X452885Y373098D01*
X452990Y373062D01*
X453093Y373022D01*
X453195Y372979D01*
X453296Y372932D01*
X453395Y372881D01*
X453492Y372828D01*
X453586Y372771D01*
X453679Y372710D01*
X453770Y372647D01*
X453859Y372580D01*
X453945Y372510D01*
X454028Y372437D01*
X454110Y372362D01*
X454188Y372284D01*
X454263Y372202D01*
X454336Y372119D01*
X454406Y372033D01*
X454473Y371944D01*
X454536Y371853D01*
X454597Y371760D01*
X454654Y371665D01*
X454707Y371569D01*
X454758Y371470D01*
X454805Y371369D01*
X454848Y371267D01*
X454888Y371164D01*
X454924Y371059D01*
X454956Y370953D01*
X454985Y370846D01*
X455010Y370738D01*
X455031Y370629D01*
X455048Y370520D01*
X455062Y370410D01*
X455071Y370299D01*
X455077Y370189D01*
X455079Y370078D01*
X455077Y369967D01*
X455071Y369857D01*
X455062Y369746D01*
X455048Y369636D01*
X455031Y369527D01*
X455010Y369418D01*
X454985Y369310D01*
X454956Y369203D01*
X454924Y369097D01*
X454888Y368992D01*
X454848Y368889D01*
X454805Y368787D01*
X454758Y368686D01*
X454707Y368587D01*
X454654Y368490D01*
X454597Y368396D01*
X454536Y368303D01*
X454473Y368212D01*
X454406Y368123D01*
X454336Y368037D01*
X454263Y367954D01*
X454188Y367872D01*
X454110Y367794D01*
X454028Y367719D01*
X453945Y367646D01*
X453859Y367576D01*
X453770Y367509D01*
X453679Y367446D01*
X453586Y367385D01*
X453492Y367328D01*
X453395Y367275D01*
X453296Y367224D01*
X453195Y367177D01*
X453093Y367134D01*
X452990Y367094D01*
X452885Y367058D01*
X452779Y367026D01*
X452672Y366997D01*
X452564Y366972D01*
X452455Y366951D01*
X452346Y366934D01*
X452236Y366920D01*
X452125Y366911D01*
X452015Y366905D01*
X451904Y366903D01*
X448729Y366903D01*
D13*
X462788Y190472D02*
X470577Y190472D01*
X466683Y194366D02*
X466683Y186577D01*
X475629Y185928D02*
X479524Y185928D01*
X479623Y185930D01*
X479723Y185936D01*
X479822Y185945D01*
X479920Y185958D01*
X480018Y185975D01*
X480116Y185996D01*
X480212Y186021D01*
X480307Y186049D01*
X480401Y186081D01*
X480494Y186116D01*
X480586Y186155D01*
X480676Y186198D01*
X480764Y186243D01*
X480851Y186293D01*
X480935Y186345D01*
X481018Y186401D01*
X481098Y186459D01*
X481176Y186521D01*
X481251Y186586D01*
X481324Y186654D01*
X481394Y186724D01*
X481462Y186797D01*
X481527Y186872D01*
X481589Y186950D01*
X481647Y187030D01*
X481703Y187113D01*
X481755Y187197D01*
X481805Y187284D01*
X481850Y187372D01*
X481893Y187462D01*
X481932Y187554D01*
X481967Y187647D01*
X481999Y187741D01*
X482027Y187836D01*
X482052Y187932D01*
X482073Y188030D01*
X482090Y188128D01*
X482103Y188226D01*
X482112Y188325D01*
X482118Y188425D01*
X482120Y188524D01*
X482120Y189823D01*
X482118Y189922D01*
X482112Y190022D01*
X482103Y190121D01*
X482090Y190219D01*
X482073Y190317D01*
X482052Y190415D01*
X482027Y190511D01*
X481999Y190606D01*
X481967Y190700D01*
X481932Y190793D01*
X481893Y190885D01*
X481850Y190975D01*
X481805Y191063D01*
X481755Y191150D01*
X481703Y191234D01*
X481647Y191317D01*
X481589Y191397D01*
X481527Y191475D01*
X481462Y191550D01*
X481394Y191623D01*
X481324Y191693D01*
X481251Y191761D01*
X481176Y191826D01*
X481098Y191888D01*
X481018Y191946D01*
X480935Y192002D01*
X480851Y192054D01*
X480764Y192104D01*
X480676Y192149D01*
X480586Y192192D01*
X480494Y192231D01*
X480401Y192266D01*
X480307Y192298D01*
X480212Y192326D01*
X480116Y192351D01*
X480018Y192372D01*
X479920Y192389D01*
X479822Y192402D01*
X479723Y192411D01*
X479623Y192417D01*
X479524Y192419D01*
X475629Y192419D01*
X475629Y197612D01*
X482120Y197612D01*
X486410Y197612D02*
X490305Y185928D01*
X494199Y197612D01*
X469279Y167019D02*
X467332Y167019D01*
X469279Y167019D02*
X469279Y160528D01*
X465384Y160528D01*
X465285Y160530D01*
X465185Y160536D01*
X465086Y160545D01*
X464988Y160558D01*
X464890Y160575D01*
X464792Y160596D01*
X464696Y160621D01*
X464601Y160649D01*
X464507Y160681D01*
X464414Y160716D01*
X464322Y160755D01*
X464232Y160798D01*
X464144Y160843D01*
X464057Y160893D01*
X463973Y160945D01*
X463890Y161001D01*
X463810Y161059D01*
X463732Y161121D01*
X463657Y161186D01*
X463584Y161254D01*
X463514Y161324D01*
X463446Y161397D01*
X463381Y161472D01*
X463319Y161550D01*
X463261Y161630D01*
X463205Y161713D01*
X463153Y161797D01*
X463103Y161884D01*
X463058Y161972D01*
X463015Y162062D01*
X462976Y162154D01*
X462941Y162247D01*
X462909Y162341D01*
X462881Y162436D01*
X462856Y162532D01*
X462835Y162630D01*
X462818Y162728D01*
X462805Y162826D01*
X462796Y162925D01*
X462790Y163025D01*
X462788Y163124D01*
X462788Y169616D01*
X462790Y169715D01*
X462796Y169815D01*
X462805Y169914D01*
X462818Y170012D01*
X462835Y170110D01*
X462856Y170208D01*
X462881Y170304D01*
X462909Y170399D01*
X462941Y170493D01*
X462976Y170586D01*
X463015Y170678D01*
X463058Y170768D01*
X463103Y170856D01*
X463153Y170943D01*
X463205Y171027D01*
X463261Y171110D01*
X463319Y171190D01*
X463381Y171268D01*
X463446Y171343D01*
X463514Y171416D01*
X463584Y171486D01*
X463657Y171554D01*
X463732Y171619D01*
X463810Y171681D01*
X463890Y171739D01*
X463973Y171795D01*
X464057Y171847D01*
X464144Y171897D01*
X464232Y171942D01*
X464322Y171985D01*
X464414Y172024D01*
X464506Y172059D01*
X464601Y172091D01*
X464696Y172119D01*
X464792Y172144D01*
X464890Y172165D01*
X464988Y172182D01*
X465086Y172195D01*
X465185Y172204D01*
X465285Y172210D01*
X465384Y172212D01*
X469279Y172212D01*
X474980Y172212D02*
X474980Y160528D01*
X481471Y160528D02*
X474980Y172212D01*
X481471Y172212D02*
X481471Y160528D01*
X487172Y160528D02*
X487172Y172212D01*
X490417Y172212D01*
X490530Y172210D01*
X490643Y172204D01*
X490756Y172194D01*
X490869Y172180D01*
X490981Y172163D01*
X491092Y172141D01*
X491202Y172116D01*
X491312Y172086D01*
X491420Y172053D01*
X491527Y172016D01*
X491633Y171976D01*
X491737Y171931D01*
X491840Y171883D01*
X491941Y171832D01*
X492040Y171777D01*
X492137Y171719D01*
X492232Y171657D01*
X492325Y171592D01*
X492415Y171524D01*
X492503Y171453D01*
X492589Y171378D01*
X492672Y171301D01*
X492752Y171221D01*
X492829Y171138D01*
X492904Y171052D01*
X492975Y170964D01*
X493043Y170874D01*
X493108Y170781D01*
X493170Y170686D01*
X493228Y170589D01*
X493283Y170490D01*
X493334Y170389D01*
X493382Y170286D01*
X493427Y170182D01*
X493467Y170076D01*
X493504Y169969D01*
X493537Y169861D01*
X493567Y169751D01*
X493592Y169641D01*
X493614Y169530D01*
X493631Y169418D01*
X493645Y169305D01*
X493655Y169192D01*
X493661Y169079D01*
X493663Y168966D01*
X493663Y163774D01*
X493664Y163774D02*
X493662Y163661D01*
X493656Y163548D01*
X493646Y163435D01*
X493632Y163322D01*
X493615Y163210D01*
X493593Y163099D01*
X493568Y162989D01*
X493538Y162879D01*
X493505Y162771D01*
X493468Y162664D01*
X493428Y162558D01*
X493383Y162454D01*
X493335Y162351D01*
X493284Y162250D01*
X493229Y162151D01*
X493171Y162054D01*
X493109Y161959D01*
X493044Y161866D01*
X492976Y161776D01*
X492905Y161688D01*
X492830Y161602D01*
X492753Y161519D01*
X492673Y161439D01*
X492590Y161362D01*
X492504Y161287D01*
X492416Y161216D01*
X492326Y161148D01*
X492233Y161083D01*
X492138Y161021D01*
X492041Y160963D01*
X491942Y160908D01*
X491841Y160857D01*
X491738Y160809D01*
X491634Y160764D01*
X491528Y160724D01*
X491421Y160687D01*
X491313Y160654D01*
X491203Y160624D01*
X491093Y160599D01*
X490982Y160577D01*
X490870Y160560D01*
X490757Y160546D01*
X490644Y160536D01*
X490531Y160530D01*
X490418Y160528D01*
X490417Y160528D02*
X487172Y160528D01*
D11*
X457200Y152400D02*
X457200Y203200D01*
X457200Y152400D02*
X431800Y152400D01*
X431800Y203200D01*
X457200Y203200D01*
D13*
X742188Y134550D02*
X753872Y134550D01*
X748679Y138444D02*
X742188Y134550D01*
X748679Y138444D02*
X742188Y142339D01*
X753872Y142339D01*
X753872Y147123D02*
X742188Y151017D01*
X753872Y154912D01*
X750951Y153938D02*
X750951Y148096D01*
X753872Y161685D02*
X742188Y161685D01*
X742188Y158440D02*
X742188Y164931D01*
X755170Y168614D02*
X755170Y173807D01*
X753872Y181765D02*
X753870Y181864D01*
X753864Y181964D01*
X753855Y182063D01*
X753842Y182161D01*
X753825Y182259D01*
X753804Y182357D01*
X753779Y182453D01*
X753751Y182548D01*
X753719Y182642D01*
X753684Y182735D01*
X753645Y182827D01*
X753602Y182917D01*
X753557Y183005D01*
X753507Y183092D01*
X753455Y183176D01*
X753399Y183259D01*
X753341Y183339D01*
X753279Y183417D01*
X753214Y183492D01*
X753146Y183565D01*
X753076Y183635D01*
X753003Y183703D01*
X752928Y183768D01*
X752850Y183830D01*
X752770Y183888D01*
X752687Y183944D01*
X752603Y183996D01*
X752516Y184046D01*
X752428Y184091D01*
X752338Y184134D01*
X752246Y184173D01*
X752153Y184208D01*
X752059Y184240D01*
X751964Y184268D01*
X751868Y184293D01*
X751770Y184314D01*
X751672Y184331D01*
X751574Y184344D01*
X751475Y184353D01*
X751375Y184359D01*
X751276Y184361D01*
X753872Y181765D02*
X753870Y181621D01*
X753864Y181476D01*
X753855Y181332D01*
X753842Y181189D01*
X753825Y181045D01*
X753804Y180902D01*
X753779Y180760D01*
X753751Y180619D01*
X753719Y180478D01*
X753683Y180338D01*
X753644Y180199D01*
X753601Y180061D01*
X753554Y179925D01*
X753504Y179789D01*
X753450Y179655D01*
X753393Y179523D01*
X753332Y179392D01*
X753268Y179263D01*
X753200Y179135D01*
X753130Y179009D01*
X753055Y178885D01*
X752978Y178764D01*
X752897Y178644D01*
X752814Y178526D01*
X752727Y178411D01*
X752637Y178298D01*
X752544Y178187D01*
X752449Y178079D01*
X752350Y177973D01*
X752249Y177870D01*
X744784Y178196D02*
X744685Y178198D01*
X744585Y178204D01*
X744486Y178213D01*
X744388Y178226D01*
X744290Y178243D01*
X744192Y178264D01*
X744096Y178289D01*
X744001Y178317D01*
X743907Y178349D01*
X743814Y178384D01*
X743722Y178423D01*
X743632Y178466D01*
X743544Y178511D01*
X743457Y178561D01*
X743373Y178613D01*
X743290Y178669D01*
X743210Y178727D01*
X743132Y178789D01*
X743057Y178854D01*
X742984Y178922D01*
X742914Y178992D01*
X742846Y179065D01*
X742781Y179140D01*
X742719Y179218D01*
X742661Y179298D01*
X742605Y179381D01*
X742553Y179465D01*
X742503Y179552D01*
X742458Y179640D01*
X742415Y179730D01*
X742376Y179822D01*
X742341Y179915D01*
X742309Y180009D01*
X742281Y180104D01*
X742256Y180200D01*
X742235Y180298D01*
X742218Y180396D01*
X742205Y180494D01*
X742196Y180593D01*
X742190Y180693D01*
X742188Y180792D01*
X742190Y180928D01*
X742196Y181064D01*
X742205Y181200D01*
X742218Y181336D01*
X742236Y181471D01*
X742256Y181605D01*
X742281Y181739D01*
X742309Y181873D01*
X742342Y182005D01*
X742377Y182136D01*
X742417Y182267D01*
X742460Y182396D01*
X742506Y182524D01*
X742557Y182650D01*
X742610Y182776D01*
X742668Y182899D01*
X742728Y183021D01*
X742792Y183141D01*
X742860Y183260D01*
X742930Y183376D01*
X743004Y183490D01*
X743081Y183603D01*
X743162Y183713D01*
X747056Y179493D02*
X747003Y179407D01*
X746946Y179323D01*
X746887Y179241D01*
X746824Y179161D01*
X746758Y179084D01*
X746690Y179009D01*
X746618Y178937D01*
X746544Y178868D01*
X746467Y178802D01*
X746388Y178739D01*
X746306Y178679D01*
X746222Y178622D01*
X746136Y178568D01*
X746048Y178518D01*
X745958Y178471D01*
X745867Y178427D01*
X745773Y178388D01*
X745679Y178351D01*
X745583Y178319D01*
X745485Y178290D01*
X745387Y178265D01*
X745288Y178244D01*
X745188Y178226D01*
X745088Y178213D01*
X744987Y178203D01*
X744885Y178197D01*
X744784Y178195D01*
X749004Y183064D02*
X749057Y183150D01*
X749114Y183234D01*
X749173Y183316D01*
X749236Y183396D01*
X749302Y183473D01*
X749370Y183548D01*
X749442Y183620D01*
X749516Y183689D01*
X749593Y183755D01*
X749672Y183818D01*
X749754Y183878D01*
X749838Y183935D01*
X749924Y183989D01*
X750012Y184039D01*
X750102Y184086D01*
X750193Y184130D01*
X750287Y184169D01*
X750381Y184206D01*
X750477Y184238D01*
X750575Y184267D01*
X750673Y184292D01*
X750772Y184313D01*
X750872Y184331D01*
X750972Y184344D01*
X751073Y184354D01*
X751175Y184360D01*
X751276Y184362D01*
X749004Y183063D02*
X747056Y179493D01*
X753872Y191483D02*
X753872Y194079D01*
X753872Y191483D02*
X753870Y191384D01*
X753864Y191284D01*
X753855Y191185D01*
X753842Y191087D01*
X753825Y190989D01*
X753804Y190891D01*
X753779Y190795D01*
X753751Y190700D01*
X753719Y190606D01*
X753684Y190513D01*
X753645Y190421D01*
X753602Y190331D01*
X753557Y190243D01*
X753507Y190156D01*
X753455Y190072D01*
X753399Y189989D01*
X753341Y189909D01*
X753279Y189831D01*
X753214Y189756D01*
X753146Y189683D01*
X753076Y189613D01*
X753003Y189545D01*
X752928Y189480D01*
X752850Y189418D01*
X752770Y189360D01*
X752687Y189304D01*
X752603Y189252D01*
X752516Y189202D01*
X752428Y189157D01*
X752338Y189114D01*
X752246Y189075D01*
X752153Y189040D01*
X752059Y189008D01*
X751964Y188980D01*
X751868Y188955D01*
X751770Y188934D01*
X751672Y188917D01*
X751574Y188904D01*
X751475Y188895D01*
X751375Y188889D01*
X751276Y188887D01*
X751276Y188886D02*
X744784Y188886D01*
X744685Y188888D01*
X744585Y188894D01*
X744486Y188903D01*
X744388Y188916D01*
X744290Y188934D01*
X744192Y188954D01*
X744096Y188979D01*
X744000Y189007D01*
X743906Y189039D01*
X743813Y189074D01*
X743722Y189113D01*
X743632Y189156D01*
X743543Y189201D01*
X743457Y189251D01*
X743372Y189303D01*
X743290Y189359D01*
X743210Y189418D01*
X743132Y189479D01*
X743056Y189544D01*
X742983Y189612D01*
X742913Y189682D01*
X742845Y189755D01*
X742780Y189831D01*
X742719Y189909D01*
X742660Y189989D01*
X742604Y190071D01*
X742552Y190156D01*
X742503Y190242D01*
X742457Y190331D01*
X742414Y190421D01*
X742375Y190512D01*
X742340Y190605D01*
X742308Y190699D01*
X742280Y190795D01*
X742255Y190891D01*
X742235Y190989D01*
X742217Y191087D01*
X742204Y191185D01*
X742195Y191284D01*
X742189Y191383D01*
X742187Y191483D01*
X742188Y191483D02*
X742188Y194079D01*
X742188Y198848D02*
X753872Y198848D01*
X753872Y204041D01*
X753872Y208901D02*
X742188Y208901D01*
X742188Y215392D02*
X749328Y208901D01*
X746732Y211497D02*
X753872Y215392D01*
X728472Y154912D02*
X716788Y154912D01*
X723279Y158807D01*
X716788Y162701D01*
X728472Y162701D01*
X728472Y167485D02*
X716788Y171380D01*
X728472Y175274D01*
X725551Y174301D02*
X725551Y168459D01*
X728472Y182048D02*
X716788Y182048D01*
X716788Y185293D02*
X716788Y178802D01*
X729770Y188976D02*
X729770Y194169D01*
X728472Y202128D02*
X728470Y202227D01*
X728464Y202327D01*
X728455Y202426D01*
X728442Y202524D01*
X728425Y202622D01*
X728404Y202720D01*
X728379Y202816D01*
X728351Y202911D01*
X728319Y203005D01*
X728284Y203098D01*
X728245Y203190D01*
X728202Y203280D01*
X728157Y203368D01*
X728107Y203455D01*
X728055Y203539D01*
X727999Y203622D01*
X727941Y203702D01*
X727879Y203780D01*
X727814Y203855D01*
X727746Y203928D01*
X727676Y203998D01*
X727603Y204066D01*
X727528Y204131D01*
X727450Y204193D01*
X727370Y204251D01*
X727287Y204307D01*
X727203Y204359D01*
X727116Y204409D01*
X727028Y204454D01*
X726938Y204497D01*
X726846Y204536D01*
X726753Y204571D01*
X726659Y204603D01*
X726564Y204631D01*
X726468Y204656D01*
X726370Y204677D01*
X726272Y204694D01*
X726174Y204707D01*
X726075Y204716D01*
X725975Y204722D01*
X725876Y204724D01*
X728472Y202128D02*
X728470Y201984D01*
X728464Y201839D01*
X728455Y201695D01*
X728442Y201552D01*
X728425Y201408D01*
X728404Y201265D01*
X728379Y201123D01*
X728351Y200982D01*
X728319Y200841D01*
X728283Y200701D01*
X728244Y200562D01*
X728201Y200424D01*
X728154Y200288D01*
X728104Y200152D01*
X728050Y200018D01*
X727993Y199886D01*
X727932Y199755D01*
X727868Y199626D01*
X727800Y199498D01*
X727730Y199372D01*
X727655Y199248D01*
X727578Y199127D01*
X727497Y199007D01*
X727414Y198889D01*
X727327Y198774D01*
X727237Y198661D01*
X727144Y198550D01*
X727049Y198442D01*
X726950Y198336D01*
X726849Y198233D01*
X719384Y198558D02*
X719285Y198560D01*
X719185Y198566D01*
X719086Y198575D01*
X718988Y198588D01*
X718890Y198605D01*
X718792Y198626D01*
X718696Y198651D01*
X718601Y198679D01*
X718507Y198711D01*
X718414Y198746D01*
X718322Y198785D01*
X718232Y198828D01*
X718144Y198873D01*
X718057Y198923D01*
X717973Y198975D01*
X717890Y199031D01*
X717810Y199089D01*
X717732Y199151D01*
X717657Y199216D01*
X717584Y199284D01*
X717514Y199354D01*
X717446Y199427D01*
X717381Y199502D01*
X717319Y199580D01*
X717261Y199660D01*
X717205Y199743D01*
X717153Y199827D01*
X717103Y199914D01*
X717058Y200002D01*
X717015Y200092D01*
X716976Y200184D01*
X716941Y200277D01*
X716909Y200371D01*
X716881Y200466D01*
X716856Y200562D01*
X716835Y200660D01*
X716818Y200758D01*
X716805Y200856D01*
X716796Y200955D01*
X716790Y201055D01*
X716788Y201154D01*
X716790Y201290D01*
X716796Y201426D01*
X716805Y201562D01*
X716818Y201698D01*
X716836Y201833D01*
X716856Y201967D01*
X716881Y202101D01*
X716909Y202235D01*
X716942Y202367D01*
X716977Y202498D01*
X717017Y202629D01*
X717060Y202758D01*
X717106Y202886D01*
X717157Y203012D01*
X717210Y203138D01*
X717268Y203261D01*
X717328Y203383D01*
X717392Y203503D01*
X717460Y203622D01*
X717530Y203738D01*
X717604Y203852D01*
X717681Y203965D01*
X717762Y204075D01*
X721656Y199855D02*
X721603Y199769D01*
X721546Y199685D01*
X721487Y199603D01*
X721424Y199523D01*
X721358Y199446D01*
X721290Y199371D01*
X721218Y199299D01*
X721144Y199230D01*
X721067Y199164D01*
X720988Y199101D01*
X720906Y199041D01*
X720822Y198984D01*
X720736Y198930D01*
X720648Y198880D01*
X720558Y198833D01*
X720467Y198789D01*
X720373Y198750D01*
X720279Y198713D01*
X720183Y198681D01*
X720085Y198652D01*
X719987Y198627D01*
X719888Y198606D01*
X719788Y198588D01*
X719688Y198575D01*
X719587Y198565D01*
X719485Y198559D01*
X719384Y198557D01*
X723604Y203426D02*
X723657Y203512D01*
X723714Y203596D01*
X723773Y203678D01*
X723836Y203758D01*
X723902Y203835D01*
X723970Y203910D01*
X724042Y203982D01*
X724116Y204051D01*
X724193Y204117D01*
X724272Y204180D01*
X724354Y204240D01*
X724438Y204297D01*
X724524Y204351D01*
X724612Y204401D01*
X724702Y204448D01*
X724793Y204492D01*
X724887Y204531D01*
X724981Y204568D01*
X725077Y204600D01*
X725175Y204629D01*
X725273Y204654D01*
X725372Y204675D01*
X725472Y204693D01*
X725572Y204706D01*
X725673Y204716D01*
X725775Y204722D01*
X725876Y204724D01*
X723604Y203426D02*
X721656Y199856D01*
X728472Y212796D02*
X728470Y212895D01*
X728464Y212995D01*
X728455Y213094D01*
X728442Y213192D01*
X728425Y213290D01*
X728404Y213388D01*
X728379Y213484D01*
X728351Y213579D01*
X728319Y213673D01*
X728284Y213766D01*
X728245Y213858D01*
X728202Y213948D01*
X728157Y214036D01*
X728107Y214123D01*
X728055Y214207D01*
X727999Y214290D01*
X727941Y214370D01*
X727879Y214448D01*
X727814Y214523D01*
X727746Y214596D01*
X727676Y214666D01*
X727603Y214734D01*
X727528Y214799D01*
X727450Y214861D01*
X727370Y214919D01*
X727287Y214975D01*
X727203Y215027D01*
X727116Y215077D01*
X727028Y215122D01*
X726938Y215165D01*
X726846Y215204D01*
X726753Y215239D01*
X726659Y215271D01*
X726564Y215299D01*
X726468Y215324D01*
X726370Y215345D01*
X726272Y215362D01*
X726174Y215375D01*
X726075Y215384D01*
X725975Y215390D01*
X725876Y215392D01*
X728472Y212796D02*
X728470Y212652D01*
X728464Y212507D01*
X728455Y212363D01*
X728442Y212220D01*
X728425Y212076D01*
X728404Y211933D01*
X728379Y211791D01*
X728351Y211650D01*
X728319Y211509D01*
X728283Y211369D01*
X728244Y211230D01*
X728201Y211092D01*
X728154Y210956D01*
X728104Y210820D01*
X728050Y210686D01*
X727993Y210554D01*
X727932Y210423D01*
X727868Y210294D01*
X727800Y210166D01*
X727730Y210040D01*
X727655Y209916D01*
X727578Y209795D01*
X727497Y209675D01*
X727414Y209557D01*
X727327Y209442D01*
X727237Y209329D01*
X727144Y209218D01*
X727049Y209110D01*
X726950Y209004D01*
X726849Y208901D01*
X719384Y209226D02*
X719285Y209228D01*
X719185Y209234D01*
X719086Y209243D01*
X718988Y209256D01*
X718890Y209273D01*
X718792Y209294D01*
X718696Y209319D01*
X718601Y209347D01*
X718507Y209379D01*
X718414Y209414D01*
X718322Y209453D01*
X718232Y209496D01*
X718144Y209541D01*
X718057Y209591D01*
X717973Y209643D01*
X717890Y209699D01*
X717810Y209757D01*
X717732Y209819D01*
X717657Y209884D01*
X717584Y209952D01*
X717514Y210022D01*
X717446Y210095D01*
X717381Y210170D01*
X717319Y210248D01*
X717261Y210328D01*
X717205Y210411D01*
X717153Y210495D01*
X717103Y210582D01*
X717058Y210670D01*
X717015Y210760D01*
X716976Y210852D01*
X716941Y210945D01*
X716909Y211039D01*
X716881Y211134D01*
X716856Y211230D01*
X716835Y211328D01*
X716818Y211426D01*
X716805Y211524D01*
X716796Y211623D01*
X716790Y211723D01*
X716788Y211822D01*
X716790Y211958D01*
X716796Y212094D01*
X716805Y212230D01*
X716818Y212366D01*
X716836Y212501D01*
X716856Y212635D01*
X716881Y212769D01*
X716909Y212903D01*
X716942Y213035D01*
X716977Y213166D01*
X717017Y213297D01*
X717060Y213426D01*
X717106Y213554D01*
X717157Y213680D01*
X717210Y213806D01*
X717268Y213929D01*
X717328Y214051D01*
X717392Y214171D01*
X717460Y214290D01*
X717530Y214406D01*
X717604Y214520D01*
X717681Y214633D01*
X717762Y214743D01*
X721656Y210523D02*
X721603Y210437D01*
X721546Y210353D01*
X721487Y210271D01*
X721424Y210191D01*
X721358Y210114D01*
X721290Y210039D01*
X721218Y209967D01*
X721144Y209898D01*
X721067Y209832D01*
X720988Y209769D01*
X720906Y209709D01*
X720822Y209652D01*
X720736Y209598D01*
X720648Y209548D01*
X720558Y209501D01*
X720467Y209457D01*
X720373Y209418D01*
X720279Y209381D01*
X720183Y209349D01*
X720085Y209320D01*
X719987Y209295D01*
X719888Y209274D01*
X719788Y209256D01*
X719688Y209243D01*
X719587Y209233D01*
X719485Y209227D01*
X719384Y209225D01*
X723604Y214094D02*
X723657Y214180D01*
X723714Y214264D01*
X723773Y214346D01*
X723836Y214426D01*
X723902Y214503D01*
X723970Y214578D01*
X724042Y214650D01*
X724116Y214719D01*
X724193Y214785D01*
X724272Y214848D01*
X724354Y214908D01*
X724438Y214965D01*
X724524Y215019D01*
X724612Y215069D01*
X724702Y215116D01*
X724793Y215160D01*
X724887Y215199D01*
X724981Y215236D01*
X725077Y215268D01*
X725175Y215297D01*
X725273Y215322D01*
X725372Y215343D01*
X725472Y215361D01*
X725572Y215374D01*
X725673Y215384D01*
X725775Y215390D01*
X725876Y215392D01*
X723604Y214094D02*
X721656Y210524D01*
X703072Y133618D02*
X691388Y133618D01*
X697879Y137513D01*
X691388Y141408D01*
X703072Y141408D01*
X703072Y146191D02*
X691388Y150086D01*
X703072Y153981D01*
X700151Y153007D02*
X700151Y147165D01*
X703072Y160754D02*
X691388Y160754D01*
X691388Y163999D02*
X691388Y157508D01*
X704370Y167682D02*
X704370Y172875D01*
X703072Y177814D02*
X691388Y177814D01*
X697879Y181709D01*
X691388Y185604D01*
X703072Y185604D01*
X699826Y191036D02*
X694634Y191036D01*
X694521Y191038D01*
X694408Y191044D01*
X694295Y191054D01*
X694182Y191068D01*
X694070Y191085D01*
X693959Y191107D01*
X693849Y191132D01*
X693739Y191162D01*
X693631Y191195D01*
X693524Y191232D01*
X693418Y191272D01*
X693314Y191317D01*
X693211Y191365D01*
X693110Y191416D01*
X693011Y191471D01*
X692914Y191529D01*
X692819Y191591D01*
X692726Y191656D01*
X692636Y191724D01*
X692548Y191795D01*
X692462Y191870D01*
X692379Y191947D01*
X692299Y192027D01*
X692222Y192110D01*
X692147Y192196D01*
X692076Y192284D01*
X692008Y192374D01*
X691943Y192467D01*
X691881Y192562D01*
X691823Y192659D01*
X691768Y192758D01*
X691717Y192859D01*
X691669Y192962D01*
X691624Y193066D01*
X691584Y193172D01*
X691547Y193279D01*
X691514Y193387D01*
X691484Y193497D01*
X691459Y193607D01*
X691437Y193718D01*
X691420Y193830D01*
X691406Y193943D01*
X691396Y194056D01*
X691390Y194169D01*
X691388Y194282D01*
X691390Y194395D01*
X691396Y194508D01*
X691406Y194621D01*
X691420Y194734D01*
X691437Y194846D01*
X691459Y194957D01*
X691484Y195067D01*
X691514Y195177D01*
X691547Y195285D01*
X691584Y195392D01*
X691624Y195498D01*
X691669Y195602D01*
X691717Y195705D01*
X691768Y195806D01*
X691823Y195905D01*
X691881Y196002D01*
X691943Y196097D01*
X692008Y196190D01*
X692076Y196280D01*
X692147Y196368D01*
X692222Y196454D01*
X692299Y196537D01*
X692379Y196617D01*
X692462Y196694D01*
X692548Y196769D01*
X692636Y196840D01*
X692726Y196908D01*
X692819Y196973D01*
X692914Y197035D01*
X693011Y197093D01*
X693110Y197148D01*
X693211Y197199D01*
X693314Y197247D01*
X693418Y197292D01*
X693524Y197332D01*
X693631Y197369D01*
X693739Y197402D01*
X693849Y197432D01*
X693959Y197457D01*
X694070Y197479D01*
X694182Y197496D01*
X694295Y197510D01*
X694408Y197520D01*
X694521Y197526D01*
X694634Y197528D01*
X694634Y197527D02*
X699826Y197527D01*
X699826Y197528D02*
X699939Y197526D01*
X700052Y197520D01*
X700165Y197510D01*
X700278Y197496D01*
X700390Y197479D01*
X700501Y197457D01*
X700611Y197432D01*
X700721Y197402D01*
X700829Y197369D01*
X700936Y197332D01*
X701042Y197292D01*
X701146Y197247D01*
X701249Y197199D01*
X701350Y197148D01*
X701449Y197093D01*
X701546Y197035D01*
X701641Y196973D01*
X701734Y196908D01*
X701824Y196840D01*
X701912Y196769D01*
X701998Y196694D01*
X702081Y196617D01*
X702161Y196537D01*
X702238Y196454D01*
X702313Y196368D01*
X702384Y196280D01*
X702452Y196190D01*
X702517Y196097D01*
X702579Y196002D01*
X702637Y195905D01*
X702692Y195806D01*
X702743Y195705D01*
X702791Y195602D01*
X702836Y195498D01*
X702876Y195392D01*
X702913Y195285D01*
X702946Y195177D01*
X702976Y195067D01*
X703001Y194957D01*
X703023Y194846D01*
X703040Y194734D01*
X703054Y194621D01*
X703064Y194508D01*
X703070Y194395D01*
X703072Y194282D01*
X703070Y194169D01*
X703064Y194056D01*
X703054Y193943D01*
X703040Y193830D01*
X703023Y193718D01*
X703001Y193607D01*
X702976Y193497D01*
X702946Y193387D01*
X702913Y193279D01*
X702876Y193172D01*
X702836Y193066D01*
X702791Y192962D01*
X702743Y192859D01*
X702692Y192758D01*
X702637Y192659D01*
X702579Y192562D01*
X702517Y192467D01*
X702452Y192374D01*
X702384Y192284D01*
X702313Y192196D01*
X702238Y192110D01*
X702161Y192027D01*
X702081Y191947D01*
X701998Y191870D01*
X701912Y191795D01*
X701824Y191724D01*
X701734Y191656D01*
X701641Y191591D01*
X701546Y191529D01*
X701449Y191471D01*
X701350Y191416D01*
X701249Y191365D01*
X701146Y191317D01*
X701042Y191272D01*
X700936Y191232D01*
X700829Y191195D01*
X700721Y191162D01*
X700611Y191132D01*
X700501Y191107D01*
X700390Y191085D01*
X700278Y191068D01*
X700165Y191054D01*
X700052Y191044D01*
X699939Y191038D01*
X699826Y191036D01*
X703072Y205980D02*
X703070Y206079D01*
X703064Y206179D01*
X703055Y206278D01*
X703042Y206376D01*
X703025Y206474D01*
X703004Y206572D01*
X702979Y206668D01*
X702951Y206763D01*
X702919Y206857D01*
X702884Y206950D01*
X702845Y207042D01*
X702802Y207132D01*
X702757Y207220D01*
X702707Y207307D01*
X702655Y207391D01*
X702599Y207474D01*
X702541Y207554D01*
X702479Y207632D01*
X702414Y207707D01*
X702346Y207780D01*
X702276Y207850D01*
X702203Y207918D01*
X702128Y207983D01*
X702050Y208045D01*
X701970Y208103D01*
X701887Y208159D01*
X701803Y208211D01*
X701716Y208261D01*
X701628Y208306D01*
X701538Y208349D01*
X701446Y208388D01*
X701353Y208423D01*
X701259Y208455D01*
X701164Y208483D01*
X701068Y208508D01*
X700970Y208529D01*
X700872Y208546D01*
X700774Y208559D01*
X700675Y208568D01*
X700575Y208574D01*
X700476Y208576D01*
X703072Y205980D02*
X703070Y205836D01*
X703064Y205691D01*
X703055Y205547D01*
X703042Y205404D01*
X703025Y205260D01*
X703004Y205117D01*
X702979Y204975D01*
X702951Y204834D01*
X702919Y204693D01*
X702883Y204553D01*
X702844Y204414D01*
X702801Y204276D01*
X702754Y204140D01*
X702704Y204004D01*
X702650Y203870D01*
X702593Y203738D01*
X702532Y203607D01*
X702468Y203478D01*
X702400Y203350D01*
X702330Y203224D01*
X702255Y203100D01*
X702178Y202979D01*
X702097Y202859D01*
X702014Y202741D01*
X701927Y202626D01*
X701837Y202513D01*
X701744Y202402D01*
X701649Y202294D01*
X701550Y202188D01*
X701449Y202085D01*
X693984Y202410D02*
X693885Y202412D01*
X693785Y202418D01*
X693686Y202427D01*
X693588Y202440D01*
X693490Y202457D01*
X693392Y202478D01*
X693296Y202503D01*
X693201Y202531D01*
X693107Y202563D01*
X693014Y202598D01*
X692922Y202637D01*
X692832Y202680D01*
X692744Y202725D01*
X692657Y202775D01*
X692573Y202827D01*
X692490Y202883D01*
X692410Y202941D01*
X692332Y203003D01*
X692257Y203068D01*
X692184Y203136D01*
X692114Y203206D01*
X692046Y203279D01*
X691981Y203354D01*
X691919Y203432D01*
X691861Y203512D01*
X691805Y203595D01*
X691753Y203679D01*
X691703Y203766D01*
X691658Y203854D01*
X691615Y203944D01*
X691576Y204036D01*
X691541Y204129D01*
X691509Y204223D01*
X691481Y204318D01*
X691456Y204414D01*
X691435Y204512D01*
X691418Y204610D01*
X691405Y204708D01*
X691396Y204807D01*
X691390Y204907D01*
X691388Y205006D01*
X691390Y205142D01*
X691396Y205278D01*
X691405Y205414D01*
X691418Y205550D01*
X691436Y205685D01*
X691456Y205819D01*
X691481Y205953D01*
X691509Y206087D01*
X691542Y206219D01*
X691577Y206350D01*
X691617Y206481D01*
X691660Y206610D01*
X691706Y206738D01*
X691757Y206864D01*
X691810Y206990D01*
X691868Y207113D01*
X691928Y207235D01*
X691992Y207355D01*
X692060Y207474D01*
X692130Y207590D01*
X692204Y207704D01*
X692281Y207817D01*
X692362Y207927D01*
X696256Y203708D02*
X696203Y203622D01*
X696146Y203538D01*
X696087Y203456D01*
X696024Y203376D01*
X695958Y203299D01*
X695890Y203224D01*
X695818Y203152D01*
X695744Y203083D01*
X695667Y203017D01*
X695588Y202954D01*
X695506Y202894D01*
X695422Y202837D01*
X695336Y202783D01*
X695248Y202733D01*
X695158Y202686D01*
X695067Y202642D01*
X694973Y202603D01*
X694879Y202566D01*
X694783Y202534D01*
X694685Y202505D01*
X694587Y202480D01*
X694488Y202459D01*
X694388Y202441D01*
X694288Y202428D01*
X694187Y202418D01*
X694085Y202412D01*
X693984Y202410D01*
X698204Y207278D02*
X698257Y207364D01*
X698314Y207448D01*
X698373Y207530D01*
X698436Y207610D01*
X698502Y207687D01*
X698570Y207762D01*
X698642Y207834D01*
X698716Y207903D01*
X698793Y207969D01*
X698872Y208032D01*
X698954Y208092D01*
X699038Y208149D01*
X699124Y208203D01*
X699212Y208253D01*
X699302Y208300D01*
X699393Y208344D01*
X699487Y208383D01*
X699581Y208420D01*
X699677Y208452D01*
X699775Y208481D01*
X699873Y208506D01*
X699972Y208527D01*
X700072Y208545D01*
X700172Y208558D01*
X700273Y208568D01*
X700375Y208574D01*
X700476Y208576D01*
X698204Y207278D02*
X696256Y203708D01*
X691388Y214094D02*
X703072Y214094D01*
X703072Y212796D02*
X703072Y215392D01*
X691388Y215392D02*
X691388Y212796D01*
X626872Y144842D02*
X615188Y144842D01*
X626872Y144842D02*
X626872Y150035D01*
X626872Y154748D02*
X626872Y159941D01*
X626872Y154748D02*
X615188Y154748D01*
X615188Y159941D01*
X620381Y158643D02*
X620381Y154748D01*
X615188Y164631D02*
X626872Y164631D01*
X615188Y164631D02*
X615188Y167877D01*
X615190Y167990D01*
X615196Y168103D01*
X615206Y168216D01*
X615220Y168329D01*
X615237Y168441D01*
X615259Y168552D01*
X615284Y168662D01*
X615314Y168772D01*
X615347Y168880D01*
X615384Y168987D01*
X615424Y169093D01*
X615469Y169197D01*
X615517Y169300D01*
X615568Y169401D01*
X615623Y169500D01*
X615681Y169597D01*
X615743Y169692D01*
X615808Y169785D01*
X615876Y169875D01*
X615947Y169963D01*
X616022Y170049D01*
X616099Y170132D01*
X616179Y170212D01*
X616262Y170289D01*
X616348Y170364D01*
X616436Y170435D01*
X616526Y170503D01*
X616619Y170568D01*
X616714Y170630D01*
X616811Y170688D01*
X616910Y170743D01*
X617011Y170794D01*
X617114Y170842D01*
X617218Y170887D01*
X617324Y170927D01*
X617431Y170964D01*
X617539Y170997D01*
X617649Y171027D01*
X617759Y171052D01*
X617870Y171074D01*
X617982Y171091D01*
X618095Y171105D01*
X618208Y171115D01*
X618321Y171121D01*
X618434Y171123D01*
X618434Y171122D02*
X623626Y171122D01*
X623626Y171123D02*
X623739Y171121D01*
X623852Y171115D01*
X623965Y171105D01*
X624078Y171091D01*
X624190Y171074D01*
X624301Y171052D01*
X624411Y171027D01*
X624521Y170997D01*
X624629Y170964D01*
X624736Y170927D01*
X624842Y170887D01*
X624946Y170842D01*
X625049Y170794D01*
X625150Y170743D01*
X625249Y170688D01*
X625346Y170630D01*
X625441Y170568D01*
X625534Y170503D01*
X625624Y170435D01*
X625712Y170364D01*
X625798Y170289D01*
X625881Y170212D01*
X625961Y170132D01*
X626038Y170049D01*
X626113Y169963D01*
X626184Y169875D01*
X626252Y169785D01*
X626317Y169692D01*
X626379Y169597D01*
X626437Y169500D01*
X626492Y169401D01*
X626543Y169300D01*
X626591Y169197D01*
X626636Y169093D01*
X626676Y168987D01*
X626713Y168880D01*
X626746Y168772D01*
X626776Y168662D01*
X626801Y168552D01*
X626823Y168441D01*
X626840Y168329D01*
X626854Y168216D01*
X626864Y168103D01*
X626870Y167990D01*
X626872Y167877D01*
X626872Y164631D01*
X628170Y175948D02*
X628170Y181141D01*
X620381Y186137D02*
X620381Y189382D01*
X620380Y189382D02*
X620382Y189495D01*
X620388Y189608D01*
X620398Y189721D01*
X620412Y189834D01*
X620429Y189946D01*
X620451Y190057D01*
X620476Y190167D01*
X620506Y190277D01*
X620539Y190385D01*
X620576Y190492D01*
X620616Y190598D01*
X620661Y190702D01*
X620709Y190805D01*
X620760Y190906D01*
X620815Y191005D01*
X620873Y191102D01*
X620935Y191197D01*
X621000Y191290D01*
X621068Y191380D01*
X621139Y191468D01*
X621214Y191554D01*
X621291Y191637D01*
X621371Y191717D01*
X621454Y191794D01*
X621540Y191869D01*
X621628Y191940D01*
X621718Y192008D01*
X621811Y192073D01*
X621906Y192135D01*
X622003Y192193D01*
X622102Y192248D01*
X622203Y192299D01*
X622306Y192347D01*
X622410Y192392D01*
X622516Y192432D01*
X622623Y192469D01*
X622731Y192502D01*
X622841Y192532D01*
X622951Y192557D01*
X623062Y192579D01*
X623174Y192596D01*
X623287Y192610D01*
X623400Y192620D01*
X623513Y192626D01*
X623626Y192628D01*
X623739Y192626D01*
X623852Y192620D01*
X623965Y192610D01*
X624078Y192596D01*
X624190Y192579D01*
X624301Y192557D01*
X624411Y192532D01*
X624521Y192502D01*
X624629Y192469D01*
X624736Y192432D01*
X624842Y192392D01*
X624946Y192347D01*
X625049Y192299D01*
X625150Y192248D01*
X625249Y192193D01*
X625346Y192135D01*
X625441Y192073D01*
X625534Y192008D01*
X625624Y191940D01*
X625712Y191869D01*
X625798Y191794D01*
X625881Y191717D01*
X625961Y191637D01*
X626038Y191554D01*
X626113Y191468D01*
X626184Y191380D01*
X626252Y191290D01*
X626317Y191197D01*
X626379Y191102D01*
X626437Y191005D01*
X626492Y190906D01*
X626543Y190805D01*
X626591Y190702D01*
X626636Y190598D01*
X626676Y190492D01*
X626713Y190385D01*
X626746Y190277D01*
X626776Y190167D01*
X626801Y190057D01*
X626823Y189946D01*
X626840Y189834D01*
X626854Y189721D01*
X626864Y189608D01*
X626870Y189495D01*
X626872Y189382D01*
X626872Y186137D01*
X615188Y186137D01*
X615188Y189382D01*
X615190Y189483D01*
X615196Y189583D01*
X615206Y189683D01*
X615219Y189783D01*
X615237Y189882D01*
X615258Y189981D01*
X615283Y190078D01*
X615312Y190175D01*
X615345Y190270D01*
X615381Y190364D01*
X615421Y190456D01*
X615464Y190547D01*
X615511Y190636D01*
X615561Y190723D01*
X615615Y190809D01*
X615672Y190892D01*
X615732Y190972D01*
X615795Y191051D01*
X615862Y191127D01*
X615931Y191200D01*
X616003Y191270D01*
X616077Y191338D01*
X616154Y191403D01*
X616234Y191464D01*
X616316Y191523D01*
X616400Y191578D01*
X616486Y191630D01*
X616574Y191679D01*
X616664Y191724D01*
X616756Y191766D01*
X616849Y191804D01*
X616944Y191838D01*
X617039Y191869D01*
X617136Y191896D01*
X617234Y191919D01*
X617333Y191939D01*
X617433Y191954D01*
X617533Y191966D01*
X617633Y191974D01*
X617734Y191978D01*
X617834Y191978D01*
X617935Y191974D01*
X618035Y191966D01*
X618135Y191954D01*
X618235Y191939D01*
X618334Y191919D01*
X618432Y191896D01*
X618529Y191869D01*
X618624Y191838D01*
X618719Y191804D01*
X618812Y191766D01*
X618904Y191724D01*
X618994Y191679D01*
X619082Y191630D01*
X619168Y191578D01*
X619252Y191523D01*
X619334Y191464D01*
X619414Y191403D01*
X619491Y191338D01*
X619565Y191270D01*
X619637Y191200D01*
X619706Y191127D01*
X619773Y191051D01*
X619836Y190972D01*
X619896Y190892D01*
X619953Y190809D01*
X620007Y190723D01*
X620057Y190636D01*
X620104Y190547D01*
X620147Y190456D01*
X620187Y190364D01*
X620223Y190270D01*
X620256Y190175D01*
X620285Y190078D01*
X620310Y189981D01*
X620331Y189882D01*
X620349Y189783D01*
X620362Y189683D01*
X620372Y189583D01*
X620378Y189483D01*
X620380Y189382D01*
X626872Y196367D02*
X615188Y200262D01*
X626872Y204157D01*
X623951Y203183D02*
X623951Y197341D01*
X626872Y208901D02*
X615188Y208901D01*
X615188Y212146D01*
X615190Y212259D01*
X615196Y212372D01*
X615206Y212485D01*
X615220Y212598D01*
X615237Y212710D01*
X615259Y212821D01*
X615284Y212931D01*
X615314Y213041D01*
X615347Y213149D01*
X615384Y213256D01*
X615424Y213362D01*
X615469Y213466D01*
X615517Y213569D01*
X615568Y213670D01*
X615623Y213769D01*
X615681Y213866D01*
X615743Y213961D01*
X615808Y214054D01*
X615876Y214144D01*
X615947Y214232D01*
X616022Y214318D01*
X616099Y214401D01*
X616179Y214481D01*
X616262Y214558D01*
X616348Y214633D01*
X616436Y214704D01*
X616526Y214772D01*
X616619Y214837D01*
X616714Y214899D01*
X616811Y214957D01*
X616910Y215012D01*
X617011Y215063D01*
X617114Y215111D01*
X617218Y215156D01*
X617324Y215196D01*
X617431Y215233D01*
X617539Y215266D01*
X617649Y215296D01*
X617759Y215321D01*
X617870Y215343D01*
X617982Y215360D01*
X618095Y215374D01*
X618208Y215384D01*
X618321Y215390D01*
X618434Y215392D01*
X618547Y215390D01*
X618660Y215384D01*
X618773Y215374D01*
X618886Y215360D01*
X618998Y215343D01*
X619109Y215321D01*
X619219Y215296D01*
X619329Y215266D01*
X619437Y215233D01*
X619544Y215196D01*
X619650Y215156D01*
X619754Y215111D01*
X619857Y215063D01*
X619958Y215012D01*
X620057Y214957D01*
X620154Y214899D01*
X620249Y214837D01*
X620342Y214772D01*
X620432Y214704D01*
X620520Y214633D01*
X620606Y214558D01*
X620689Y214481D01*
X620769Y214401D01*
X620846Y214318D01*
X620921Y214232D01*
X620992Y214144D01*
X621060Y214054D01*
X621125Y213961D01*
X621187Y213866D01*
X621245Y213769D01*
X621300Y213670D01*
X621351Y213569D01*
X621399Y213466D01*
X621444Y213362D01*
X621484Y213256D01*
X621521Y213149D01*
X621554Y213041D01*
X621584Y212931D01*
X621609Y212821D01*
X621631Y212710D01*
X621648Y212598D01*
X621662Y212485D01*
X621672Y212372D01*
X621678Y212259D01*
X621680Y212146D01*
X621679Y212146D02*
X621679Y208901D01*
X621679Y212796D02*
X626872Y215392D01*
X601472Y162744D02*
X589788Y166638D01*
X601472Y170533D01*
X598551Y169559D02*
X598551Y163717D01*
X598226Y175204D02*
X589788Y175204D01*
X598226Y175203D02*
X598339Y175205D01*
X598452Y175211D01*
X598565Y175221D01*
X598678Y175235D01*
X598790Y175252D01*
X598901Y175274D01*
X599011Y175299D01*
X599121Y175329D01*
X599229Y175362D01*
X599336Y175399D01*
X599442Y175439D01*
X599546Y175484D01*
X599649Y175532D01*
X599750Y175583D01*
X599849Y175638D01*
X599946Y175696D01*
X600041Y175758D01*
X600134Y175823D01*
X600224Y175891D01*
X600312Y175962D01*
X600398Y176037D01*
X600481Y176114D01*
X600561Y176194D01*
X600638Y176277D01*
X600713Y176363D01*
X600784Y176451D01*
X600852Y176541D01*
X600917Y176634D01*
X600979Y176729D01*
X601037Y176826D01*
X601092Y176925D01*
X601143Y177026D01*
X601191Y177129D01*
X601236Y177233D01*
X601276Y177339D01*
X601313Y177446D01*
X601346Y177554D01*
X601376Y177664D01*
X601401Y177774D01*
X601423Y177885D01*
X601440Y177997D01*
X601454Y178110D01*
X601464Y178223D01*
X601470Y178336D01*
X601472Y178449D01*
X601470Y178562D01*
X601464Y178675D01*
X601454Y178788D01*
X601440Y178901D01*
X601423Y179013D01*
X601401Y179124D01*
X601376Y179234D01*
X601346Y179344D01*
X601313Y179452D01*
X601276Y179559D01*
X601236Y179665D01*
X601191Y179769D01*
X601143Y179872D01*
X601092Y179973D01*
X601037Y180072D01*
X600979Y180169D01*
X600917Y180264D01*
X600852Y180357D01*
X600784Y180447D01*
X600713Y180535D01*
X600638Y180621D01*
X600561Y180704D01*
X600481Y180784D01*
X600398Y180861D01*
X600312Y180936D01*
X600224Y181007D01*
X600134Y181075D01*
X600041Y181140D01*
X599946Y181202D01*
X599849Y181260D01*
X599750Y181315D01*
X599649Y181366D01*
X599546Y181414D01*
X599442Y181459D01*
X599336Y181499D01*
X599229Y181536D01*
X599121Y181569D01*
X599011Y181599D01*
X598901Y181624D01*
X598790Y181646D01*
X598678Y181663D01*
X598565Y181677D01*
X598452Y181687D01*
X598339Y181693D01*
X598226Y181695D01*
X589788Y181695D01*
X589788Y187396D02*
X601472Y187396D01*
X589788Y187396D02*
X589788Y190641D01*
X589790Y190754D01*
X589796Y190867D01*
X589806Y190980D01*
X589820Y191093D01*
X589837Y191205D01*
X589859Y191316D01*
X589884Y191426D01*
X589914Y191536D01*
X589947Y191644D01*
X589984Y191751D01*
X590024Y191857D01*
X590069Y191961D01*
X590117Y192064D01*
X590168Y192165D01*
X590223Y192264D01*
X590281Y192361D01*
X590343Y192456D01*
X590408Y192549D01*
X590476Y192639D01*
X590547Y192727D01*
X590622Y192813D01*
X590699Y192896D01*
X590779Y192976D01*
X590862Y193053D01*
X590948Y193128D01*
X591036Y193199D01*
X591126Y193267D01*
X591219Y193332D01*
X591314Y193394D01*
X591411Y193452D01*
X591510Y193507D01*
X591611Y193558D01*
X591714Y193606D01*
X591818Y193651D01*
X591924Y193691D01*
X592031Y193728D01*
X592139Y193761D01*
X592249Y193791D01*
X592359Y193816D01*
X592470Y193838D01*
X592582Y193855D01*
X592695Y193869D01*
X592808Y193879D01*
X592921Y193885D01*
X593034Y193887D01*
X598226Y193887D01*
X598339Y193885D01*
X598452Y193879D01*
X598565Y193869D01*
X598678Y193855D01*
X598790Y193838D01*
X598901Y193816D01*
X599011Y193791D01*
X599121Y193761D01*
X599229Y193728D01*
X599336Y193691D01*
X599442Y193651D01*
X599546Y193606D01*
X599649Y193558D01*
X599750Y193507D01*
X599849Y193452D01*
X599946Y193394D01*
X600041Y193332D01*
X600134Y193267D01*
X600224Y193199D01*
X600312Y193128D01*
X600398Y193053D01*
X600481Y192976D01*
X600561Y192896D01*
X600638Y192813D01*
X600713Y192727D01*
X600784Y192639D01*
X600852Y192549D01*
X600917Y192456D01*
X600979Y192361D01*
X601037Y192264D01*
X601092Y192165D01*
X601143Y192064D01*
X601191Y191961D01*
X601236Y191857D01*
X601276Y191751D01*
X601313Y191644D01*
X601346Y191536D01*
X601376Y191426D01*
X601401Y191316D01*
X601423Y191205D01*
X601440Y191093D01*
X601454Y190980D01*
X601464Y190867D01*
X601470Y190754D01*
X601472Y190641D01*
X601472Y187396D01*
X602770Y198713D02*
X602770Y203906D01*
X601472Y208901D02*
X589788Y208901D01*
X589788Y212146D01*
X589790Y212259D01*
X589796Y212372D01*
X589806Y212485D01*
X589820Y212598D01*
X589837Y212710D01*
X589859Y212821D01*
X589884Y212931D01*
X589914Y213041D01*
X589947Y213149D01*
X589984Y213256D01*
X590024Y213362D01*
X590069Y213466D01*
X590117Y213569D01*
X590168Y213670D01*
X590223Y213769D01*
X590281Y213866D01*
X590343Y213961D01*
X590408Y214054D01*
X590476Y214144D01*
X590547Y214232D01*
X590622Y214318D01*
X590699Y214401D01*
X590779Y214481D01*
X590862Y214558D01*
X590948Y214633D01*
X591036Y214704D01*
X591126Y214772D01*
X591219Y214837D01*
X591314Y214899D01*
X591411Y214957D01*
X591510Y215012D01*
X591611Y215063D01*
X591714Y215111D01*
X591818Y215156D01*
X591924Y215196D01*
X592031Y215233D01*
X592139Y215266D01*
X592249Y215296D01*
X592359Y215321D01*
X592470Y215343D01*
X592582Y215360D01*
X592695Y215374D01*
X592808Y215384D01*
X592921Y215390D01*
X593034Y215392D01*
X593147Y215390D01*
X593260Y215384D01*
X593373Y215374D01*
X593486Y215360D01*
X593598Y215343D01*
X593709Y215321D01*
X593819Y215296D01*
X593929Y215266D01*
X594037Y215233D01*
X594144Y215196D01*
X594250Y215156D01*
X594354Y215111D01*
X594457Y215063D01*
X594558Y215012D01*
X594657Y214957D01*
X594754Y214899D01*
X594849Y214837D01*
X594942Y214772D01*
X595032Y214704D01*
X595120Y214633D01*
X595206Y214558D01*
X595289Y214481D01*
X595369Y214401D01*
X595446Y214318D01*
X595521Y214232D01*
X595592Y214144D01*
X595660Y214054D01*
X595725Y213961D01*
X595787Y213866D01*
X595845Y213769D01*
X595900Y213670D01*
X595951Y213569D01*
X595999Y213466D01*
X596044Y213362D01*
X596084Y213256D01*
X596121Y213149D01*
X596154Y213041D01*
X596184Y212931D01*
X596209Y212821D01*
X596231Y212710D01*
X596248Y212598D01*
X596262Y212485D01*
X596272Y212372D01*
X596278Y212259D01*
X596280Y212146D01*
X596279Y212146D02*
X596279Y208901D01*
X576072Y162913D02*
X564388Y166808D01*
X576072Y170702D01*
X573151Y169729D02*
X573151Y163887D01*
X572826Y175373D02*
X564388Y175373D01*
X572826Y175373D02*
X572939Y175375D01*
X573052Y175381D01*
X573165Y175391D01*
X573278Y175405D01*
X573390Y175422D01*
X573501Y175444D01*
X573611Y175469D01*
X573721Y175499D01*
X573829Y175532D01*
X573936Y175569D01*
X574042Y175609D01*
X574146Y175654D01*
X574249Y175702D01*
X574350Y175753D01*
X574449Y175808D01*
X574546Y175866D01*
X574641Y175928D01*
X574734Y175993D01*
X574824Y176061D01*
X574912Y176132D01*
X574998Y176207D01*
X575081Y176284D01*
X575161Y176364D01*
X575238Y176447D01*
X575313Y176533D01*
X575384Y176621D01*
X575452Y176711D01*
X575517Y176804D01*
X575579Y176899D01*
X575637Y176996D01*
X575692Y177095D01*
X575743Y177196D01*
X575791Y177299D01*
X575836Y177403D01*
X575876Y177509D01*
X575913Y177616D01*
X575946Y177724D01*
X575976Y177834D01*
X576001Y177944D01*
X576023Y178055D01*
X576040Y178167D01*
X576054Y178280D01*
X576064Y178393D01*
X576070Y178506D01*
X576072Y178619D01*
X576070Y178732D01*
X576064Y178845D01*
X576054Y178958D01*
X576040Y179071D01*
X576023Y179183D01*
X576001Y179294D01*
X575976Y179404D01*
X575946Y179514D01*
X575913Y179622D01*
X575876Y179729D01*
X575836Y179835D01*
X575791Y179939D01*
X575743Y180042D01*
X575692Y180143D01*
X575637Y180242D01*
X575579Y180339D01*
X575517Y180434D01*
X575452Y180527D01*
X575384Y180617D01*
X575313Y180705D01*
X575238Y180791D01*
X575161Y180874D01*
X575081Y180954D01*
X574998Y181031D01*
X574912Y181106D01*
X574824Y181177D01*
X574734Y181245D01*
X574641Y181310D01*
X574546Y181372D01*
X574449Y181430D01*
X574350Y181485D01*
X574249Y181536D01*
X574146Y181584D01*
X574042Y181629D01*
X573936Y181669D01*
X573829Y181706D01*
X573721Y181739D01*
X573611Y181769D01*
X573501Y181794D01*
X573390Y181816D01*
X573278Y181833D01*
X573165Y181847D01*
X573052Y181857D01*
X572939Y181863D01*
X572826Y181865D01*
X572826Y181864D02*
X564388Y181864D01*
X564388Y187565D02*
X576072Y187565D01*
X564388Y187565D02*
X564388Y190810D01*
X564390Y190923D01*
X564396Y191036D01*
X564406Y191149D01*
X564420Y191262D01*
X564437Y191374D01*
X564459Y191485D01*
X564484Y191595D01*
X564514Y191705D01*
X564547Y191813D01*
X564584Y191920D01*
X564624Y192026D01*
X564669Y192130D01*
X564717Y192233D01*
X564768Y192334D01*
X564823Y192433D01*
X564881Y192530D01*
X564943Y192625D01*
X565008Y192718D01*
X565076Y192808D01*
X565147Y192896D01*
X565222Y192982D01*
X565299Y193065D01*
X565379Y193145D01*
X565462Y193222D01*
X565548Y193297D01*
X565636Y193368D01*
X565726Y193436D01*
X565819Y193501D01*
X565914Y193563D01*
X566011Y193621D01*
X566110Y193676D01*
X566211Y193727D01*
X566314Y193775D01*
X566418Y193820D01*
X566524Y193860D01*
X566631Y193897D01*
X566739Y193930D01*
X566849Y193960D01*
X566959Y193985D01*
X567070Y194007D01*
X567182Y194024D01*
X567295Y194038D01*
X567408Y194048D01*
X567521Y194054D01*
X567634Y194056D01*
X572826Y194056D01*
X572826Y194057D02*
X572939Y194055D01*
X573052Y194049D01*
X573165Y194039D01*
X573278Y194025D01*
X573390Y194008D01*
X573501Y193986D01*
X573611Y193961D01*
X573721Y193931D01*
X573829Y193898D01*
X573936Y193861D01*
X574042Y193821D01*
X574146Y193776D01*
X574249Y193728D01*
X574350Y193677D01*
X574449Y193622D01*
X574546Y193564D01*
X574641Y193502D01*
X574734Y193437D01*
X574824Y193369D01*
X574912Y193298D01*
X574998Y193223D01*
X575081Y193146D01*
X575161Y193066D01*
X575238Y192983D01*
X575313Y192897D01*
X575384Y192809D01*
X575452Y192719D01*
X575517Y192626D01*
X575579Y192531D01*
X575637Y192434D01*
X575692Y192335D01*
X575743Y192234D01*
X575791Y192131D01*
X575836Y192027D01*
X575876Y191921D01*
X575913Y191814D01*
X575946Y191706D01*
X575976Y191596D01*
X576001Y191486D01*
X576023Y191375D01*
X576040Y191263D01*
X576054Y191150D01*
X576064Y191037D01*
X576070Y190924D01*
X576072Y190811D01*
X576072Y190810D02*
X576072Y187565D01*
X577370Y198882D02*
X577370Y204075D01*
X576072Y208901D02*
X564388Y208901D01*
X576072Y215392D01*
X564388Y215392D01*
X548076Y168074D02*
X548175Y168072D01*
X548275Y168066D01*
X548374Y168057D01*
X548472Y168044D01*
X548570Y168027D01*
X548668Y168006D01*
X548764Y167981D01*
X548859Y167953D01*
X548953Y167921D01*
X549046Y167886D01*
X549138Y167847D01*
X549228Y167804D01*
X549316Y167759D01*
X549403Y167709D01*
X549487Y167657D01*
X549570Y167601D01*
X549650Y167543D01*
X549728Y167481D01*
X549803Y167416D01*
X549876Y167348D01*
X549946Y167278D01*
X550014Y167205D01*
X550079Y167130D01*
X550141Y167052D01*
X550199Y166972D01*
X550255Y166889D01*
X550307Y166805D01*
X550357Y166718D01*
X550402Y166630D01*
X550445Y166540D01*
X550484Y166448D01*
X550519Y166355D01*
X550551Y166261D01*
X550579Y166166D01*
X550604Y166070D01*
X550625Y165972D01*
X550642Y165874D01*
X550655Y165776D01*
X550664Y165677D01*
X550670Y165577D01*
X550672Y165478D01*
X550670Y165334D01*
X550664Y165189D01*
X550655Y165045D01*
X550642Y164902D01*
X550625Y164758D01*
X550604Y164615D01*
X550579Y164473D01*
X550551Y164332D01*
X550519Y164191D01*
X550483Y164051D01*
X550444Y163912D01*
X550401Y163774D01*
X550354Y163638D01*
X550304Y163502D01*
X550250Y163368D01*
X550193Y163236D01*
X550132Y163105D01*
X550068Y162976D01*
X550000Y162848D01*
X549930Y162722D01*
X549855Y162598D01*
X549778Y162477D01*
X549697Y162357D01*
X549614Y162239D01*
X549527Y162124D01*
X549437Y162011D01*
X549344Y161900D01*
X549249Y161792D01*
X549150Y161686D01*
X549049Y161583D01*
X541584Y161908D02*
X541485Y161910D01*
X541385Y161916D01*
X541286Y161925D01*
X541188Y161938D01*
X541090Y161955D01*
X540992Y161976D01*
X540896Y162001D01*
X540801Y162029D01*
X540707Y162061D01*
X540614Y162096D01*
X540522Y162135D01*
X540432Y162178D01*
X540344Y162223D01*
X540257Y162273D01*
X540173Y162325D01*
X540090Y162381D01*
X540010Y162439D01*
X539932Y162501D01*
X539857Y162566D01*
X539784Y162634D01*
X539714Y162704D01*
X539646Y162777D01*
X539581Y162852D01*
X539519Y162930D01*
X539461Y163010D01*
X539405Y163093D01*
X539353Y163177D01*
X539303Y163264D01*
X539258Y163352D01*
X539215Y163442D01*
X539176Y163534D01*
X539141Y163627D01*
X539109Y163721D01*
X539081Y163816D01*
X539056Y163912D01*
X539035Y164010D01*
X539018Y164108D01*
X539005Y164206D01*
X538996Y164305D01*
X538990Y164405D01*
X538988Y164504D01*
X538990Y164640D01*
X538996Y164776D01*
X539005Y164912D01*
X539018Y165048D01*
X539036Y165183D01*
X539056Y165317D01*
X539081Y165451D01*
X539109Y165585D01*
X539142Y165717D01*
X539177Y165848D01*
X539217Y165979D01*
X539260Y166108D01*
X539306Y166236D01*
X539357Y166362D01*
X539410Y166488D01*
X539468Y166611D01*
X539528Y166733D01*
X539592Y166853D01*
X539660Y166972D01*
X539730Y167088D01*
X539804Y167202D01*
X539881Y167315D01*
X539962Y167425D01*
X543856Y163206D02*
X543803Y163120D01*
X543746Y163036D01*
X543687Y162954D01*
X543624Y162874D01*
X543558Y162797D01*
X543490Y162722D01*
X543418Y162650D01*
X543344Y162581D01*
X543267Y162515D01*
X543188Y162452D01*
X543106Y162392D01*
X543022Y162335D01*
X542936Y162281D01*
X542848Y162231D01*
X542758Y162184D01*
X542667Y162140D01*
X542573Y162101D01*
X542479Y162064D01*
X542383Y162032D01*
X542285Y162003D01*
X542187Y161978D01*
X542088Y161957D01*
X541988Y161939D01*
X541888Y161926D01*
X541787Y161916D01*
X541685Y161910D01*
X541584Y161908D01*
X545804Y166776D02*
X545857Y166862D01*
X545914Y166946D01*
X545973Y167028D01*
X546036Y167108D01*
X546102Y167185D01*
X546170Y167260D01*
X546242Y167332D01*
X546316Y167401D01*
X546393Y167467D01*
X546472Y167530D01*
X546554Y167590D01*
X546638Y167647D01*
X546724Y167701D01*
X546812Y167751D01*
X546902Y167798D01*
X546993Y167842D01*
X547087Y167881D01*
X547181Y167918D01*
X547277Y167950D01*
X547375Y167979D01*
X547473Y168004D01*
X547572Y168025D01*
X547672Y168043D01*
X547772Y168056D01*
X547873Y168066D01*
X547975Y168072D01*
X548076Y168074D01*
X545804Y166776D02*
X543856Y163206D01*
X538988Y172209D02*
X550672Y174805D01*
X542883Y177402D01*
X550672Y179998D01*
X538988Y182595D01*
X551970Y186616D02*
X551970Y191809D01*
X550672Y196635D02*
X538988Y196635D01*
X544181Y196635D02*
X544181Y203126D01*
X538988Y203126D02*
X550672Y203126D01*
X550672Y208901D02*
X538988Y208901D01*
X538988Y212146D01*
X538990Y212259D01*
X538996Y212372D01*
X539006Y212485D01*
X539020Y212598D01*
X539037Y212710D01*
X539059Y212821D01*
X539084Y212931D01*
X539114Y213041D01*
X539147Y213149D01*
X539184Y213256D01*
X539224Y213362D01*
X539269Y213466D01*
X539317Y213569D01*
X539368Y213670D01*
X539423Y213769D01*
X539481Y213866D01*
X539543Y213961D01*
X539608Y214054D01*
X539676Y214144D01*
X539747Y214232D01*
X539822Y214318D01*
X539899Y214401D01*
X539979Y214481D01*
X540062Y214558D01*
X540148Y214633D01*
X540236Y214704D01*
X540326Y214772D01*
X540419Y214837D01*
X540514Y214899D01*
X540611Y214957D01*
X540710Y215012D01*
X540811Y215063D01*
X540914Y215111D01*
X541018Y215156D01*
X541124Y215196D01*
X541231Y215233D01*
X541339Y215266D01*
X541449Y215296D01*
X541559Y215321D01*
X541670Y215343D01*
X541782Y215360D01*
X541895Y215374D01*
X542008Y215384D01*
X542121Y215390D01*
X542234Y215392D01*
X542347Y215390D01*
X542460Y215384D01*
X542573Y215374D01*
X542686Y215360D01*
X542798Y215343D01*
X542909Y215321D01*
X543019Y215296D01*
X543129Y215266D01*
X543237Y215233D01*
X543344Y215196D01*
X543450Y215156D01*
X543554Y215111D01*
X543657Y215063D01*
X543758Y215012D01*
X543857Y214957D01*
X543954Y214899D01*
X544049Y214837D01*
X544142Y214772D01*
X544232Y214704D01*
X544320Y214633D01*
X544406Y214558D01*
X544489Y214481D01*
X544569Y214401D01*
X544646Y214318D01*
X544721Y214232D01*
X544792Y214144D01*
X544860Y214054D01*
X544925Y213961D01*
X544987Y213866D01*
X545045Y213769D01*
X545100Y213670D01*
X545151Y213569D01*
X545199Y213466D01*
X545244Y213362D01*
X545284Y213256D01*
X545321Y213149D01*
X545354Y213041D01*
X545384Y212931D01*
X545409Y212821D01*
X545431Y212710D01*
X545448Y212598D01*
X545462Y212485D01*
X545472Y212372D01*
X545478Y212259D01*
X545480Y212146D01*
X545479Y212146D02*
X545479Y208901D01*
X545479Y212796D02*
X550672Y215392D01*
X522676Y159766D02*
X522775Y159764D01*
X522875Y159758D01*
X522974Y159749D01*
X523072Y159736D01*
X523170Y159719D01*
X523268Y159698D01*
X523364Y159673D01*
X523459Y159645D01*
X523553Y159613D01*
X523646Y159578D01*
X523738Y159539D01*
X523828Y159496D01*
X523916Y159451D01*
X524003Y159401D01*
X524087Y159349D01*
X524170Y159293D01*
X524250Y159235D01*
X524328Y159173D01*
X524403Y159108D01*
X524476Y159040D01*
X524546Y158970D01*
X524614Y158897D01*
X524679Y158822D01*
X524741Y158744D01*
X524799Y158664D01*
X524855Y158581D01*
X524907Y158497D01*
X524957Y158410D01*
X525002Y158322D01*
X525045Y158232D01*
X525084Y158140D01*
X525119Y158047D01*
X525151Y157953D01*
X525179Y157858D01*
X525204Y157762D01*
X525225Y157664D01*
X525242Y157566D01*
X525255Y157468D01*
X525264Y157369D01*
X525270Y157269D01*
X525272Y157170D01*
X525270Y157026D01*
X525264Y156881D01*
X525255Y156737D01*
X525242Y156594D01*
X525225Y156450D01*
X525204Y156307D01*
X525179Y156165D01*
X525151Y156024D01*
X525119Y155883D01*
X525083Y155743D01*
X525044Y155604D01*
X525001Y155466D01*
X524954Y155330D01*
X524904Y155194D01*
X524850Y155060D01*
X524793Y154928D01*
X524732Y154797D01*
X524668Y154668D01*
X524600Y154540D01*
X524530Y154414D01*
X524455Y154290D01*
X524378Y154169D01*
X524297Y154049D01*
X524214Y153931D01*
X524127Y153816D01*
X524037Y153703D01*
X523944Y153592D01*
X523849Y153484D01*
X523750Y153378D01*
X523649Y153275D01*
X516184Y153600D02*
X516085Y153602D01*
X515985Y153608D01*
X515886Y153617D01*
X515788Y153630D01*
X515690Y153647D01*
X515592Y153668D01*
X515496Y153693D01*
X515401Y153721D01*
X515307Y153753D01*
X515214Y153788D01*
X515122Y153827D01*
X515032Y153870D01*
X514944Y153915D01*
X514857Y153965D01*
X514773Y154017D01*
X514690Y154073D01*
X514610Y154131D01*
X514532Y154193D01*
X514457Y154258D01*
X514384Y154326D01*
X514314Y154396D01*
X514246Y154469D01*
X514181Y154544D01*
X514119Y154622D01*
X514061Y154702D01*
X514005Y154785D01*
X513953Y154869D01*
X513903Y154956D01*
X513858Y155044D01*
X513815Y155134D01*
X513776Y155226D01*
X513741Y155319D01*
X513709Y155413D01*
X513681Y155508D01*
X513656Y155604D01*
X513635Y155702D01*
X513618Y155800D01*
X513605Y155898D01*
X513596Y155997D01*
X513590Y156097D01*
X513588Y156196D01*
X513590Y156332D01*
X513596Y156468D01*
X513605Y156604D01*
X513618Y156740D01*
X513636Y156875D01*
X513656Y157009D01*
X513681Y157143D01*
X513709Y157277D01*
X513742Y157409D01*
X513777Y157540D01*
X513817Y157671D01*
X513860Y157800D01*
X513906Y157928D01*
X513957Y158054D01*
X514010Y158180D01*
X514068Y158303D01*
X514128Y158425D01*
X514192Y158545D01*
X514260Y158664D01*
X514330Y158780D01*
X514404Y158894D01*
X514481Y159007D01*
X514562Y159117D01*
X518456Y154897D02*
X518403Y154811D01*
X518346Y154727D01*
X518287Y154645D01*
X518224Y154565D01*
X518158Y154488D01*
X518090Y154413D01*
X518018Y154341D01*
X517944Y154272D01*
X517867Y154206D01*
X517788Y154143D01*
X517706Y154083D01*
X517622Y154026D01*
X517536Y153972D01*
X517448Y153922D01*
X517358Y153875D01*
X517267Y153831D01*
X517173Y153792D01*
X517079Y153755D01*
X516983Y153723D01*
X516885Y153694D01*
X516787Y153669D01*
X516688Y153648D01*
X516588Y153630D01*
X516488Y153617D01*
X516387Y153607D01*
X516285Y153601D01*
X516184Y153599D01*
X520404Y158468D02*
X520457Y158554D01*
X520514Y158638D01*
X520573Y158720D01*
X520636Y158800D01*
X520702Y158877D01*
X520770Y158952D01*
X520842Y159024D01*
X520916Y159093D01*
X520993Y159159D01*
X521072Y159222D01*
X521154Y159282D01*
X521238Y159339D01*
X521324Y159393D01*
X521412Y159443D01*
X521502Y159490D01*
X521593Y159534D01*
X521687Y159573D01*
X521781Y159610D01*
X521877Y159642D01*
X521975Y159671D01*
X522073Y159696D01*
X522172Y159717D01*
X522272Y159735D01*
X522372Y159748D01*
X522473Y159758D01*
X522575Y159764D01*
X522676Y159766D01*
X520404Y158468D02*
X518456Y154898D01*
X513588Y163901D02*
X525272Y166497D01*
X517483Y169093D01*
X525272Y171690D01*
X513588Y174286D01*
X526570Y178308D02*
X526570Y183501D01*
X525272Y188440D02*
X513588Y188440D01*
X520079Y192334D01*
X513588Y196229D01*
X525272Y196229D01*
X525272Y202621D02*
X513588Y202621D01*
X525272Y201323D02*
X525272Y203920D01*
X513588Y203920D02*
X513588Y201323D01*
X513588Y208901D02*
X525272Y208901D01*
X525272Y215392D02*
X513588Y208901D01*
X513588Y215392D02*
X525272Y215392D01*
D11*
X502920Y259080D02*
X759460Y259080D01*
X502920Y259080D02*
X502920Y233680D01*
X759460Y233680D01*
X759460Y259080D01*
D10*
X135890Y228600D02*
X92710Y228600D01*
X92710Y203200D02*
X135890Y203200D01*
X138430Y205740D02*
X138430Y226060D01*
X90170Y226060D02*
X90170Y205740D01*
X135890Y228600D02*
X135990Y228598D01*
X136089Y228592D01*
X136189Y228582D01*
X136287Y228569D01*
X136386Y228551D01*
X136483Y228530D01*
X136579Y228505D01*
X136675Y228476D01*
X136769Y228443D01*
X136862Y228407D01*
X136953Y228367D01*
X137043Y228323D01*
X137131Y228276D01*
X137217Y228226D01*
X137301Y228172D01*
X137383Y228115D01*
X137462Y228055D01*
X137540Y227991D01*
X137614Y227925D01*
X137686Y227856D01*
X137755Y227784D01*
X137821Y227710D01*
X137885Y227632D01*
X137945Y227553D01*
X138002Y227471D01*
X138056Y227387D01*
X138106Y227301D01*
X138153Y227213D01*
X138197Y227123D01*
X138237Y227032D01*
X138273Y226939D01*
X138306Y226845D01*
X138335Y226749D01*
X138360Y226653D01*
X138381Y226556D01*
X138399Y226457D01*
X138412Y226359D01*
X138422Y226259D01*
X138428Y226160D01*
X138430Y226060D01*
X92710Y228600D02*
X92610Y228598D01*
X92511Y228592D01*
X92411Y228582D01*
X92313Y228569D01*
X92214Y228551D01*
X92117Y228530D01*
X92021Y228505D01*
X91925Y228476D01*
X91831Y228443D01*
X91738Y228407D01*
X91647Y228367D01*
X91557Y228323D01*
X91469Y228276D01*
X91383Y228226D01*
X91299Y228172D01*
X91217Y228115D01*
X91138Y228055D01*
X91060Y227991D01*
X90986Y227925D01*
X90914Y227856D01*
X90845Y227784D01*
X90779Y227710D01*
X90715Y227632D01*
X90655Y227553D01*
X90598Y227471D01*
X90544Y227387D01*
X90494Y227301D01*
X90447Y227213D01*
X90403Y227123D01*
X90363Y227032D01*
X90327Y226939D01*
X90294Y226845D01*
X90265Y226749D01*
X90240Y226653D01*
X90219Y226556D01*
X90201Y226457D01*
X90188Y226359D01*
X90178Y226259D01*
X90172Y226160D01*
X90170Y226060D01*
X135890Y203200D02*
X135990Y203202D01*
X136089Y203208D01*
X136189Y203218D01*
X136287Y203231D01*
X136386Y203249D01*
X136483Y203270D01*
X136579Y203295D01*
X136675Y203324D01*
X136769Y203357D01*
X136862Y203393D01*
X136953Y203433D01*
X137043Y203477D01*
X137131Y203524D01*
X137217Y203574D01*
X137301Y203628D01*
X137383Y203685D01*
X137462Y203745D01*
X137540Y203809D01*
X137614Y203875D01*
X137686Y203944D01*
X137755Y204016D01*
X137821Y204090D01*
X137885Y204168D01*
X137945Y204247D01*
X138002Y204329D01*
X138056Y204413D01*
X138106Y204499D01*
X138153Y204587D01*
X138197Y204677D01*
X138237Y204768D01*
X138273Y204861D01*
X138306Y204955D01*
X138335Y205051D01*
X138360Y205147D01*
X138381Y205244D01*
X138399Y205343D01*
X138412Y205441D01*
X138422Y205541D01*
X138428Y205640D01*
X138430Y205740D01*
X92710Y203200D02*
X92610Y203202D01*
X92511Y203208D01*
X92411Y203218D01*
X92313Y203231D01*
X92214Y203249D01*
X92117Y203270D01*
X92021Y203295D01*
X91925Y203324D01*
X91831Y203357D01*
X91738Y203393D01*
X91647Y203433D01*
X91557Y203477D01*
X91469Y203524D01*
X91383Y203574D01*
X91299Y203628D01*
X91217Y203685D01*
X91138Y203745D01*
X91060Y203809D01*
X90986Y203875D01*
X90914Y203944D01*
X90845Y204016D01*
X90779Y204090D01*
X90715Y204168D01*
X90655Y204247D01*
X90598Y204329D01*
X90544Y204413D01*
X90494Y204499D01*
X90447Y204587D01*
X90403Y204677D01*
X90363Y204768D01*
X90327Y204861D01*
X90294Y204955D01*
X90265Y205051D01*
X90240Y205147D01*
X90219Y205244D01*
X90201Y205343D01*
X90188Y205441D01*
X90178Y205541D01*
X90172Y205640D01*
X90170Y205740D01*
X116840Y215900D02*
X118110Y215900D01*
D15*
X116840Y215900D02*
X116840Y223520D01*
X116840Y215900D02*
X116840Y208280D01*
X111760Y215900D02*
X111760Y223520D01*
X111760Y215900D02*
X111760Y208280D01*
D10*
X111760Y215900D02*
X110490Y215900D01*
D11*
X97155Y231775D02*
X94615Y231775D01*
X94515Y231777D01*
X94416Y231783D01*
X94316Y231793D01*
X94218Y231806D01*
X94119Y231824D01*
X94022Y231845D01*
X93926Y231870D01*
X93830Y231899D01*
X93736Y231932D01*
X93643Y231968D01*
X93552Y232008D01*
X93462Y232052D01*
X93374Y232099D01*
X93288Y232149D01*
X93204Y232203D01*
X93122Y232260D01*
X93043Y232320D01*
X92965Y232384D01*
X92891Y232450D01*
X92819Y232519D01*
X92750Y232591D01*
X92684Y232665D01*
X92620Y232743D01*
X92560Y232822D01*
X92503Y232904D01*
X92449Y232988D01*
X92399Y233074D01*
X92352Y233162D01*
X92308Y233252D01*
X92268Y233343D01*
X92232Y233436D01*
X92199Y233530D01*
X92170Y233626D01*
X92145Y233722D01*
X92124Y233819D01*
X92106Y233918D01*
X92093Y234016D01*
X92083Y234116D01*
X92077Y234215D01*
X92075Y234315D01*
X92075Y240665D01*
X92077Y240765D01*
X92083Y240864D01*
X92093Y240964D01*
X92106Y241062D01*
X92124Y241161D01*
X92145Y241258D01*
X92170Y241354D01*
X92199Y241450D01*
X92232Y241544D01*
X92268Y241637D01*
X92308Y241728D01*
X92352Y241818D01*
X92399Y241906D01*
X92449Y241992D01*
X92503Y242076D01*
X92560Y242158D01*
X92620Y242237D01*
X92684Y242315D01*
X92750Y242389D01*
X92819Y242461D01*
X92891Y242530D01*
X92965Y242596D01*
X93043Y242660D01*
X93122Y242720D01*
X93204Y242777D01*
X93288Y242831D01*
X93374Y242881D01*
X93462Y242928D01*
X93552Y242972D01*
X93643Y243012D01*
X93736Y243048D01*
X93830Y243081D01*
X93926Y243110D01*
X94022Y243135D01*
X94119Y243156D01*
X94218Y243174D01*
X94316Y243187D01*
X94416Y243197D01*
X94515Y243203D01*
X94615Y243205D01*
X97155Y243205D01*
X101637Y240665D02*
X104812Y243205D01*
X104812Y231775D01*
X101637Y231775D02*
X107987Y231775D01*
D10*
X92710Y266700D02*
X135890Y266700D01*
X135890Y241300D02*
X92710Y241300D01*
X138430Y243840D02*
X138430Y264160D01*
X90170Y264160D02*
X90170Y243840D01*
X135890Y266700D02*
X135990Y266698D01*
X136089Y266692D01*
X136189Y266682D01*
X136287Y266669D01*
X136386Y266651D01*
X136483Y266630D01*
X136579Y266605D01*
X136675Y266576D01*
X136769Y266543D01*
X136862Y266507D01*
X136953Y266467D01*
X137043Y266423D01*
X137131Y266376D01*
X137217Y266326D01*
X137301Y266272D01*
X137383Y266215D01*
X137462Y266155D01*
X137540Y266091D01*
X137614Y266025D01*
X137686Y265956D01*
X137755Y265884D01*
X137821Y265810D01*
X137885Y265732D01*
X137945Y265653D01*
X138002Y265571D01*
X138056Y265487D01*
X138106Y265401D01*
X138153Y265313D01*
X138197Y265223D01*
X138237Y265132D01*
X138273Y265039D01*
X138306Y264945D01*
X138335Y264849D01*
X138360Y264753D01*
X138381Y264656D01*
X138399Y264557D01*
X138412Y264459D01*
X138422Y264359D01*
X138428Y264260D01*
X138430Y264160D01*
X92710Y266700D02*
X92610Y266698D01*
X92511Y266692D01*
X92411Y266682D01*
X92313Y266669D01*
X92214Y266651D01*
X92117Y266630D01*
X92021Y266605D01*
X91925Y266576D01*
X91831Y266543D01*
X91738Y266507D01*
X91647Y266467D01*
X91557Y266423D01*
X91469Y266376D01*
X91383Y266326D01*
X91299Y266272D01*
X91217Y266215D01*
X91138Y266155D01*
X91060Y266091D01*
X90986Y266025D01*
X90914Y265956D01*
X90845Y265884D01*
X90779Y265810D01*
X90715Y265732D01*
X90655Y265653D01*
X90598Y265571D01*
X90544Y265487D01*
X90494Y265401D01*
X90447Y265313D01*
X90403Y265223D01*
X90363Y265132D01*
X90327Y265039D01*
X90294Y264945D01*
X90265Y264849D01*
X90240Y264753D01*
X90219Y264656D01*
X90201Y264557D01*
X90188Y264459D01*
X90178Y264359D01*
X90172Y264260D01*
X90170Y264160D01*
X135890Y241300D02*
X135990Y241302D01*
X136089Y241308D01*
X136189Y241318D01*
X136287Y241331D01*
X136386Y241349D01*
X136483Y241370D01*
X136579Y241395D01*
X136675Y241424D01*
X136769Y241457D01*
X136862Y241493D01*
X136953Y241533D01*
X137043Y241577D01*
X137131Y241624D01*
X137217Y241674D01*
X137301Y241728D01*
X137383Y241785D01*
X137462Y241845D01*
X137540Y241909D01*
X137614Y241975D01*
X137686Y242044D01*
X137755Y242116D01*
X137821Y242190D01*
X137885Y242268D01*
X137945Y242347D01*
X138002Y242429D01*
X138056Y242513D01*
X138106Y242599D01*
X138153Y242687D01*
X138197Y242777D01*
X138237Y242868D01*
X138273Y242961D01*
X138306Y243055D01*
X138335Y243151D01*
X138360Y243247D01*
X138381Y243344D01*
X138399Y243443D01*
X138412Y243541D01*
X138422Y243641D01*
X138428Y243740D01*
X138430Y243840D01*
X92710Y241300D02*
X92610Y241302D01*
X92511Y241308D01*
X92411Y241318D01*
X92313Y241331D01*
X92214Y241349D01*
X92117Y241370D01*
X92021Y241395D01*
X91925Y241424D01*
X91831Y241457D01*
X91738Y241493D01*
X91647Y241533D01*
X91557Y241577D01*
X91469Y241624D01*
X91383Y241674D01*
X91299Y241728D01*
X91217Y241785D01*
X91138Y241845D01*
X91060Y241909D01*
X90986Y241975D01*
X90914Y242044D01*
X90845Y242116D01*
X90779Y242190D01*
X90715Y242268D01*
X90655Y242347D01*
X90598Y242429D01*
X90544Y242513D01*
X90494Y242599D01*
X90447Y242687D01*
X90403Y242777D01*
X90363Y242868D01*
X90327Y242961D01*
X90294Y243055D01*
X90265Y243151D01*
X90240Y243247D01*
X90219Y243344D01*
X90201Y243443D01*
X90188Y243541D01*
X90178Y243641D01*
X90172Y243740D01*
X90170Y243840D01*
X116840Y254000D02*
X118110Y254000D01*
D15*
X116840Y254000D02*
X116840Y261620D01*
X116840Y254000D02*
X116840Y246380D01*
X111760Y254000D02*
X111760Y261620D01*
X111760Y254000D02*
X111760Y246380D01*
D10*
X111760Y254000D02*
X110490Y254000D01*
D11*
X97155Y269875D02*
X94615Y269875D01*
X94515Y269877D01*
X94416Y269883D01*
X94316Y269893D01*
X94218Y269906D01*
X94119Y269924D01*
X94022Y269945D01*
X93926Y269970D01*
X93830Y269999D01*
X93736Y270032D01*
X93643Y270068D01*
X93552Y270108D01*
X93462Y270152D01*
X93374Y270199D01*
X93288Y270249D01*
X93204Y270303D01*
X93122Y270360D01*
X93043Y270420D01*
X92965Y270484D01*
X92891Y270550D01*
X92819Y270619D01*
X92750Y270691D01*
X92684Y270765D01*
X92620Y270843D01*
X92560Y270922D01*
X92503Y271004D01*
X92449Y271088D01*
X92399Y271174D01*
X92352Y271262D01*
X92308Y271352D01*
X92268Y271443D01*
X92232Y271536D01*
X92199Y271630D01*
X92170Y271726D01*
X92145Y271822D01*
X92124Y271919D01*
X92106Y272018D01*
X92093Y272116D01*
X92083Y272216D01*
X92077Y272315D01*
X92075Y272415D01*
X92075Y278765D01*
X92077Y278865D01*
X92083Y278964D01*
X92093Y279064D01*
X92106Y279162D01*
X92124Y279261D01*
X92145Y279358D01*
X92170Y279454D01*
X92199Y279550D01*
X92232Y279644D01*
X92268Y279737D01*
X92308Y279828D01*
X92352Y279918D01*
X92399Y280006D01*
X92449Y280092D01*
X92503Y280176D01*
X92560Y280258D01*
X92620Y280337D01*
X92684Y280415D01*
X92750Y280489D01*
X92819Y280561D01*
X92891Y280630D01*
X92965Y280696D01*
X93043Y280760D01*
X93122Y280820D01*
X93204Y280877D01*
X93288Y280931D01*
X93374Y280981D01*
X93462Y281028D01*
X93552Y281072D01*
X93643Y281112D01*
X93736Y281148D01*
X93830Y281181D01*
X93926Y281210D01*
X94022Y281235D01*
X94119Y281256D01*
X94218Y281274D01*
X94316Y281287D01*
X94416Y281297D01*
X94515Y281303D01*
X94615Y281305D01*
X97155Y281305D01*
X105130Y281306D02*
X105234Y281304D01*
X105339Y281298D01*
X105443Y281289D01*
X105546Y281276D01*
X105649Y281258D01*
X105751Y281238D01*
X105853Y281213D01*
X105953Y281185D01*
X106053Y281153D01*
X106151Y281117D01*
X106248Y281078D01*
X106343Y281036D01*
X106437Y280990D01*
X106529Y280940D01*
X106619Y280888D01*
X106707Y280832D01*
X106793Y280772D01*
X106877Y280710D01*
X106958Y280645D01*
X107037Y280577D01*
X107114Y280505D01*
X107187Y280432D01*
X107259Y280355D01*
X107327Y280276D01*
X107392Y280195D01*
X107454Y280111D01*
X107514Y280025D01*
X107570Y279937D01*
X107622Y279847D01*
X107672Y279755D01*
X107718Y279661D01*
X107760Y279566D01*
X107799Y279469D01*
X107835Y279371D01*
X107867Y279271D01*
X107895Y279171D01*
X107920Y279069D01*
X107940Y278967D01*
X107958Y278864D01*
X107971Y278761D01*
X107980Y278657D01*
X107986Y278552D01*
X107988Y278448D01*
X105130Y281305D02*
X105012Y281303D01*
X104893Y281297D01*
X104775Y281288D01*
X104658Y281275D01*
X104541Y281257D01*
X104424Y281237D01*
X104308Y281212D01*
X104193Y281184D01*
X104080Y281151D01*
X103967Y281116D01*
X103855Y281076D01*
X103745Y281034D01*
X103636Y280987D01*
X103528Y280937D01*
X103423Y280884D01*
X103319Y280827D01*
X103217Y280767D01*
X103117Y280704D01*
X103019Y280637D01*
X102923Y280568D01*
X102830Y280495D01*
X102739Y280419D01*
X102650Y280341D01*
X102564Y280259D01*
X102481Y280175D01*
X102400Y280089D01*
X102323Y279999D01*
X102248Y279908D01*
X102176Y279814D01*
X102107Y279717D01*
X102042Y279619D01*
X101979Y279518D01*
X101920Y279415D01*
X101864Y279311D01*
X101812Y279205D01*
X101763Y279097D01*
X101718Y278988D01*
X101676Y278877D01*
X101638Y278765D01*
X107035Y276226D02*
X107111Y276301D01*
X107186Y276380D01*
X107257Y276461D01*
X107326Y276545D01*
X107391Y276631D01*
X107453Y276719D01*
X107513Y276809D01*
X107569Y276901D01*
X107622Y276996D01*
X107671Y277092D01*
X107717Y277190D01*
X107760Y277289D01*
X107799Y277390D01*
X107834Y277492D01*
X107866Y277595D01*
X107894Y277699D01*
X107919Y277804D01*
X107940Y277911D01*
X107957Y278017D01*
X107970Y278124D01*
X107979Y278232D01*
X107985Y278340D01*
X107987Y278448D01*
X107035Y276225D02*
X101637Y269875D01*
X107987Y269875D01*
D10*
X422910Y317500D02*
X466090Y317500D01*
X466090Y292100D02*
X422910Y292100D01*
X468630Y294640D02*
X468630Y314960D01*
X420370Y314960D02*
X420370Y294640D01*
X466090Y317500D02*
X466190Y317498D01*
X466289Y317492D01*
X466389Y317482D01*
X466487Y317469D01*
X466586Y317451D01*
X466683Y317430D01*
X466779Y317405D01*
X466875Y317376D01*
X466969Y317343D01*
X467062Y317307D01*
X467153Y317267D01*
X467243Y317223D01*
X467331Y317176D01*
X467417Y317126D01*
X467501Y317072D01*
X467583Y317015D01*
X467662Y316955D01*
X467740Y316891D01*
X467814Y316825D01*
X467886Y316756D01*
X467955Y316684D01*
X468021Y316610D01*
X468085Y316532D01*
X468145Y316453D01*
X468202Y316371D01*
X468256Y316287D01*
X468306Y316201D01*
X468353Y316113D01*
X468397Y316023D01*
X468437Y315932D01*
X468473Y315839D01*
X468506Y315745D01*
X468535Y315649D01*
X468560Y315553D01*
X468581Y315456D01*
X468599Y315357D01*
X468612Y315259D01*
X468622Y315159D01*
X468628Y315060D01*
X468630Y314960D01*
X422910Y317500D02*
X422810Y317498D01*
X422711Y317492D01*
X422611Y317482D01*
X422513Y317469D01*
X422414Y317451D01*
X422317Y317430D01*
X422221Y317405D01*
X422125Y317376D01*
X422031Y317343D01*
X421938Y317307D01*
X421847Y317267D01*
X421757Y317223D01*
X421669Y317176D01*
X421583Y317126D01*
X421499Y317072D01*
X421417Y317015D01*
X421338Y316955D01*
X421260Y316891D01*
X421186Y316825D01*
X421114Y316756D01*
X421045Y316684D01*
X420979Y316610D01*
X420915Y316532D01*
X420855Y316453D01*
X420798Y316371D01*
X420744Y316287D01*
X420694Y316201D01*
X420647Y316113D01*
X420603Y316023D01*
X420563Y315932D01*
X420527Y315839D01*
X420494Y315745D01*
X420465Y315649D01*
X420440Y315553D01*
X420419Y315456D01*
X420401Y315357D01*
X420388Y315259D01*
X420378Y315159D01*
X420372Y315060D01*
X420370Y314960D01*
X466090Y292100D02*
X466190Y292102D01*
X466289Y292108D01*
X466389Y292118D01*
X466487Y292131D01*
X466586Y292149D01*
X466683Y292170D01*
X466779Y292195D01*
X466875Y292224D01*
X466969Y292257D01*
X467062Y292293D01*
X467153Y292333D01*
X467243Y292377D01*
X467331Y292424D01*
X467417Y292474D01*
X467501Y292528D01*
X467583Y292585D01*
X467662Y292645D01*
X467740Y292709D01*
X467814Y292775D01*
X467886Y292844D01*
X467955Y292916D01*
X468021Y292990D01*
X468085Y293068D01*
X468145Y293147D01*
X468202Y293229D01*
X468256Y293313D01*
X468306Y293399D01*
X468353Y293487D01*
X468397Y293577D01*
X468437Y293668D01*
X468473Y293761D01*
X468506Y293855D01*
X468535Y293951D01*
X468560Y294047D01*
X468581Y294144D01*
X468599Y294243D01*
X468612Y294341D01*
X468622Y294441D01*
X468628Y294540D01*
X468630Y294640D01*
X422910Y292100D02*
X422810Y292102D01*
X422711Y292108D01*
X422611Y292118D01*
X422513Y292131D01*
X422414Y292149D01*
X422317Y292170D01*
X422221Y292195D01*
X422125Y292224D01*
X422031Y292257D01*
X421938Y292293D01*
X421847Y292333D01*
X421757Y292377D01*
X421669Y292424D01*
X421583Y292474D01*
X421499Y292528D01*
X421417Y292585D01*
X421338Y292645D01*
X421260Y292709D01*
X421186Y292775D01*
X421114Y292844D01*
X421045Y292916D01*
X420979Y292990D01*
X420915Y293068D01*
X420855Y293147D01*
X420798Y293229D01*
X420744Y293313D01*
X420694Y293399D01*
X420647Y293487D01*
X420603Y293577D01*
X420563Y293668D01*
X420527Y293761D01*
X420494Y293855D01*
X420465Y293951D01*
X420440Y294047D01*
X420419Y294144D01*
X420401Y294243D01*
X420388Y294341D01*
X420378Y294441D01*
X420372Y294540D01*
X420370Y294640D01*
X447040Y304800D02*
X448310Y304800D01*
D15*
X447040Y304800D02*
X447040Y312420D01*
X447040Y304800D02*
X447040Y297180D01*
X441960Y304800D02*
X441960Y312420D01*
X441960Y304800D02*
X441960Y297180D01*
D10*
X441960Y304800D02*
X440690Y304800D01*
D11*
X427355Y320675D02*
X424815Y320675D01*
X424715Y320677D01*
X424616Y320683D01*
X424516Y320693D01*
X424418Y320706D01*
X424319Y320724D01*
X424222Y320745D01*
X424126Y320770D01*
X424030Y320799D01*
X423936Y320832D01*
X423843Y320868D01*
X423752Y320908D01*
X423662Y320952D01*
X423574Y320999D01*
X423488Y321049D01*
X423404Y321103D01*
X423322Y321160D01*
X423243Y321220D01*
X423165Y321284D01*
X423091Y321350D01*
X423019Y321419D01*
X422950Y321491D01*
X422884Y321565D01*
X422820Y321643D01*
X422760Y321722D01*
X422703Y321804D01*
X422649Y321888D01*
X422599Y321974D01*
X422552Y322062D01*
X422508Y322152D01*
X422468Y322243D01*
X422432Y322336D01*
X422399Y322430D01*
X422370Y322526D01*
X422345Y322622D01*
X422324Y322719D01*
X422306Y322818D01*
X422293Y322916D01*
X422283Y323016D01*
X422277Y323115D01*
X422275Y323215D01*
X422275Y329565D01*
X422277Y329665D01*
X422283Y329764D01*
X422293Y329864D01*
X422306Y329962D01*
X422324Y330061D01*
X422345Y330158D01*
X422370Y330254D01*
X422399Y330350D01*
X422432Y330444D01*
X422468Y330537D01*
X422508Y330628D01*
X422552Y330718D01*
X422599Y330806D01*
X422649Y330892D01*
X422703Y330976D01*
X422760Y331058D01*
X422820Y331137D01*
X422884Y331215D01*
X422950Y331289D01*
X423019Y331361D01*
X423091Y331430D01*
X423165Y331496D01*
X423243Y331560D01*
X423322Y331620D01*
X423404Y331677D01*
X423488Y331731D01*
X423574Y331781D01*
X423662Y331828D01*
X423752Y331872D01*
X423843Y331912D01*
X423936Y331948D01*
X424030Y331981D01*
X424126Y332010D01*
X424222Y332035D01*
X424319Y332056D01*
X424418Y332074D01*
X424516Y332087D01*
X424616Y332097D01*
X424715Y332103D01*
X424815Y332105D01*
X427355Y332105D01*
X431837Y320675D02*
X435012Y320675D01*
X435123Y320677D01*
X435233Y320683D01*
X435344Y320692D01*
X435454Y320706D01*
X435563Y320723D01*
X435672Y320744D01*
X435780Y320769D01*
X435887Y320798D01*
X435993Y320830D01*
X436098Y320866D01*
X436201Y320906D01*
X436303Y320949D01*
X436404Y320996D01*
X436503Y321047D01*
X436600Y321100D01*
X436694Y321157D01*
X436787Y321218D01*
X436878Y321281D01*
X436967Y321348D01*
X437053Y321418D01*
X437136Y321491D01*
X437218Y321566D01*
X437296Y321644D01*
X437371Y321726D01*
X437444Y321809D01*
X437514Y321895D01*
X437581Y321984D01*
X437644Y322075D01*
X437705Y322168D01*
X437762Y322262D01*
X437815Y322359D01*
X437866Y322458D01*
X437913Y322559D01*
X437956Y322661D01*
X437996Y322764D01*
X438032Y322869D01*
X438064Y322975D01*
X438093Y323082D01*
X438118Y323190D01*
X438139Y323299D01*
X438156Y323408D01*
X438170Y323518D01*
X438179Y323629D01*
X438185Y323739D01*
X438187Y323850D01*
X438185Y323961D01*
X438179Y324071D01*
X438170Y324182D01*
X438156Y324292D01*
X438139Y324401D01*
X438118Y324510D01*
X438093Y324618D01*
X438064Y324725D01*
X438032Y324831D01*
X437996Y324936D01*
X437956Y325039D01*
X437913Y325141D01*
X437866Y325242D01*
X437815Y325341D01*
X437762Y325437D01*
X437705Y325532D01*
X437644Y325625D01*
X437581Y325716D01*
X437514Y325805D01*
X437444Y325891D01*
X437371Y325974D01*
X437296Y326056D01*
X437218Y326134D01*
X437136Y326209D01*
X437053Y326282D01*
X436967Y326352D01*
X436878Y326419D01*
X436787Y326482D01*
X436694Y326543D01*
X436600Y326600D01*
X436503Y326653D01*
X436404Y326704D01*
X436303Y326751D01*
X436201Y326794D01*
X436098Y326834D01*
X435993Y326870D01*
X435887Y326902D01*
X435780Y326931D01*
X435672Y326956D01*
X435563Y326977D01*
X435454Y326994D01*
X435344Y327008D01*
X435233Y327017D01*
X435123Y327023D01*
X435012Y327025D01*
X435647Y332105D02*
X431837Y332105D01*
X435647Y332105D02*
X435747Y332103D01*
X435846Y332097D01*
X435946Y332087D01*
X436044Y332074D01*
X436143Y332056D01*
X436240Y332035D01*
X436336Y332010D01*
X436432Y331981D01*
X436526Y331948D01*
X436619Y331912D01*
X436710Y331872D01*
X436800Y331828D01*
X436888Y331781D01*
X436974Y331731D01*
X437058Y331677D01*
X437140Y331620D01*
X437219Y331560D01*
X437297Y331496D01*
X437371Y331430D01*
X437443Y331361D01*
X437512Y331289D01*
X437578Y331215D01*
X437642Y331137D01*
X437702Y331058D01*
X437759Y330976D01*
X437813Y330892D01*
X437863Y330806D01*
X437910Y330718D01*
X437954Y330628D01*
X437994Y330537D01*
X438030Y330444D01*
X438063Y330350D01*
X438092Y330254D01*
X438117Y330158D01*
X438138Y330061D01*
X438156Y329962D01*
X438169Y329864D01*
X438179Y329764D01*
X438185Y329665D01*
X438187Y329565D01*
X438185Y329465D01*
X438179Y329366D01*
X438169Y329266D01*
X438156Y329168D01*
X438138Y329069D01*
X438117Y328972D01*
X438092Y328876D01*
X438063Y328780D01*
X438030Y328686D01*
X437994Y328593D01*
X437954Y328502D01*
X437910Y328412D01*
X437863Y328324D01*
X437813Y328238D01*
X437759Y328154D01*
X437702Y328072D01*
X437642Y327993D01*
X437578Y327915D01*
X437512Y327841D01*
X437443Y327769D01*
X437371Y327700D01*
X437297Y327634D01*
X437219Y327570D01*
X437140Y327510D01*
X437058Y327453D01*
X436974Y327399D01*
X436888Y327349D01*
X436800Y327302D01*
X436710Y327258D01*
X436619Y327218D01*
X436526Y327182D01*
X436432Y327149D01*
X436336Y327120D01*
X436240Y327095D01*
X436143Y327074D01*
X436044Y327056D01*
X435946Y327043D01*
X435846Y327033D01*
X435747Y327027D01*
X435647Y327025D01*
X433107Y327025D01*
D10*
X402590Y215900D02*
X359410Y215900D01*
X359410Y241300D02*
X402590Y241300D01*
X356870Y238760D02*
X356870Y218440D01*
X405130Y218440D02*
X405130Y238760D01*
X359410Y215900D02*
X359310Y215902D01*
X359211Y215908D01*
X359111Y215918D01*
X359013Y215931D01*
X358914Y215949D01*
X358817Y215970D01*
X358721Y215995D01*
X358625Y216024D01*
X358531Y216057D01*
X358438Y216093D01*
X358347Y216133D01*
X358257Y216177D01*
X358169Y216224D01*
X358083Y216274D01*
X357999Y216328D01*
X357917Y216385D01*
X357838Y216445D01*
X357760Y216509D01*
X357686Y216575D01*
X357614Y216644D01*
X357545Y216716D01*
X357479Y216790D01*
X357415Y216868D01*
X357355Y216947D01*
X357298Y217029D01*
X357244Y217113D01*
X357194Y217199D01*
X357147Y217287D01*
X357103Y217377D01*
X357063Y217468D01*
X357027Y217561D01*
X356994Y217655D01*
X356965Y217751D01*
X356940Y217847D01*
X356919Y217944D01*
X356901Y218043D01*
X356888Y218141D01*
X356878Y218241D01*
X356872Y218340D01*
X356870Y218440D01*
X402590Y215900D02*
X402690Y215902D01*
X402789Y215908D01*
X402889Y215918D01*
X402987Y215931D01*
X403086Y215949D01*
X403183Y215970D01*
X403279Y215995D01*
X403375Y216024D01*
X403469Y216057D01*
X403562Y216093D01*
X403653Y216133D01*
X403743Y216177D01*
X403831Y216224D01*
X403917Y216274D01*
X404001Y216328D01*
X404083Y216385D01*
X404162Y216445D01*
X404240Y216509D01*
X404314Y216575D01*
X404386Y216644D01*
X404455Y216716D01*
X404521Y216790D01*
X404585Y216868D01*
X404645Y216947D01*
X404702Y217029D01*
X404756Y217113D01*
X404806Y217199D01*
X404853Y217287D01*
X404897Y217377D01*
X404937Y217468D01*
X404973Y217561D01*
X405006Y217655D01*
X405035Y217751D01*
X405060Y217847D01*
X405081Y217944D01*
X405099Y218043D01*
X405112Y218141D01*
X405122Y218241D01*
X405128Y218340D01*
X405130Y218440D01*
X359410Y241300D02*
X359310Y241298D01*
X359211Y241292D01*
X359111Y241282D01*
X359013Y241269D01*
X358914Y241251D01*
X358817Y241230D01*
X358721Y241205D01*
X358625Y241176D01*
X358531Y241143D01*
X358438Y241107D01*
X358347Y241067D01*
X358257Y241023D01*
X358169Y240976D01*
X358083Y240926D01*
X357999Y240872D01*
X357917Y240815D01*
X357838Y240755D01*
X357760Y240691D01*
X357686Y240625D01*
X357614Y240556D01*
X357545Y240484D01*
X357479Y240410D01*
X357415Y240332D01*
X357355Y240253D01*
X357298Y240171D01*
X357244Y240087D01*
X357194Y240001D01*
X357147Y239913D01*
X357103Y239823D01*
X357063Y239732D01*
X357027Y239639D01*
X356994Y239545D01*
X356965Y239449D01*
X356940Y239353D01*
X356919Y239256D01*
X356901Y239157D01*
X356888Y239059D01*
X356878Y238959D01*
X356872Y238860D01*
X356870Y238760D01*
X402590Y241300D02*
X402690Y241298D01*
X402789Y241292D01*
X402889Y241282D01*
X402987Y241269D01*
X403086Y241251D01*
X403183Y241230D01*
X403279Y241205D01*
X403375Y241176D01*
X403469Y241143D01*
X403562Y241107D01*
X403653Y241067D01*
X403743Y241023D01*
X403831Y240976D01*
X403917Y240926D01*
X404001Y240872D01*
X404083Y240815D01*
X404162Y240755D01*
X404240Y240691D01*
X404314Y240625D01*
X404386Y240556D01*
X404455Y240484D01*
X404521Y240410D01*
X404585Y240332D01*
X404645Y240253D01*
X404702Y240171D01*
X404756Y240087D01*
X404806Y240001D01*
X404853Y239913D01*
X404897Y239823D01*
X404937Y239732D01*
X404973Y239639D01*
X405006Y239545D01*
X405035Y239449D01*
X405060Y239353D01*
X405081Y239256D01*
X405099Y239157D01*
X405112Y239059D01*
X405122Y238959D01*
X405128Y238860D01*
X405130Y238760D01*
X378460Y228600D02*
X377190Y228600D01*
D15*
X378460Y228600D02*
X378460Y220980D01*
X378460Y228600D02*
X378460Y236220D01*
X383540Y228600D02*
X383540Y220980D01*
X383540Y228600D02*
X383540Y236220D01*
D10*
X383540Y228600D02*
X384810Y228600D01*
D11*
X389853Y201295D02*
X392393Y201295D01*
X389853Y201295D02*
X389753Y201297D01*
X389654Y201303D01*
X389554Y201313D01*
X389456Y201326D01*
X389357Y201344D01*
X389260Y201365D01*
X389164Y201390D01*
X389068Y201419D01*
X388974Y201452D01*
X388881Y201488D01*
X388790Y201528D01*
X388700Y201572D01*
X388612Y201619D01*
X388526Y201669D01*
X388442Y201723D01*
X388360Y201780D01*
X388281Y201840D01*
X388203Y201904D01*
X388129Y201970D01*
X388057Y202039D01*
X387988Y202111D01*
X387922Y202185D01*
X387858Y202263D01*
X387798Y202342D01*
X387741Y202424D01*
X387687Y202508D01*
X387637Y202594D01*
X387590Y202682D01*
X387546Y202772D01*
X387506Y202863D01*
X387470Y202956D01*
X387437Y203050D01*
X387408Y203146D01*
X387383Y203242D01*
X387362Y203339D01*
X387344Y203438D01*
X387331Y203536D01*
X387321Y203636D01*
X387315Y203735D01*
X387313Y203835D01*
X387313Y210185D01*
X387315Y210285D01*
X387321Y210384D01*
X387331Y210484D01*
X387344Y210582D01*
X387362Y210681D01*
X387383Y210778D01*
X387408Y210874D01*
X387437Y210970D01*
X387470Y211064D01*
X387506Y211157D01*
X387546Y211248D01*
X387590Y211338D01*
X387637Y211426D01*
X387687Y211512D01*
X387741Y211596D01*
X387798Y211678D01*
X387858Y211757D01*
X387922Y211835D01*
X387988Y211909D01*
X388057Y211981D01*
X388129Y212050D01*
X388203Y212116D01*
X388281Y212180D01*
X388360Y212240D01*
X388442Y212297D01*
X388526Y212351D01*
X388612Y212401D01*
X388700Y212448D01*
X388790Y212492D01*
X388881Y212532D01*
X388974Y212568D01*
X389068Y212601D01*
X389164Y212630D01*
X389260Y212655D01*
X389357Y212676D01*
X389456Y212694D01*
X389554Y212707D01*
X389654Y212717D01*
X389753Y212723D01*
X389853Y212725D01*
X392393Y212725D01*
X399415Y212725D02*
X396875Y203835D01*
X403225Y203835D01*
X401320Y206375D02*
X401320Y201295D01*
D10*
X222250Y355600D02*
X209550Y355600D01*
X222250Y355600D02*
X228600Y349250D01*
X228600Y336550D01*
X222250Y330200D01*
X184150Y355600D02*
X177800Y349250D01*
X184150Y355600D02*
X196850Y355600D01*
X203200Y349250D01*
X203200Y336550D01*
X196850Y330200D01*
X184150Y330200D01*
X177800Y336550D01*
X203200Y349250D02*
X209550Y355600D01*
X203200Y336550D02*
X209550Y330200D01*
X222250Y330200D01*
X146050Y355600D02*
X133350Y355600D01*
X146050Y355600D02*
X152400Y349250D01*
X152400Y336550D01*
X146050Y330200D01*
X152400Y349250D02*
X158750Y355600D01*
X171450Y355600D01*
X177800Y349250D01*
X177800Y336550D01*
X171450Y330200D01*
X158750Y330200D01*
X152400Y336550D01*
X127000Y336550D02*
X127000Y349250D01*
X133350Y355600D01*
X127000Y336550D02*
X133350Y330200D01*
X146050Y330200D01*
X234950Y355600D02*
X247650Y355600D01*
X254000Y349250D01*
X254000Y336550D01*
X247650Y330200D01*
X228600Y349250D02*
X234950Y355600D01*
X228600Y336550D02*
X234950Y330200D01*
X247650Y330200D01*
D11*
X88773Y361823D02*
X88773Y373253D01*
X91948Y373253D01*
X92059Y373251D01*
X92169Y373245D01*
X92280Y373236D01*
X92390Y373222D01*
X92499Y373205D01*
X92608Y373184D01*
X92716Y373159D01*
X92823Y373130D01*
X92929Y373098D01*
X93034Y373062D01*
X93137Y373022D01*
X93239Y372979D01*
X93340Y372932D01*
X93439Y372881D01*
X93536Y372828D01*
X93630Y372771D01*
X93723Y372710D01*
X93814Y372647D01*
X93903Y372580D01*
X93989Y372510D01*
X94072Y372437D01*
X94154Y372362D01*
X94232Y372284D01*
X94307Y372202D01*
X94380Y372119D01*
X94450Y372033D01*
X94517Y371944D01*
X94580Y371853D01*
X94641Y371760D01*
X94698Y371666D01*
X94751Y371569D01*
X94802Y371470D01*
X94849Y371369D01*
X94892Y371267D01*
X94932Y371164D01*
X94968Y371059D01*
X95000Y370953D01*
X95029Y370846D01*
X95054Y370738D01*
X95075Y370629D01*
X95092Y370520D01*
X95106Y370410D01*
X95115Y370299D01*
X95121Y370189D01*
X95123Y370078D01*
X95123Y364998D01*
X95121Y364887D01*
X95115Y364777D01*
X95106Y364666D01*
X95092Y364556D01*
X95075Y364447D01*
X95054Y364338D01*
X95029Y364230D01*
X95000Y364123D01*
X94968Y364017D01*
X94932Y363912D01*
X94892Y363809D01*
X94849Y363707D01*
X94802Y363606D01*
X94751Y363507D01*
X94698Y363410D01*
X94641Y363316D01*
X94580Y363223D01*
X94517Y363132D01*
X94450Y363043D01*
X94380Y362957D01*
X94307Y362874D01*
X94232Y362792D01*
X94154Y362714D01*
X94072Y362639D01*
X93989Y362566D01*
X93903Y362496D01*
X93814Y362429D01*
X93723Y362366D01*
X93630Y362305D01*
X93535Y362248D01*
X93439Y362195D01*
X93340Y362144D01*
X93239Y362097D01*
X93137Y362054D01*
X93034Y362014D01*
X92929Y361978D01*
X92823Y361946D01*
X92716Y361917D01*
X92608Y361892D01*
X92499Y361871D01*
X92390Y361854D01*
X92280Y361840D01*
X92169Y361831D01*
X92059Y361825D01*
X91948Y361823D01*
X88773Y361823D01*
X100584Y364998D02*
X100584Y370078D01*
X100586Y370189D01*
X100592Y370299D01*
X100601Y370410D01*
X100615Y370520D01*
X100632Y370629D01*
X100653Y370738D01*
X100678Y370846D01*
X100707Y370953D01*
X100739Y371059D01*
X100775Y371164D01*
X100815Y371267D01*
X100858Y371369D01*
X100905Y371470D01*
X100956Y371569D01*
X101009Y371666D01*
X101066Y371760D01*
X101127Y371853D01*
X101190Y371944D01*
X101257Y372033D01*
X101327Y372119D01*
X101400Y372202D01*
X101475Y372284D01*
X101553Y372362D01*
X101635Y372437D01*
X101718Y372510D01*
X101804Y372580D01*
X101893Y372647D01*
X101984Y372710D01*
X102077Y372771D01*
X102172Y372828D01*
X102268Y372881D01*
X102367Y372932D01*
X102468Y372979D01*
X102570Y373022D01*
X102673Y373062D01*
X102778Y373098D01*
X102884Y373130D01*
X102991Y373159D01*
X103099Y373184D01*
X103208Y373205D01*
X103317Y373222D01*
X103427Y373236D01*
X103538Y373245D01*
X103648Y373251D01*
X103759Y373253D01*
X103870Y373251D01*
X103980Y373245D01*
X104091Y373236D01*
X104201Y373222D01*
X104310Y373205D01*
X104419Y373184D01*
X104527Y373159D01*
X104634Y373130D01*
X104740Y373098D01*
X104845Y373062D01*
X104948Y373022D01*
X105050Y372979D01*
X105151Y372932D01*
X105250Y372881D01*
X105347Y372828D01*
X105441Y372771D01*
X105534Y372710D01*
X105625Y372647D01*
X105714Y372580D01*
X105800Y372510D01*
X105883Y372437D01*
X105965Y372362D01*
X106043Y372284D01*
X106118Y372202D01*
X106191Y372119D01*
X106261Y372033D01*
X106328Y371944D01*
X106391Y371853D01*
X106452Y371760D01*
X106509Y371666D01*
X106562Y371569D01*
X106613Y371470D01*
X106660Y371369D01*
X106703Y371267D01*
X106743Y371164D01*
X106779Y371059D01*
X106811Y370953D01*
X106840Y370846D01*
X106865Y370738D01*
X106886Y370629D01*
X106903Y370520D01*
X106917Y370410D01*
X106926Y370299D01*
X106932Y370189D01*
X106934Y370078D01*
X106934Y364998D01*
X106932Y364887D01*
X106926Y364777D01*
X106917Y364666D01*
X106903Y364556D01*
X106886Y364447D01*
X106865Y364338D01*
X106840Y364230D01*
X106811Y364123D01*
X106779Y364017D01*
X106743Y363912D01*
X106703Y363809D01*
X106660Y363707D01*
X106613Y363606D01*
X106562Y363507D01*
X106509Y363410D01*
X106452Y363316D01*
X106391Y363223D01*
X106328Y363132D01*
X106261Y363043D01*
X106191Y362957D01*
X106118Y362874D01*
X106043Y362792D01*
X105965Y362714D01*
X105883Y362639D01*
X105800Y362566D01*
X105714Y362496D01*
X105625Y362429D01*
X105534Y362366D01*
X105441Y362305D01*
X105346Y362248D01*
X105250Y362195D01*
X105151Y362144D01*
X105050Y362097D01*
X104948Y362054D01*
X104845Y362014D01*
X104740Y361978D01*
X104634Y361946D01*
X104527Y361917D01*
X104419Y361892D01*
X104310Y361871D01*
X104201Y361854D01*
X104091Y361840D01*
X103980Y361831D01*
X103870Y361825D01*
X103759Y361823D01*
X103648Y361825D01*
X103538Y361831D01*
X103427Y361840D01*
X103317Y361854D01*
X103208Y361871D01*
X103099Y361892D01*
X102991Y361917D01*
X102884Y361946D01*
X102778Y361978D01*
X102673Y362014D01*
X102570Y362054D01*
X102468Y362097D01*
X102367Y362144D01*
X102268Y362195D01*
X102172Y362248D01*
X102077Y362305D01*
X101984Y362366D01*
X101893Y362429D01*
X101804Y362496D01*
X101718Y362566D01*
X101635Y362639D01*
X101553Y362714D01*
X101475Y362792D01*
X101400Y362874D01*
X101327Y362957D01*
X101257Y363043D01*
X101190Y363132D01*
X101127Y363223D01*
X101066Y363316D01*
X101009Y363411D01*
X100956Y363507D01*
X100905Y363606D01*
X100858Y363707D01*
X100815Y363809D01*
X100775Y363912D01*
X100739Y364017D01*
X100707Y364123D01*
X100678Y364230D01*
X100653Y364338D01*
X100632Y364447D01*
X100615Y364556D01*
X100601Y364666D01*
X100592Y364777D01*
X100586Y364887D01*
X100584Y364998D01*
X114427Y361823D02*
X114427Y373253D01*
X111252Y373253D02*
X117602Y373253D01*
X121412Y360553D02*
X126492Y360553D01*
X131572Y361823D02*
X131572Y373253D01*
X135382Y366903D01*
X139192Y373253D01*
X139192Y361823D01*
X144145Y361823D02*
X147955Y373253D01*
X151765Y361823D01*
X150813Y364681D02*
X145098Y364681D01*
X158623Y361823D02*
X158623Y373253D01*
X155448Y373253D02*
X161798Y373253D01*
X166580Y373253D02*
X166580Y361823D01*
X166580Y373253D02*
X169755Y373253D01*
X169866Y373251D01*
X169976Y373245D01*
X170087Y373236D01*
X170197Y373222D01*
X170306Y373205D01*
X170415Y373184D01*
X170523Y373159D01*
X170630Y373130D01*
X170736Y373098D01*
X170841Y373062D01*
X170944Y373022D01*
X171046Y372979D01*
X171147Y372932D01*
X171246Y372881D01*
X171343Y372828D01*
X171437Y372771D01*
X171530Y372710D01*
X171621Y372647D01*
X171710Y372580D01*
X171796Y372510D01*
X171879Y372437D01*
X171961Y372362D01*
X172039Y372284D01*
X172114Y372202D01*
X172187Y372119D01*
X172257Y372033D01*
X172324Y371944D01*
X172387Y371853D01*
X172448Y371760D01*
X172505Y371665D01*
X172558Y371569D01*
X172609Y371470D01*
X172656Y371369D01*
X172699Y371267D01*
X172739Y371164D01*
X172775Y371059D01*
X172807Y370953D01*
X172836Y370846D01*
X172861Y370738D01*
X172882Y370629D01*
X172899Y370520D01*
X172913Y370410D01*
X172922Y370299D01*
X172928Y370189D01*
X172930Y370078D01*
X172928Y369967D01*
X172922Y369857D01*
X172913Y369746D01*
X172899Y369636D01*
X172882Y369527D01*
X172861Y369418D01*
X172836Y369310D01*
X172807Y369203D01*
X172775Y369097D01*
X172739Y368992D01*
X172699Y368889D01*
X172656Y368787D01*
X172609Y368686D01*
X172558Y368587D01*
X172505Y368490D01*
X172448Y368396D01*
X172387Y368303D01*
X172324Y368212D01*
X172257Y368123D01*
X172187Y368037D01*
X172114Y367954D01*
X172039Y367872D01*
X171961Y367794D01*
X171879Y367719D01*
X171796Y367646D01*
X171710Y367576D01*
X171621Y367509D01*
X171530Y367446D01*
X171437Y367385D01*
X171342Y367328D01*
X171246Y367275D01*
X171147Y367224D01*
X171046Y367177D01*
X170944Y367134D01*
X170841Y367094D01*
X170736Y367058D01*
X170630Y367026D01*
X170523Y366997D01*
X170415Y366972D01*
X170306Y366951D01*
X170197Y366934D01*
X170087Y366920D01*
X169976Y366911D01*
X169866Y366905D01*
X169755Y366903D01*
X166580Y366903D01*
X170390Y366903D02*
X172930Y361823D01*
X178816Y361823D02*
X178816Y373253D01*
X177546Y361823D02*
X180086Y361823D01*
X180086Y373253D02*
X177546Y373253D01*
X184150Y361823D02*
X191770Y373253D01*
X184150Y373253D02*
X191770Y361823D01*
X195707Y360553D02*
X200787Y360553D01*
X205740Y361823D02*
X205740Y373253D01*
X208915Y373253D01*
X209026Y373251D01*
X209136Y373245D01*
X209247Y373236D01*
X209357Y373222D01*
X209466Y373205D01*
X209575Y373184D01*
X209683Y373159D01*
X209790Y373130D01*
X209896Y373098D01*
X210001Y373062D01*
X210104Y373022D01*
X210206Y372979D01*
X210307Y372932D01*
X210406Y372881D01*
X210503Y372828D01*
X210597Y372771D01*
X210690Y372710D01*
X210781Y372647D01*
X210870Y372580D01*
X210956Y372510D01*
X211039Y372437D01*
X211121Y372362D01*
X211199Y372284D01*
X211274Y372202D01*
X211347Y372119D01*
X211417Y372033D01*
X211484Y371944D01*
X211547Y371853D01*
X211608Y371760D01*
X211665Y371666D01*
X211718Y371569D01*
X211769Y371470D01*
X211816Y371369D01*
X211859Y371267D01*
X211899Y371164D01*
X211935Y371059D01*
X211967Y370953D01*
X211996Y370846D01*
X212021Y370738D01*
X212042Y370629D01*
X212059Y370520D01*
X212073Y370410D01*
X212082Y370299D01*
X212088Y370189D01*
X212090Y370078D01*
X212090Y364998D01*
X212088Y364887D01*
X212082Y364777D01*
X212073Y364666D01*
X212059Y364556D01*
X212042Y364447D01*
X212021Y364338D01*
X211996Y364230D01*
X211967Y364123D01*
X211935Y364017D01*
X211899Y363912D01*
X211859Y363809D01*
X211816Y363707D01*
X211769Y363606D01*
X211718Y363507D01*
X211665Y363410D01*
X211608Y363316D01*
X211547Y363223D01*
X211484Y363132D01*
X211417Y363043D01*
X211347Y362957D01*
X211274Y362874D01*
X211199Y362792D01*
X211121Y362714D01*
X211039Y362639D01*
X210956Y362566D01*
X210870Y362496D01*
X210781Y362429D01*
X210690Y362366D01*
X210597Y362305D01*
X210502Y362248D01*
X210406Y362195D01*
X210307Y362144D01*
X210206Y362097D01*
X210104Y362054D01*
X210001Y362014D01*
X209896Y361978D01*
X209790Y361946D01*
X209683Y361917D01*
X209575Y361892D01*
X209466Y361871D01*
X209357Y361854D01*
X209247Y361840D01*
X209136Y361831D01*
X209026Y361825D01*
X208915Y361823D01*
X205740Y361823D01*
X218440Y361823D02*
X218440Y373253D01*
X217170Y361823D02*
X219710Y361823D01*
X219710Y373253D02*
X217170Y373253D01*
X227838Y361823D02*
X227938Y361825D01*
X228037Y361831D01*
X228137Y361841D01*
X228235Y361854D01*
X228334Y361872D01*
X228431Y361893D01*
X228527Y361918D01*
X228623Y361947D01*
X228717Y361980D01*
X228810Y362016D01*
X228901Y362056D01*
X228991Y362100D01*
X229079Y362147D01*
X229165Y362197D01*
X229249Y362251D01*
X229331Y362308D01*
X229410Y362368D01*
X229488Y362432D01*
X229562Y362498D01*
X229634Y362567D01*
X229703Y362639D01*
X229769Y362713D01*
X229833Y362791D01*
X229893Y362870D01*
X229950Y362952D01*
X230004Y363036D01*
X230054Y363122D01*
X230101Y363210D01*
X230145Y363300D01*
X230185Y363391D01*
X230221Y363484D01*
X230254Y363578D01*
X230283Y363674D01*
X230308Y363770D01*
X230329Y363867D01*
X230347Y363966D01*
X230360Y364064D01*
X230370Y364164D01*
X230376Y364263D01*
X230378Y364363D01*
X227838Y361823D02*
X227697Y361825D01*
X227556Y361830D01*
X227415Y361840D01*
X227274Y361853D01*
X227134Y361869D01*
X226994Y361890D01*
X226855Y361914D01*
X226716Y361942D01*
X226579Y361973D01*
X226442Y362008D01*
X226306Y362046D01*
X226171Y362088D01*
X226038Y362134D01*
X225905Y362183D01*
X225774Y362236D01*
X225645Y362292D01*
X225516Y362351D01*
X225390Y362414D01*
X225265Y362480D01*
X225142Y362549D01*
X225021Y362622D01*
X224902Y362698D01*
X224784Y362777D01*
X224669Y362858D01*
X224557Y362943D01*
X224446Y363031D01*
X224338Y363122D01*
X224232Y363215D01*
X224129Y363312D01*
X224028Y363411D01*
X224345Y370713D02*
X224347Y370813D01*
X224353Y370912D01*
X224363Y371012D01*
X224376Y371110D01*
X224394Y371209D01*
X224415Y371306D01*
X224440Y371402D01*
X224469Y371498D01*
X224502Y371592D01*
X224538Y371685D01*
X224578Y371776D01*
X224622Y371866D01*
X224669Y371954D01*
X224719Y372040D01*
X224773Y372124D01*
X224830Y372206D01*
X224890Y372285D01*
X224954Y372363D01*
X225020Y372437D01*
X225089Y372509D01*
X225161Y372578D01*
X225235Y372644D01*
X225313Y372708D01*
X225392Y372768D01*
X225474Y372825D01*
X225558Y372879D01*
X225644Y372929D01*
X225732Y372976D01*
X225822Y373020D01*
X225913Y373060D01*
X226006Y373096D01*
X226100Y373129D01*
X226196Y373158D01*
X226292Y373183D01*
X226389Y373204D01*
X226488Y373222D01*
X226586Y373235D01*
X226686Y373245D01*
X226785Y373251D01*
X226885Y373253D01*
X226885Y373254D02*
X227018Y373252D01*
X227151Y373247D01*
X227284Y373237D01*
X227417Y373224D01*
X227549Y373207D01*
X227681Y373187D01*
X227812Y373163D01*
X227942Y373135D01*
X228072Y373104D01*
X228200Y373069D01*
X228328Y373030D01*
X228454Y372988D01*
X228579Y372942D01*
X228703Y372893D01*
X228826Y372841D01*
X228947Y372785D01*
X229066Y372725D01*
X229184Y372663D01*
X229299Y372597D01*
X229413Y372528D01*
X229525Y372455D01*
X229635Y372380D01*
X229743Y372301D01*
X225615Y368490D02*
X225531Y368542D01*
X225448Y368597D01*
X225368Y368656D01*
X225290Y368717D01*
X225215Y368781D01*
X225142Y368849D01*
X225071Y368919D01*
X225004Y368991D01*
X224939Y369066D01*
X224877Y369144D01*
X224818Y369224D01*
X224762Y369306D01*
X224710Y369390D01*
X224661Y369476D01*
X224615Y369564D01*
X224572Y369654D01*
X224533Y369745D01*
X224498Y369838D01*
X224466Y369932D01*
X224438Y370027D01*
X224413Y370123D01*
X224393Y370220D01*
X224375Y370318D01*
X224362Y370416D01*
X224353Y370515D01*
X224347Y370614D01*
X224345Y370713D01*
X229108Y366586D02*
X229192Y366534D01*
X229275Y366479D01*
X229355Y366420D01*
X229433Y366359D01*
X229508Y366295D01*
X229581Y366227D01*
X229652Y366157D01*
X229719Y366085D01*
X229784Y366010D01*
X229846Y365932D01*
X229905Y365852D01*
X229961Y365770D01*
X230013Y365686D01*
X230062Y365600D01*
X230108Y365512D01*
X230151Y365422D01*
X230190Y365331D01*
X230225Y365238D01*
X230257Y365144D01*
X230285Y365049D01*
X230310Y364953D01*
X230330Y364856D01*
X230348Y364758D01*
X230361Y364660D01*
X230370Y364561D01*
X230376Y364462D01*
X230378Y364363D01*
X229108Y366586D02*
X225615Y368491D01*
X235648Y373253D02*
X235648Y361823D01*
X235648Y373253D02*
X238823Y373253D01*
X238934Y373251D01*
X239044Y373245D01*
X239155Y373236D01*
X239265Y373222D01*
X239374Y373205D01*
X239483Y373184D01*
X239591Y373159D01*
X239698Y373130D01*
X239804Y373098D01*
X239909Y373062D01*
X240012Y373022D01*
X240114Y372979D01*
X240215Y372932D01*
X240314Y372881D01*
X240411Y372828D01*
X240505Y372771D01*
X240598Y372710D01*
X240689Y372647D01*
X240778Y372580D01*
X240864Y372510D01*
X240947Y372437D01*
X241029Y372362D01*
X241107Y372284D01*
X241182Y372202D01*
X241255Y372119D01*
X241325Y372033D01*
X241392Y371944D01*
X241455Y371853D01*
X241516Y371760D01*
X241573Y371665D01*
X241626Y371569D01*
X241677Y371470D01*
X241724Y371369D01*
X241767Y371267D01*
X241807Y371164D01*
X241843Y371059D01*
X241875Y370953D01*
X241904Y370846D01*
X241929Y370738D01*
X241950Y370629D01*
X241967Y370520D01*
X241981Y370410D01*
X241990Y370299D01*
X241996Y370189D01*
X241998Y370078D01*
X241996Y369967D01*
X241990Y369857D01*
X241981Y369746D01*
X241967Y369636D01*
X241950Y369527D01*
X241929Y369418D01*
X241904Y369310D01*
X241875Y369203D01*
X241843Y369097D01*
X241807Y368992D01*
X241767Y368889D01*
X241724Y368787D01*
X241677Y368686D01*
X241626Y368587D01*
X241573Y368490D01*
X241516Y368396D01*
X241455Y368303D01*
X241392Y368212D01*
X241325Y368123D01*
X241255Y368037D01*
X241182Y367954D01*
X241107Y367872D01*
X241029Y367794D01*
X240947Y367719D01*
X240864Y367646D01*
X240778Y367576D01*
X240689Y367509D01*
X240598Y367446D01*
X240505Y367385D01*
X240410Y367328D01*
X240314Y367275D01*
X240215Y367224D01*
X240114Y367177D01*
X240012Y367134D01*
X239909Y367094D01*
X239804Y367058D01*
X239698Y367026D01*
X239591Y366997D01*
X239483Y366972D01*
X239374Y366951D01*
X239265Y366934D01*
X239155Y366920D01*
X239044Y366911D01*
X238934Y366905D01*
X238823Y366903D01*
X235648Y366903D01*
X246913Y361823D02*
X246913Y373253D01*
X246913Y361823D02*
X251993Y361823D01*
X255778Y361823D02*
X259588Y373253D01*
X263398Y361823D01*
X262445Y364681D02*
X256730Y364681D01*
X267208Y373253D02*
X271018Y367856D01*
X274828Y373253D01*
X271018Y367856D02*
X271018Y361823D01*
M02*
