G04 EAGLE Gerber RS-274X export*
G75*
%MOMM*%
%FSLAX34Y34*%
%LPD*%
%INSoldermask Top*%
%IPPOS*%
%AMOC8*
5,1,8,0,0,1.08239X$1,22.5*%
G01*
%ADD10C,4.013200*%
%ADD11C,1.625600*%
%ADD12R,3.102950X1.908759*%
%ADD13R,3.101191X1.903519*%
%ADD14R,3.102200X1.896169*%
%ADD15C,1.411200*%
%ADD16C,0.903200*%
%ADD17C,1.727200*%
%ADD18R,1.727200X1.727200*%
%ADD19C,1.727200*%
%ADD20R,1.711200X1.711200*%
%ADD21C,1.711200*%
%ADD22P,2.034460X8X22.500000*%
%ADD23P,2.034460X8X202.500000*%


D10*
X50800Y330200D03*
X50800Y50800D03*
X812800Y50800D03*
X812800Y330200D03*
D11*
X510700Y317500D03*
X530700Y317500D03*
D12*
X17795Y237204D03*
D13*
X17786Y237178D03*
D14*
X17791Y164141D03*
D15*
X68280Y200660D03*
X68280Y184660D03*
X56280Y208660D03*
X56280Y192660D03*
X68280Y216660D03*
D16*
X17780Y164160D03*
X17780Y237160D03*
D17*
X381000Y335280D02*
X381000Y350520D01*
X406400Y350520D02*
X406400Y335280D01*
X431800Y335280D02*
X431800Y350520D01*
D18*
X444500Y190500D03*
D19*
X444500Y165100D03*
X444500Y139700D03*
X444500Y114300D03*
D18*
X518160Y246380D03*
D19*
X518160Y271780D03*
X543560Y246380D03*
X543560Y271780D03*
X568960Y246380D03*
X568960Y271780D03*
X594360Y246380D03*
X594360Y271780D03*
X619760Y246380D03*
X619760Y271780D03*
X645160Y246380D03*
X645160Y271780D03*
X670560Y246380D03*
X670560Y271780D03*
X695960Y246380D03*
X695960Y271780D03*
X721360Y246380D03*
X721360Y271780D03*
X746760Y246380D03*
X746760Y271780D03*
D18*
X746760Y58420D03*
D19*
X746760Y33020D03*
X721360Y58420D03*
X721360Y33020D03*
X695960Y58420D03*
X695960Y33020D03*
X670560Y58420D03*
X670560Y33020D03*
X645160Y58420D03*
X645160Y33020D03*
X619760Y58420D03*
X619760Y33020D03*
X594360Y58420D03*
X594360Y33020D03*
X568960Y58420D03*
X568960Y33020D03*
X543560Y58420D03*
X543560Y33020D03*
X518160Y58420D03*
X518160Y33020D03*
X492760Y58420D03*
X492760Y33020D03*
X467360Y58420D03*
X467360Y33020D03*
D20*
X138900Y50000D03*
D21*
X188900Y50000D03*
X188900Y100000D03*
X138900Y100000D03*
D20*
X316700Y50000D03*
D21*
X366700Y50000D03*
X366700Y100000D03*
X316700Y100000D03*
D22*
X101600Y215900D03*
X127000Y215900D03*
X101600Y254000D03*
X127000Y254000D03*
X431800Y304800D03*
X457200Y304800D03*
D23*
X393700Y228600D03*
X368300Y228600D03*
D17*
X139700Y335280D02*
X139700Y350520D01*
X165100Y350520D02*
X165100Y335280D01*
X190500Y335280D02*
X190500Y350520D01*
X215900Y350520D02*
X215900Y335280D01*
X241300Y335280D02*
X241300Y350520D01*
M02*
