G04 EAGLE Gerber RS-274X export*
G75*
%MOMM*%
%FSLAX34Y34*%
%LPD*%
%IN*%
%IPPOS*%
%AMOC8*
5,1,8,0,0,1.08239X$1,22.5*%
G01*
%ADD10C,0.254000*%


D10*
X0Y0D02*
X863400Y0D01*
X863400Y377700D01*
X0Y377700D01*
X0Y0D01*
X8280Y237160D02*
X8293Y236855D01*
X8333Y236552D01*
X8399Y236254D01*
X8491Y235963D01*
X8608Y235681D01*
X8749Y235410D01*
X8913Y235152D01*
X9099Y234910D01*
X9305Y234685D01*
X9530Y234479D01*
X9772Y234293D01*
X10030Y234129D01*
X10301Y233988D01*
X10583Y233871D01*
X10874Y233779D01*
X11172Y233713D01*
X11475Y233673D01*
X11780Y233660D01*
X23780Y233660D01*
X24085Y233673D01*
X24388Y233713D01*
X24686Y233779D01*
X24977Y233871D01*
X25259Y233988D01*
X25530Y234129D01*
X25788Y234293D01*
X26030Y234479D01*
X26255Y234685D01*
X26461Y234910D01*
X26647Y235152D01*
X26811Y235410D01*
X26952Y235681D01*
X27069Y235963D01*
X27161Y236254D01*
X27227Y236552D01*
X27267Y236855D01*
X27280Y237160D01*
X27267Y237465D01*
X27227Y237768D01*
X27161Y238066D01*
X27069Y238357D01*
X26952Y238639D01*
X26811Y238910D01*
X26647Y239168D01*
X26461Y239410D01*
X26255Y239635D01*
X26030Y239841D01*
X25788Y240027D01*
X25530Y240191D01*
X25259Y240332D01*
X24977Y240449D01*
X24686Y240541D01*
X24388Y240607D01*
X24085Y240647D01*
X23780Y240660D01*
X11780Y240660D01*
X11475Y240647D01*
X11172Y240607D01*
X10874Y240541D01*
X10583Y240449D01*
X10301Y240332D01*
X10030Y240191D01*
X9772Y240027D01*
X9530Y239841D01*
X9305Y239635D01*
X9099Y239410D01*
X8913Y239168D01*
X8749Y238910D01*
X8608Y238639D01*
X8491Y238357D01*
X8399Y238066D01*
X8333Y237768D01*
X8293Y237465D01*
X8280Y237160D01*
X8280Y164160D02*
X8293Y163855D01*
X8333Y163552D01*
X8399Y163254D01*
X8491Y162963D01*
X8608Y162681D01*
X8749Y162410D01*
X8913Y162152D01*
X9099Y161910D01*
X9305Y161685D01*
X9530Y161479D01*
X9772Y161293D01*
X10030Y161129D01*
X10301Y160988D01*
X10583Y160871D01*
X10874Y160779D01*
X11172Y160713D01*
X11475Y160673D01*
X11780Y160660D01*
X23780Y160660D01*
X24085Y160673D01*
X24388Y160713D01*
X24686Y160779D01*
X24977Y160871D01*
X25259Y160988D01*
X25530Y161129D01*
X25788Y161293D01*
X26030Y161479D01*
X26255Y161685D01*
X26461Y161910D01*
X26647Y162152D01*
X26811Y162410D01*
X26952Y162681D01*
X27069Y162963D01*
X27161Y163254D01*
X27227Y163552D01*
X27267Y163855D01*
X27280Y164160D01*
X27267Y164465D01*
X27227Y164768D01*
X27161Y165066D01*
X27069Y165357D01*
X26952Y165639D01*
X26811Y165910D01*
X26647Y166168D01*
X26461Y166410D01*
X26255Y166635D01*
X26030Y166841D01*
X25788Y167027D01*
X25530Y167191D01*
X25259Y167332D01*
X24977Y167449D01*
X24686Y167541D01*
X24388Y167607D01*
X24085Y167647D01*
X23780Y167660D01*
X11780Y167660D01*
X11475Y167647D01*
X11172Y167607D01*
X10874Y167541D01*
X10583Y167449D01*
X10301Y167332D01*
X10030Y167191D01*
X9772Y167027D01*
X9530Y166841D01*
X9305Y166635D01*
X9099Y166410D01*
X8913Y166168D01*
X8749Y165910D01*
X8608Y165639D01*
X8491Y165357D01*
X8399Y165066D01*
X8333Y164768D01*
X8293Y164465D01*
X8280Y164160D01*
X69850Y329624D02*
X69781Y328475D01*
X69642Y327332D01*
X69434Y326200D01*
X69159Y325082D01*
X68816Y323983D01*
X68408Y322907D01*
X67935Y321857D01*
X67400Y320837D01*
X66805Y319852D01*
X66151Y318905D01*
X65441Y317998D01*
X64677Y317137D01*
X63863Y316323D01*
X63002Y315559D01*
X62095Y314849D01*
X61148Y314195D01*
X60163Y313600D01*
X59143Y313065D01*
X58093Y312592D01*
X57017Y312184D01*
X55918Y311841D01*
X54800Y311566D01*
X53668Y311358D01*
X52525Y311220D01*
X51376Y311150D01*
X50224Y311150D01*
X49075Y311220D01*
X47932Y311358D01*
X46800Y311566D01*
X45682Y311841D01*
X44583Y312184D01*
X43507Y312592D01*
X42457Y313065D01*
X41437Y313600D01*
X40452Y314195D01*
X39505Y314849D01*
X38598Y315559D01*
X37737Y316323D01*
X36923Y317137D01*
X36159Y317998D01*
X35449Y318905D01*
X34795Y319852D01*
X34200Y320837D01*
X33665Y321857D01*
X33192Y322907D01*
X32784Y323983D01*
X32441Y325082D01*
X32166Y326200D01*
X31958Y327332D01*
X31820Y328475D01*
X31750Y329624D01*
X31750Y330776D01*
X31820Y331925D01*
X31958Y333068D01*
X32166Y334200D01*
X32441Y335318D01*
X32784Y336417D01*
X33192Y337493D01*
X33665Y338543D01*
X34200Y339563D01*
X34795Y340548D01*
X35449Y341495D01*
X36159Y342402D01*
X36923Y343263D01*
X37737Y344077D01*
X38598Y344841D01*
X39505Y345551D01*
X40452Y346205D01*
X41437Y346800D01*
X42457Y347335D01*
X43507Y347808D01*
X44583Y348216D01*
X45682Y348559D01*
X46800Y348834D01*
X47932Y349042D01*
X49075Y349181D01*
X50224Y349250D01*
X51376Y349250D01*
X52525Y349181D01*
X53668Y349042D01*
X54800Y348834D01*
X55918Y348559D01*
X57017Y348216D01*
X58093Y347808D01*
X59143Y347335D01*
X60163Y346800D01*
X61148Y346205D01*
X62095Y345551D01*
X63002Y344841D01*
X63863Y344077D01*
X64677Y343263D01*
X65441Y342402D01*
X66151Y341495D01*
X66805Y340548D01*
X67400Y339563D01*
X67935Y338543D01*
X68408Y337493D01*
X68816Y336417D01*
X69159Y335318D01*
X69434Y334200D01*
X69642Y333068D01*
X69781Y331925D01*
X69850Y330776D01*
X69850Y329624D01*
X69850Y50224D02*
X69781Y49075D01*
X69642Y47932D01*
X69434Y46800D01*
X69159Y45682D01*
X68816Y44583D01*
X68408Y43507D01*
X67935Y42457D01*
X67400Y41437D01*
X66805Y40452D01*
X66151Y39505D01*
X65441Y38598D01*
X64677Y37737D01*
X63863Y36923D01*
X63002Y36159D01*
X62095Y35449D01*
X61148Y34795D01*
X60163Y34200D01*
X59143Y33665D01*
X58093Y33192D01*
X57017Y32784D01*
X55918Y32441D01*
X54800Y32166D01*
X53668Y31958D01*
X52525Y31820D01*
X51376Y31750D01*
X50224Y31750D01*
X49075Y31820D01*
X47932Y31958D01*
X46800Y32166D01*
X45682Y32441D01*
X44583Y32784D01*
X43507Y33192D01*
X42457Y33665D01*
X41437Y34200D01*
X40452Y34795D01*
X39505Y35449D01*
X38598Y36159D01*
X37737Y36923D01*
X36923Y37737D01*
X36159Y38598D01*
X35449Y39505D01*
X34795Y40452D01*
X34200Y41437D01*
X33665Y42457D01*
X33192Y43507D01*
X32784Y44583D01*
X32441Y45682D01*
X32166Y46800D01*
X31958Y47932D01*
X31820Y49075D01*
X31750Y50224D01*
X31750Y51376D01*
X31820Y52525D01*
X31958Y53668D01*
X32166Y54800D01*
X32441Y55918D01*
X32784Y57017D01*
X33192Y58093D01*
X33665Y59143D01*
X34200Y60163D01*
X34795Y61148D01*
X35449Y62095D01*
X36159Y63002D01*
X36923Y63863D01*
X37737Y64677D01*
X38598Y65441D01*
X39505Y66151D01*
X40452Y66805D01*
X41437Y67400D01*
X42457Y67935D01*
X43507Y68408D01*
X44583Y68816D01*
X45682Y69159D01*
X46800Y69434D01*
X47932Y69642D01*
X49075Y69781D01*
X50224Y69850D01*
X51376Y69850D01*
X52525Y69781D01*
X53668Y69642D01*
X54800Y69434D01*
X55918Y69159D01*
X57017Y68816D01*
X58093Y68408D01*
X59143Y67935D01*
X60163Y67400D01*
X61148Y66805D01*
X62095Y66151D01*
X63002Y65441D01*
X63863Y64677D01*
X64677Y63863D01*
X65441Y63002D01*
X66151Y62095D01*
X66805Y61148D01*
X67400Y60163D01*
X67935Y59143D01*
X68408Y58093D01*
X68816Y57017D01*
X69159Y55918D01*
X69434Y54800D01*
X69642Y53668D01*
X69781Y52525D01*
X69850Y51376D01*
X69850Y50224D01*
X831850Y50224D02*
X831781Y49075D01*
X831642Y47932D01*
X831434Y46800D01*
X831159Y45682D01*
X830816Y44583D01*
X830408Y43507D01*
X829935Y42457D01*
X829400Y41437D01*
X828805Y40452D01*
X828151Y39505D01*
X827441Y38598D01*
X826677Y37737D01*
X825863Y36923D01*
X825002Y36159D01*
X824095Y35449D01*
X823148Y34795D01*
X822163Y34200D01*
X821143Y33665D01*
X820093Y33192D01*
X819017Y32784D01*
X817918Y32441D01*
X816800Y32166D01*
X815668Y31958D01*
X814525Y31820D01*
X813376Y31750D01*
X812224Y31750D01*
X811075Y31820D01*
X809932Y31958D01*
X808800Y32166D01*
X807682Y32441D01*
X806583Y32784D01*
X805507Y33192D01*
X804457Y33665D01*
X803437Y34200D01*
X802452Y34795D01*
X801505Y35449D01*
X800598Y36159D01*
X799737Y36923D01*
X798923Y37737D01*
X798159Y38598D01*
X797449Y39505D01*
X796795Y40452D01*
X796200Y41437D01*
X795665Y42457D01*
X795192Y43507D01*
X794784Y44583D01*
X794441Y45682D01*
X794166Y46800D01*
X793958Y47932D01*
X793820Y49075D01*
X793750Y50224D01*
X793750Y51376D01*
X793820Y52525D01*
X793958Y53668D01*
X794166Y54800D01*
X794441Y55918D01*
X794784Y57017D01*
X795192Y58093D01*
X795665Y59143D01*
X796200Y60163D01*
X796795Y61148D01*
X797449Y62095D01*
X798159Y63002D01*
X798923Y63863D01*
X799737Y64677D01*
X800598Y65441D01*
X801505Y66151D01*
X802452Y66805D01*
X803437Y67400D01*
X804457Y67935D01*
X805507Y68408D01*
X806583Y68816D01*
X807682Y69159D01*
X808800Y69434D01*
X809932Y69642D01*
X811075Y69781D01*
X812224Y69850D01*
X813376Y69850D01*
X814525Y69781D01*
X815668Y69642D01*
X816800Y69434D01*
X817918Y69159D01*
X819017Y68816D01*
X820093Y68408D01*
X821143Y67935D01*
X822163Y67400D01*
X823148Y66805D01*
X824095Y66151D01*
X825002Y65441D01*
X825863Y64677D01*
X826677Y63863D01*
X827441Y63002D01*
X828151Y62095D01*
X828805Y61148D01*
X829400Y60163D01*
X829935Y59143D01*
X830408Y58093D01*
X830816Y57017D01*
X831159Y55918D01*
X831434Y54800D01*
X831642Y53668D01*
X831781Y52525D01*
X831850Y51376D01*
X831850Y50224D01*
X831850Y329624D02*
X831781Y328475D01*
X831642Y327332D01*
X831434Y326200D01*
X831159Y325082D01*
X830816Y323983D01*
X830408Y322907D01*
X829935Y321857D01*
X829400Y320837D01*
X828805Y319852D01*
X828151Y318905D01*
X827441Y317998D01*
X826677Y317137D01*
X825863Y316323D01*
X825002Y315559D01*
X824095Y314849D01*
X823148Y314195D01*
X822163Y313600D01*
X821143Y313065D01*
X820093Y312592D01*
X819017Y312184D01*
X817918Y311841D01*
X816800Y311566D01*
X815668Y311358D01*
X814525Y311220D01*
X813376Y311150D01*
X812224Y311150D01*
X811075Y311220D01*
X809932Y311358D01*
X808800Y311566D01*
X807682Y311841D01*
X806583Y312184D01*
X805507Y312592D01*
X804457Y313065D01*
X803437Y313600D01*
X802452Y314195D01*
X801505Y314849D01*
X800598Y315559D01*
X799737Y316323D01*
X798923Y317137D01*
X798159Y317998D01*
X797449Y318905D01*
X796795Y319852D01*
X796200Y320837D01*
X795665Y321857D01*
X795192Y322907D01*
X794784Y323983D01*
X794441Y325082D01*
X794166Y326200D01*
X793958Y327332D01*
X793820Y328475D01*
X793750Y329624D01*
X793750Y330776D01*
X793820Y331925D01*
X793958Y333068D01*
X794166Y334200D01*
X794441Y335318D01*
X794784Y336417D01*
X795192Y337493D01*
X795665Y338543D01*
X796200Y339563D01*
X796795Y340548D01*
X797449Y341495D01*
X798159Y342402D01*
X798923Y343263D01*
X799737Y344077D01*
X800598Y344841D01*
X801505Y345551D01*
X802452Y346205D01*
X803437Y346800D01*
X804457Y347335D01*
X805507Y347808D01*
X806583Y348216D01*
X807682Y348559D01*
X808800Y348834D01*
X809932Y349042D01*
X811075Y349181D01*
X812224Y349250D01*
X813376Y349250D01*
X814525Y349181D01*
X815668Y349042D01*
X816800Y348834D01*
X817918Y348559D01*
X819017Y348216D01*
X820093Y347808D01*
X821143Y347335D01*
X822163Y346800D01*
X823148Y346205D01*
X824095Y345551D01*
X825002Y344841D01*
X825863Y344077D01*
X826677Y343263D01*
X827441Y342402D01*
X828151Y341495D01*
X828805Y340548D01*
X829400Y339563D01*
X829935Y338543D01*
X830408Y337493D01*
X830816Y336417D01*
X831159Y335318D01*
X831434Y334200D01*
X831642Y333068D01*
X831781Y331925D01*
X831850Y330776D01*
X831850Y329624D01*
X14280Y164389D02*
X14340Y164844D01*
X14459Y165287D01*
X14634Y165711D01*
X14864Y166109D01*
X15143Y166473D01*
X15467Y166797D01*
X15831Y167076D01*
X16229Y167306D01*
X16653Y167481D01*
X17096Y167600D01*
X17551Y167660D01*
X18009Y167660D01*
X18464Y167600D01*
X18907Y167481D01*
X19331Y167306D01*
X19729Y167076D01*
X20093Y166797D01*
X20417Y166473D01*
X20696Y166109D01*
X20926Y165711D01*
X21101Y165287D01*
X21220Y164844D01*
X21280Y164389D01*
X21280Y163931D01*
X21220Y163476D01*
X21101Y163033D01*
X20926Y162609D01*
X20696Y162211D01*
X20417Y161847D01*
X20093Y161523D01*
X19729Y161244D01*
X19331Y161014D01*
X18907Y160839D01*
X18464Y160720D01*
X18009Y160660D01*
X17551Y160660D01*
X17096Y160720D01*
X16653Y160839D01*
X16229Y161014D01*
X15831Y161244D01*
X15467Y161523D01*
X15143Y161847D01*
X14864Y162211D01*
X14634Y162609D01*
X14459Y163033D01*
X14340Y163476D01*
X14280Y163931D01*
X14280Y164389D01*
X14280Y237389D02*
X14340Y237844D01*
X14459Y238287D01*
X14634Y238711D01*
X14864Y239109D01*
X15143Y239473D01*
X15467Y239797D01*
X15831Y240076D01*
X16229Y240306D01*
X16653Y240481D01*
X17096Y240600D01*
X17551Y240660D01*
X18009Y240660D01*
X18464Y240600D01*
X18907Y240481D01*
X19331Y240306D01*
X19729Y240076D01*
X20093Y239797D01*
X20417Y239473D01*
X20696Y239109D01*
X20926Y238711D01*
X21101Y238287D01*
X21220Y237844D01*
X21280Y237389D01*
X21280Y236931D01*
X21220Y236476D01*
X21101Y236033D01*
X20926Y235609D01*
X20696Y235211D01*
X20417Y234847D01*
X20093Y234523D01*
X19729Y234244D01*
X19331Y234014D01*
X18907Y233839D01*
X18464Y233720D01*
X18009Y233660D01*
X17551Y233660D01*
X17096Y233720D01*
X16653Y233839D01*
X16229Y234014D01*
X15831Y234244D01*
X15467Y234523D01*
X15143Y234847D01*
X14864Y235211D01*
X14634Y235609D01*
X14459Y236033D01*
X14340Y236476D01*
X14280Y236931D01*
X14280Y237389D01*
M02*
