G04 EAGLE Gerber RS-274X export*
G75*
%MOMM*%
%FSLAX34Y34*%
%LPD*%
%INSoldermask Bottom*%
%IPPOS*%
%AMOC8*
5,1,8,0,0,1.08239X$1,22.5*%
G01*
%ADD10C,4.013200*%
%ADD11R,3.101391X1.897569*%
%ADD12R,3.102441X1.907250*%
%ADD13C,1.411200*%
%ADD14C,0.903200*%
%ADD15C,1.727200*%
%ADD16R,1.727200X1.727200*%
%ADD17C,1.727200*%
%ADD18R,1.711200X1.711200*%
%ADD19C,1.711200*%
%ADD20P,2.034460X8X22.500000*%
%ADD21P,2.034460X8X202.500000*%
%ADD22C,1.524000*%
%ADD23P,1.951982X8X22.500000*%
%ADD24C,0.959600*%


D10*
X50800Y330200D03*
X50800Y50800D03*
X812800Y50800D03*
X812800Y330200D03*
D11*
X17787Y164148D03*
D12*
X17792Y237196D03*
D13*
X68280Y200660D03*
X68280Y184660D03*
X56280Y208660D03*
X56280Y192660D03*
X68280Y216660D03*
D14*
X17780Y164160D03*
X17780Y237160D03*
D15*
X381000Y335280D02*
X381000Y350520D01*
X406400Y350520D02*
X406400Y335280D01*
X431800Y335280D02*
X431800Y350520D01*
D16*
X444500Y190500D03*
D17*
X444500Y165100D03*
X444500Y139700D03*
X444500Y114300D03*
D16*
X518160Y246380D03*
D17*
X518160Y271780D03*
X543560Y246380D03*
X543560Y271780D03*
X568960Y246380D03*
X568960Y271780D03*
X594360Y246380D03*
X594360Y271780D03*
X619760Y246380D03*
X619760Y271780D03*
X645160Y246380D03*
X645160Y271780D03*
X670560Y246380D03*
X670560Y271780D03*
X695960Y246380D03*
X695960Y271780D03*
X721360Y246380D03*
X721360Y271780D03*
X746760Y246380D03*
X746760Y271780D03*
D16*
X746760Y58420D03*
D17*
X746760Y33020D03*
X721360Y58420D03*
X721360Y33020D03*
X695960Y58420D03*
X695960Y33020D03*
X670560Y58420D03*
X670560Y33020D03*
X645160Y58420D03*
X645160Y33020D03*
X619760Y58420D03*
X619760Y33020D03*
X594360Y58420D03*
X594360Y33020D03*
X568960Y58420D03*
X568960Y33020D03*
X543560Y58420D03*
X543560Y33020D03*
X518160Y58420D03*
X518160Y33020D03*
X492760Y58420D03*
X492760Y33020D03*
X467360Y58420D03*
X467360Y33020D03*
D18*
X138900Y50000D03*
D19*
X188900Y50000D03*
X188900Y100000D03*
X138900Y100000D03*
D18*
X316700Y50000D03*
D19*
X366700Y50000D03*
X366700Y100000D03*
X316700Y100000D03*
D20*
X101600Y215900D03*
X127000Y215900D03*
X101600Y254000D03*
X127000Y254000D03*
D21*
X546100Y304800D03*
X520700Y304800D03*
X393700Y228600D03*
X368300Y228600D03*
D15*
X139700Y335280D02*
X139700Y350520D01*
X165100Y350520D02*
X165100Y335280D01*
X190500Y335280D02*
X190500Y350520D01*
X215900Y350520D02*
X215900Y335280D01*
X241300Y335280D02*
X241300Y350520D01*
D22*
X596900Y349504D02*
X596900Y336296D01*
X546100Y336296D02*
X546100Y349504D01*
X571500Y349504D02*
X571500Y336296D01*
D23*
X825500Y266700D03*
X825500Y228600D03*
D21*
X744220Y330200D03*
X652780Y330200D03*
D24*
X682752Y263652D03*
M02*
